<mxfile host="Electron" agent="Mozilla/5.0 (X11; Linux x86_64) AppleWebKit/537.36 (KHTML, like Gecko) draw.io/24.7.17 Chrome/128.0.6613.36 Electron/32.0.1 Safari/537.36" version="24.7.17">
  <diagram id="WI9T0HZ2pTsCkuznbFz-" name="Page-1">
    <mxGraphModel dx="1453" dy="734" grid="1" gridSize="10" guides="1" tooltips="1" connect="1" arrows="1" fold="1" page="1" pageScale="1" pageWidth="827" pageHeight="1169" math="0" shadow="0">
      <root>
        <mxCell id="0" />
        <mxCell id="1" parent="0" />
        <mxCell id="roKjLfnRFjC0Z9Z0MT9X-2" value="&lt;font style=&quot;font-size: 18px;&quot;&gt;Internet&lt;/font&gt;" style="image;aspect=fixed;perimeter=ellipsePerimeter;html=1;align=center;shadow=0;dashed=0;spacingTop=3;image=img/lib/active_directory/internet_cloud.svg;" vertex="1" parent="1">
          <mxGeometry x="77" y="466" width="234.12" height="147.5" as="geometry" />
        </mxCell>
        <mxCell id="yIlqXNv4PA9Dnh1hxRCn-52" value="" style="rounded=0;whiteSpace=wrap;html=1;fillColor=#CCE5FF;strokeColor=#00994D;fontColor=#333333;movable=1;resizable=1;rotatable=1;deletable=1;editable=1;locked=0;connectable=1;" parent="1" vertex="1">
          <mxGeometry x="384" y="20" width="1450" height="920" as="geometry" />
        </mxCell>
        <object label="" placeholders="1" Azure="Cloud" id="_3ll0cSLBvclYAwyF3e0-24">
          <mxCell style="box;rounded=0;html=1;align=center;movable=1;resizable=1;rotatable=1;deletable=1;editable=1;locked=0;connectable=1;fillColor=#F5F5F5;" parent="1" vertex="1">
            <mxGeometry x="665" y="130" width="1060" height="700" as="geometry" />
          </mxCell>
        </object>
        <mxCell id="_3ll0cSLBvclYAwyF3e0-2" value="&lt;font style=&quot;font-size: 18px;&quot;&gt;vnet-egress&lt;/font&gt;" style="image;aspect=fixed;html=1;points=[];align=center;fontSize=16;image=img/lib/azure2/networking/Virtual_Networks.svg;movable=1;resizable=1;rotatable=1;deletable=1;editable=1;locked=0;connectable=1;" parent="1" vertex="1">
          <mxGeometry x="703" y="138" width="50" height="29.85" as="geometry" />
        </mxCell>
        <mxCell id="_3ll0cSLBvclYAwyF3e0-12" value="" style="image;aspect=fixed;html=1;points=[];align=center;fontSize=12;image=img/lib/azure2/other/Azure_A.svg;movable=1;resizable=1;rotatable=1;deletable=1;editable=1;locked=0;connectable=1;" parent="1" vertex="1">
          <mxGeometry x="1736" y="850.18" width="81.47" height="76.82" as="geometry" />
        </mxCell>
        <mxCell id="_3ll0cSLBvclYAwyF3e0-9" value="" style="box;rounded=1;whiteSpace=wrap;html=1;align=center;dashed=1;movable=1;resizable=1;rotatable=1;deletable=1;editable=1;locked=0;connectable=1;" parent="1" vertex="1">
          <mxGeometry x="764" y="241" width="850" height="469" as="geometry" />
        </mxCell>
        <mxCell id="_3ll0cSLBvclYAwyF3e0-13" value="&lt;font style=&quot;font-size: 18px;&quot;&gt;Address Space 10.0.0.0/23&lt;/font&gt;&lt;div&gt;&lt;font style=&quot;font-size: 18px;&quot;&gt;10.0.0.0 - 10.0.1.255&lt;br&gt;&lt;/font&gt;&lt;/div&gt;" style="text;html=1;align=center;verticalAlign=middle;whiteSpace=wrap;rounded=0;movable=1;resizable=1;rotatable=1;deletable=1;editable=1;locked=0;connectable=1;font=16;" parent="1" vertex="1">
          <mxGeometry x="1053" y="204" width="220" height="30" as="geometry" />
        </mxCell>
        <mxCell id="_3ll0cSLBvclYAwyF3e0-14" value="" style="rounded=1;whiteSpace=wrap;html=1;movable=1;resizable=1;rotatable=1;deletable=1;editable=1;locked=0;connectable=1;" parent="1" vertex="1">
          <mxGeometry x="813" y="301.36" width="300" height="357.64" as="geometry" />
        </mxCell>
        <mxCell id="_3ll0cSLBvclYAwyF3e0-15" value="&lt;font style=&quot;font-size: 18px;&quot;&gt;AzureFirewallSubnet&lt;/font&gt;&lt;div&gt;&lt;font size=&quot;3&quot;&gt;Public - 10.0.0.0/26&lt;/font&gt;&lt;/div&gt;" style="image;aspect=fixed;html=1;points=[];align=center;fontSize=16;image=img/lib/azure2/networking/Subnet.svg;movable=1;resizable=1;rotatable=1;deletable=1;editable=1;locked=0;connectable=1;" parent="1" vertex="1">
          <mxGeometry x="935" y="268.4" width="46" height="27.54" as="geometry" />
        </mxCell>
        <mxCell id="_3ll0cSLBvclYAwyF3e0-19" value="" style="rounded=1;whiteSpace=wrap;html=1;movable=1;resizable=1;rotatable=1;deletable=1;editable=1;locked=0;connectable=1;" parent="1" vertex="1">
          <mxGeometry x="1286" y="300" width="286" height="359" as="geometry" />
        </mxCell>
        <mxCell id="_3ll0cSLBvclYAwyF3e0-20" value="&lt;font style=&quot;font-size: 18px;&quot;&gt;aks-subnet&lt;/font&gt;&lt;div&gt;&lt;font size=&quot;3&quot;&gt;Private 10.0.1.0/24&lt;br&gt;256&amp;nbsp;&lt;/font&gt;&lt;span style=&quot;font-size: medium;&quot;&gt;IPs&lt;/span&gt;&lt;/div&gt;" style="image;aspect=fixed;html=1;points=[];align=center;fontSize=12;image=img/lib/azure2/networking/Subnet.svg;movable=1;resizable=1;rotatable=1;deletable=1;editable=1;locked=0;connectable=1;" parent="1" vertex="1">
          <mxGeometry x="1408" y="268" width="45" height="26.94" as="geometry" />
        </mxCell>
        <mxCell id="_3ll0cSLBvclYAwyF3e0-26" value="&lt;span style=&quot;font-size: 18px;&quot;&gt;Public&lt;/span&gt;&lt;br&gt;&lt;div&gt;&lt;span style=&quot;font-size: 18px;&quot;&gt;aks-egress&lt;/span&gt;&lt;br&gt;&lt;div&gt;&lt;font style=&quot;font-size: 18px;&quot;&gt;10.0.1.5&lt;/font&gt;&lt;/div&gt;&lt;/div&gt;" style="image;aspect=fixed;html=1;points=[];align=center;fontSize=12;image=img/lib/azure2/containers/Kubernetes_Services.svg;rounded=1;strokeColor=default;verticalAlign=middle;fontFamily=Helvetica;fontColor=default;resizable=1;fillColor=default;" parent="1" vertex="1">
          <mxGeometry x="1455" y="485" width="68" height="60" as="geometry" />
        </mxCell>
        <mxCell id="_3ll0cSLBvclYAwyF3e0-27" value="&lt;font style=&quot;font-size: 18px;&quot;&gt;Firewall&lt;br&gt;fw-egress&lt;/font&gt;" style="image;aspect=fixed;html=1;points=[];align=center;fontSize=12;image=img/lib/azure2/networking/Firewalls.svg;rounded=1;strokeColor=default;verticalAlign=middle;fontFamily=Helvetica;fontColor=default;resizable=1;fillColor=default;" parent="1" vertex="1">
          <mxGeometry x="928.5" y="496" width="71" height="60" as="geometry" />
        </mxCell>
        <mxCell id="roKjLfnRFjC0Z9Z0MT9X-26" style="edgeStyle=orthogonalEdgeStyle;rounded=0;orthogonalLoop=1;jettySize=auto;html=1;fillColor=#00FF80;strokeColor=#3399FF;" edge="1" parent="1">
          <mxGeometry relative="1" as="geometry">
            <mxPoint x="610" y="554" as="sourcePoint" />
            <mxPoint x="881" y="554" as="targetPoint" />
          </mxGeometry>
        </mxCell>
        <mxCell id="veNwKxyJ03v_mKAlUTr2-1" value="&lt;span style=&quot;font-size: 18px;&quot;&gt;fw-pip-egress&lt;/span&gt;" style="image;aspect=fixed;html=1;points=[];align=center;fontSize=12;image=img/lib/azure2/networking/Public_IP_Addresses.svg;" parent="1" vertex="1">
          <mxGeometry x="510" y="500" width="65" height="52" as="geometry" />
        </mxCell>
        <mxCell id="veNwKxyJ03v_mKAlUTr2-3" value="&lt;font style=&quot;font-size: 14px;&quot;&gt;rt-egress&lt;br&gt;UDR&lt;/font&gt;" style="image;aspect=fixed;html=1;points=[];align=center;fontSize=12;image=img/lib/azure2/networking/Route_Tables.svg;" parent="1" vertex="1">
          <mxGeometry x="1171" y="450" width="39" height="37.78" as="geometry" />
        </mxCell>
        <mxCell id="roKjLfnRFjC0Z9Z0MT9X-71" style="edgeStyle=orthogonalEdgeStyle;rounded=0;orthogonalLoop=1;jettySize=auto;html=1;exitX=0.511;exitY=0.057;exitDx=0;exitDy=0;exitPerimeter=0;fillColor=#E4FF36;strokeColor=#33001A;" edge="1" parent="1" source="roKjLfnRFjC0Z9Z0MT9X-1">
          <mxGeometry relative="1" as="geometry">
            <mxPoint x="1354.6032558139534" y="569.72" as="sourcePoint" />
            <mxPoint x="1440" y="530" as="targetPoint" />
            <Array as="points">
              <mxPoint x="1360" y="554" />
              <mxPoint x="1359" y="530" />
            </Array>
          </mxGeometry>
        </mxCell>
        <mxCell id="roKjLfnRFjC0Z9Z0MT9X-1" value="&lt;span style=&quot;font-size: 18px;&quot;&gt;aks-ilb&lt;/span&gt;&lt;br&gt;&lt;div&gt;&lt;span style=&quot;font-size: 18px;&quot;&gt;10.0.1.6&lt;/span&gt;&lt;/div&gt;" style="image;aspect=fixed;html=1;points=[];align=center;fontSize=12;image=img/lib/azure2/networking/Load_Balancers.svg;fontStyle=2" vertex="1" parent="1">
          <mxGeometry x="1338" y="556" width="42" height="42" as="geometry" />
        </mxCell>
        <mxCell id="roKjLfnRFjC0Z9Z0MT9X-25" value="" style="group" vertex="1" connectable="0" parent="1">
          <mxGeometry x="88" y="179.65" width="208" height="90.20000000000002" as="geometry" />
        </mxCell>
        <mxCell id="roKjLfnRFjC0Z9Z0MT9X-5" value="" style="image;sketch=0;aspect=fixed;html=1;points=[];align=center;fontSize=12;image=img/lib/mscae/Docker.svg;movable=0;resizable=0;rotatable=0;deletable=0;editable=0;locked=1;connectable=0;" vertex="1" parent="roKjLfnRFjC0Z9Z0MT9X-25">
          <mxGeometry x="98" width="110" height="90.2" as="geometry" />
        </mxCell>
        <mxCell id="roKjLfnRFjC0Z9Z0MT9X-6" value="" style="dashed=0;outlineConnect=0;html=1;align=center;labelPosition=center;verticalLabelPosition=bottom;verticalAlign=top;shape=mxgraph.weblogos.github;movable=0;resizable=0;rotatable=0;deletable=0;editable=0;locked=1;connectable=0;" vertex="1" parent="roKjLfnRFjC0Z9Z0MT9X-25">
          <mxGeometry y="3.3499999999999943" width="75" height="75" as="geometry" />
        </mxCell>
        <mxCell id="roKjLfnRFjC0Z9Z0MT9X-29" value="&lt;font style=&quot;font-size: 18px;&quot;&gt;dnat-rule&lt;/font&gt;" style="edgeStyle=elbowEdgeStyle;rounded=0;orthogonalLoop=1;jettySize=auto;html=1;fillColor=#00FF80;strokeColor=#3399FF;" edge="1" parent="1">
          <mxGeometry x="-0.0171" relative="1" as="geometry">
            <mxPoint x="1016" y="552" as="sourcePoint" />
            <mxPoint x="1330" y="580" as="targetPoint" />
            <Array as="points">
              <mxPoint x="1240" y="560" />
            </Array>
            <mxPoint as="offset" />
          </mxGeometry>
        </mxCell>
        <mxCell id="roKjLfnRFjC0Z9Z0MT9X-40" value="" style="shape=image;aspect=fixed;image=data:image/png,iVBORw0KGgoAAAANSUhEUgAABAgAAAKFCAYAAABBZ9smAAAAAXNSR0IArs4c6QAAAARnQU1BAACxjwv8YQUAAAAJcEhZcwAAMsAAADLAAShkWtsAAP+lSURBVHhe7P0LmFzVeecLO5lkcp8493viXBzbcRzHcZw4sU2XJCSha6M7Uktq3a/ogoQQQoBKCBAgQGCMhW2wwBgwxhhjbGOMcdFqtVpd1+4WyczJ+WYy52S+yclMZjJJZiY+J/Od/a1317t2r1q1dtXa19pV9f89z/+xE6u6V1f3uv1qrXe/DQAAAAAAAAAAAAAAAAAAAAAAAAAAAAAAAAAAAAAAAAAAAAAAAAAAAAAAAAAAAAAAAAAAAAAAAAAAAAAAAAAAAAAAAAAAAAAAAAAAAAAAAAAAAAAAAAAAAAAAAAAAAAAAAAAAAAAAAAAAAAAAAAAAAAAAAAAAAAAAAAAAAAAAAAAAAAAAAAAAAAAAAAAAAAAAAAAAAAAAAAAAAAAAAAAAAAAAAAAAAAAAAAAAAAAAAAAAAAAAAAAAAAAAAAAAAAAAAAAAAAAAAAAAAAAAAAAAAAAAAAAAAAAAAAAAAAAAAAAAAAAAAAAAAAAAAAAAAAAAAAAAAAAAAAAAAAAAAAAAAAAAAAAAAAAAAAAAAAAAAAAAAAAAAAAAAAAAAAAAAAAAAAAAAAAAAAAAAAAAAAAAAAAAAAAAAAAAAAAAAAAAAAAAAAAAAAAAAAAAAAAAAAAAAAAAAAAAAAAAAAAAAAAAAAAAAAAAAAAAAAAAAAAAAAAAAAAAAAAAAAAAAAAAAAAAAAAAAAAAAAAAAAAAAAAAAAAAAAAAAAAAAAAAAAAAAAAAAAAAAAAAAAAAAAAAAAAAAAAAAAAAAAAAAAAAAAAAAAAAAAAAAAAAAAAAAAAAAAAAAAAAAAAAAAAAAAAAAAAAAAAAAAAAAAAAAAAAAAAAAAAAAAAAAAAAAAAAAAAAAAAAAAAAAAAAAAAAAAAAAAAAAAAAAAAAAAAAAAAAAAAAAAAAAAAAAAAAAAAAAAAAAAAAAAAAAAAAAAAAAAAAAAAAAAAAAAAAAAAAAAAAAAAAAAAAAAAAAAAAAAAAAAAAAAAAAAAAAAAAAAAAAAAAAAAAAAAAAAAAAAAAAAAAAAAAAAAAAAAAAAAAAAAAAAAAAAAAAAAAAAAAAAAAAAAAAAAAAAAAAAAAAAAAAAAAAAAAAAAAAAAAAAAAAAAAAAAAAAAAAAAAAAAAAAAAAAAAAAAAAAAAAAAAAAAAAAAAAAAAAAAAAAAAAAAAAAAAAAAAAAAAAAAAAAAAAAAAAAAAAAAAAAAAAAAAAAAAAAAAAAAAAAAAAAAAAAAAAAAAAAAAAAAAAAAAAAAAAAAAAAAAAAAAAAAAAAAAAAAAAAAAAAAAAAAAAAAAAAAAAAAAAAAAAAAAAAAAAAAAAAAAAAAAAAAAAAAAAAAAAAAAAAAAAAAAAAAAAAAAAAAAAAAAAAAAAAAAAAAAAAAAAAAAAAAAAAAAAAAAAAAAAAAAAAAAAAAAAAAAAAAAAAAAAAAAAAAAAAAAAAAAAAAAAAAAAAAAAAAAAAAAAAAAAAAAAAAAAAAAAAAAAAAAAAAAAAAAAAAAAAAAAAAAAAAAAAAAAAAAAAAAAAAAAAAAAAAAAAAAAAAAAAAAAAAAAAAAAAAAAAAAAAAAAAAAAAAAAAAAAAAAAAAAAAAAAAAAAAAAAAAAAAAAAAAAAAAAAAAAAAAAAAAAAAAAAAAAAAAAAAAAAAAAAAAAAAAAAAAAAAAAAAAAAAAAAAAAAAAAAAAAAAAAAAAAAAAAAAAAAAAAAAAAAAAAAAAAAAAAAAAAAAAAAAAAAAAAAAAAAAAAAAAAAAAAAAAAAAAAAAAAAAAAAAAAAAAAAAAAAAAAAAAAAAAAAAAAAAAAAAAAAAAAAAAAAAAAAAAAAAAAAAAAAAAAAAAAAAAAAAAAAAAAAAAAAAAAAAAAAAAAAAAAAAAAAAAAAAAAAAAAAAAAAAAAAAAAAAAAAAAAAAAAAAAAAAAAAAAAAAAAAAAAAAAAAAAAAAAAAAAAAAAAAAAAAAAAAAAAAAAAAAAAAAAAAAAAAAAAAAAAAAAAAAAAAAAAAAAAAAAAAAAAAAAAAAAAAAAAAAAAAAAAAAAAAAAAAAAAAAAAAAAAAAAAAAAAAAAAAAAAAAAAAAAAAAAAAAAAAAAAAAAAAAAAAAAAAAAAAAAAAAAAAAAAAAAAAAAAAAAAAAAAAAAAAAAAAAAAAAAAAAAAAAAAAAAAAAAAAAAAAAAAAAAAAAAAAAAAAAAAAAAAAAAAAAAAAAAAAAAAAAAAAAAAAAAAAAAAAAAAAAAAAAAAAAAAAAAAAAAAAAAAAAAAAAAAAAAAAAAAAAAAAAAAAAAAAAAAAAAAAAAAAAAAAAAAAAAAAAAAAAAAAAAAAAAAAAAAAAAAAAAAAAAAAAAAAAAAAAAAAAAAAAAAAAAAAAAAAAAAAAAAAAAAAAAAAAAAAAAAAAAAAAAAAAAAAAAAAAAAAAAAAAAAAAAAAAAAAAAAAAAAAAAAAAAAAAAAAAAAAAAAAAAAAAAAAAAAAAAAAAAAAAAAAAAAAAAAAAAAAAAAAAAAAAAAAAAAAAAAAAAAAAAAAAAAAAAAAAAAAAAAAAAAAAAAAAAAAAAAAAAAAAAAAAAAAAAAAAAAAAAAAAAAAAAAAAAAAAAAAAAAAAAAAAAAAAAAAAAAAAAAAAAAAAAAAAAAAAAAAAAAAAAAAAAAAAAAAAAAAAAAAAAAAAAAAAAAAAAAAAAAAAAAAAAAAAAAAAAAAAAAAAAAAAAAAAAAAAAAAAAAAAAAAAAAAAAAAAAAAAAAAAAAAAAAAAAAAAAAAAAAAAAAAAAAAAAAAAAAAAAAAAAAAAAAAAAAAAAAAAAAAAAAAAAAAAAAAAAAAAAAAAAAAAAAAAAAAAAAAAAAAAAAAAAAAAAAAAAAAAAAAAAAAOEpDZRypYGJfCVXLNRTcswpFujfUfilAAAAAAAAgLQ4vGI0d5TD/y8AAIgMSYHWMqB16PX8pQAAAAAAAABJQVLg0Kqxwo2rLjlHRG5aOZOjK8bwyR0AIBJRxIAMBAEAAAAAAAAJc8OqsfyhVZecwxySBBAFAIA4qJ8aMG/4gwaCAAAAAAAAgAQ5sGI0d3D1JecGEZIEuiggSaCKAlw7AADYUq8xYN7shwkEAQAAAABAH/JHW0edPxb5sJI/EfnTLaPORzgf5XxM5KrN9QyI5NxcKPCXyjxDQ6O5oaExZ73IhnX1bOQMi2wS2bx2JltEtopso1znJtLPum/VWP7A6ksORRUFUhKoooAEwZGV0b4fAKA/iFsOUCAIAAAAAAD6kA9tG3U+tHXUaScKpCRQRQFJAgp/qcyzdu1oft3QmCMlgS4KSBK0EQWhN+x714zm9q++5FBUSdBOFFC9Av4SAADQRBJygAJBAAAAAADQh/whCQKOlASqKCBJ8Cdb2oiC4e7YxK4dGnNkVFEgJYEqCkgSqKKAJIFIJEFw/ZpLzr7VjZJAPU1ww6rmawcQBAAAP+KsOaAHggAAAAAAoA/54LZRR5UEqigwnSbQRQFJgo91wTWDVUOj+euGxhyKKglsRIFymiCyIJBpJQoa6hNAEAAAfEjq9AAFggAAAAAAoA/5g22jDiWoKNDrE3wk46cIVq8fcyhrRFRJoJ4msKhPEFoQ7Fwzmtuz5pKzV5MEuihounYAQQAAMBBNDhQLJABUCVD/vyfy8utCEAAAAAAA9CEf2D7qfGDbjCTQRQFJAqv6BBk+RbBiaDS/igWBjShw6xOsM5wmiCAIiN1rLjlSEuiiwK8+Ab8UAAAaCCMI6DX88o4gpQTkAwAAAABARvl9EgQsCVRRQJIgaH0C/pKZY9nQaH7l+jGHoooCkgS6KGh57SCiINi5Ziy/a80lRxUFUhKookBKggOrxjq6mAcAZBeTAGiVTskBkgF0YqEe2RYIAgAAAACATPL+7Rec928fdVqJAikJVFFgPE2Q0WsGyzdcdCgrRKQk0EWBqT5B07WDiIKA2HXdWGHXdXVJ0EoU0CMR+SUAANBAfdPdLAFahV+aOPKEgCoE9EAQAAAAAABklPdtv+D8niIJVFEQuD7BluxdMxgcGs0vY0FgEgVSEqiiQEoCVRTwtYNYfj73JMF1lxwpCkgSqKJgL+QAAKAFQa8XpHF6QD8l0CoQBAAAAAAAGeV9Oy44JAnaiQLb+gTiv2dq4Te44aJzLUcVBSQJVqwPJgrWxSQIJCQK6rJgrLB79ViBChnS0w74fwYAACNBBQG/LDGCnmiAIAAAAAAAyCjv3XHB+V2SBCwKSBKooiBwfYIMnSJYsmE0v3TjRYciRQFJAl0U2NYnWBuzIAAAgDDYflIvwy9LDAgCAAAAAIAe4Xd2XHCkJNBFQWN9ggsFkyiQkkAVBfylO86iDaP5JSwIpCRQRQEJAipgqIqClvUJIAgAABkgmCAoJj5uQRAAAAAAAPQIJAhkGk4TUBpOE1wo2Fw7+FBdEmRi8bdo40VnsQhJAl0UKNcOCvI0gS4KpCTwRAEEAQAgAwQRBGnUH4AgAAAAAADoEd6984Lznh0zkqBJFGznbB3JN1w70ERB47WDzl8zWLBhNL9o+KJDkkAVBVISeCcKuIhh87UDoyiAIAAAdBwIAgAAAAAAkAjv2nnBkZJAFQUkCVRR8N7tI/n3bR8p2NQnIEnwwQ6fIlgwfNGhLCRJ0EIUDA6N5vRrB6bTBBwIAgBAx4EgAAAAAAAAifDbOy84FFUUmE4T/O72kcJ7txZy6rUDXRSQJJgRBZ07RTB3w2h+/vBF5xpFEqiigCSBKwqoRgEXMjTVJzCIAggCAEDHgSAAAAAAAACJ8E4WBFIS+ImC35GCQPx3ee1APU3QLAo6KAiG64JARhUFriSgbBShawgkCcR/V68dKPUJNElwEYIAANBxIAgAAAAAAEAi/NauCw5JAl0UkCRQRcF7to+4m2MSBXp9gqZrBywK3t+hawZzN110KPNEVEmgiwL6tyQI/OoTSEmgiAIIAgBAx4EgAAAAAAAAifAbuy44vykiRYGUBKoocOsTsCAQ/5n3rh0oooAkQXN9gvRPEcwaHs3P2XTRuVqRBLoocOsTbBh1F81uMcONyrUDFgRSEmiiAIIAANBxIAgAAAAAAEAikCCQkqClKNhRFwTv2lrIyWsHDU87oCiSQIqCtE8RzN580SFBIKOKAikJ6qm3iwSBXp+AJIHPtYO+EQSHV4zmKEdWjOVvWjlWoNzMObbyUj3LLxVuETm+bCxPuY3+c8V4Jhf+jywaz1EeXTSep5ybSeLtfW7+eI7y/Pzx/BevmSjIfEnkRZl5E4Uvi7w4dzz/EkX8e355ZhkXmzza6E2IDWhRbFjL7qbVHNqkziRbm0NqTz0TeVPb1WTlZ6i3x7z51kPt5ZclBr0fpu/tl6z9DQAAAAAAAObXWRCoooAkwW/t1EQBCwKCThN4tQlEGkTBdk0UbB1JfHEqGRgeyc/aPOrMdtMoCRpOFGyc2ehfI/67qT6B6drB0oiCYM3QaG7turHCOs56zoa1M9kosonDL0sNEgKHVo0VKIdXXXJuFDkictPKmRwVuVnkmMgtbsadW1aMO8dFbhW5TYaFAX9pa04PjufuvvZS4R7OvUruW3qpcL+Xy4UHRPhlvjy8ZDz/iSWXHZlHRT4pck7JY4svu9dN4uJpsbmnPLNgovDsggnnOZEvUK6ZcJ4X+SLnBc6XRF6kzJ9wvsx5SeQrIi/Tf587kX9pTjaEAUmBS7OKhctuSs6ESFGkRKGNn0hZ2Qi2Tn3DzV86NaQQCLLJbpW4hQF9PSkk/GNui39MX8Mc088Sf5tMr/cPhAIAAAAAQEr82u4Lzjt2XXD8RIGsT/BORRC8a2chpxcyJEmgiwK+dpDaRpcEQW7zqEOpiwLzaQIqYsgveRvJAlN9AreIoYgqCpbEIQiGxhzKOs6QyHqRDetmslFkWIRfligHVozm9q8aKxxcfcm5gbLqknNIhASBlAS6KCBJ0CgK6pJAFwW3c4KIglOD47m7lo07d4ucvnbcuUfkXiX3iZwZHHfu5/DLmji7ZDz/8NLLzsc5j4i0EgX8skicnz+e+9yCicLTCyecz4s8s2DCIUEgI0UBSQJdFJAk0EUBSQJVFLw8r+i8PDf9DTUxOmsiPzarWLg0u+SMy8wqOVIS6KKAJIG9KKhvsvlbJUacUsAvcfwc9c24+eunEdNmPOn3rV0gCAAAAAAAUoIEgZQEuihouHagCAKCThR49QlE9NMEqiigpx/wyxLlqs2jzgALglaigP+5y7xNFwtN9QlE9GsHriiIQRBcNzTmUFRRQJLAJAr4ZYmxb9VYfv/qS84BJVIUkCTQRQFJgiMrm08T6KKAJEHDiYLll6zfNykIpCS4+9rWooBf1sADS8bzDy297MhIUUCSQBUFJAmkKOCXhuL8ovHcUwsnCiLO5zhSEuiigCSBKgqkJFBFgZQEqiggSdAJUTA6Zzw3OrvoUC7OLrkZE/FEwaxGUeBJAorY2AU5TcDfMnbSEAN6oogCCILmQBAAAAAAAKTEr+6+4FBUUUCSQBcFv7WrURC8c/tI3qtPoJ0mUEVBXRI0vjYJPrJ5JP+xLaMOSQJdFJAkkKKAihjyS1zmbrpY0OsTqKcJGkRBREGwYmg0t3r9mLNGRJUEqiggSSBFAb8sdvauGc1dv+aSQ9m3uh5VFJAkUEWBlASqKJCSQBUFJAl0UUCS4NaAguBOFgSqKCBJoIsCkgT8Mo8zS8bzDwxedh4UOSviJwr00wT88kB8ZtF47rMLJwrnF004lCdFVEmgigKSBLoocK8diAQVBa4koCQsCd6cPVEYmVN0LlBYEkhRQJJAFwUkCcJfO4hfEHRCDKgJKwkgCJoDQQAAAAAAkBK/vPuC8ysiqiRQRYGUBL+hCQJCLWLYThQkfYrgo1tGHRkpCkgS6KJggIsTSq7edLHgXjsQaSUKSBIsVGoXhEEKApl2ooBfFiu7V43l96y55OzlqKKAJIEuCtxrByJBRYErCeTVgwCC4MTgeO6OZePOKRE/UUCSQIoCfpnLmSVj+frVg8uOlAS6KCBJYBIF/CWsITnwxKLLDuWzIlIS2IgCKQlUUWC6dmBTn+DleROFuOsTFMTXK8wpOm8qkaJASgJVFJAk0EVB8GsH8QqCuhwwfZ+0E/z+PARBcyAIAAAAAABS4pf2jDgkCdqJgl83CAK6duAVMVQkwbt3GOoTJCgI/mTzSP5Pt4w6H9EkgSoK6pKguR7C7E0XC2p9AreIoSIKGuoTxCAIVq4fc1ZpkkAXBbI+Ab8sNnZdN1bYdd0lZ/eaeqQokJJAFQVSEqiiwPfagYgqCXRRIP4zkCA4uXzckZJAFwXutQMRKQr4ZW+7d3Asr9cnUEUBSQJdFKj1CfjLWPGpReP5zyy+7FAeVySBKgpIEjy5sFEUkCSwEQWm0wTt6hPE9dSD1+eM5964uuh8hxNUFPhdO9BFQfMmMD5B0OkNtilBNrgQBM2BIAAAAAAASAkSBDJSEuiioF6foFkQ/ObOQs73sYgiJAk8UZDgNYM/3jyS/5Oto46UBLoo8K4dDDc/UWH25rogkFFFQdNpghgEwYoNFx0pCXRRoNcn4JfFwvbrxgo7r7vkUEgSSFFAkqBJFKxuLwpsTxOwKAgsCGTU0wS6KCBJwC97m7x2IK8ezIiCy02iQEoCVRTwl2kLPRrxU4svO59mQWASBabTBMb6BAvirU8QhyT49tVFR0aKApIEqiggSaCLguj1CeIRBFmUAzK2m1wIguZAEAAAAAAApMQv7BlxflGRBKooUOsT/Opu8wafrh64j0XURIHp2sG7EjpF8OGto46MKgqkJJCigP95A3SqQC9kSJLAJArokYj8slAMDo3mlm+46JAkUEWBlASqKIhTEGy7bqwg4mwX2SGiSgJVFJiuHcRTn8D+kY0kCE4sH3fyiiQ4uaxRFEhJQKHX3DU4llevHaiSQBUFJAn8RIH7zdvw6KLxvHwsIkkCXRSQJGgnCqQkUEWBbX0C07WDBlEwbyLS3+drcyby37q66LzOgsAkCkynCWR9gguzioWLIvS0A/eJB0ra1yeILgiyLAfqsfsZIQiaA0EAAAAAAJASP79nxCFJoIuCX96tiwKzIPi1nYXcTCFDfiSiiH6awBUFCZwi+NDWkfwfbR11/liTBLoooCKG/JIGSBDI+gQkCWZvaj5N4F09iEEQLNtw0SFJIEXByvX+ooBfFonNa0bzW9eOOdsoLAlsRIF3mkDEFQWrxgr01AN6LKKaG8T/74YVY/lD4n+XkqBZFNgLguMrxnO3Lx93pCRQRQFJAl0U0GvUEwWqJGg+TTAjCvT6BO43bwHJAfWxiKoo8DtNoIuCJxdOFCj0OESZpykLxvOUZxZMFKQkUEWBqT6B6dqBm5CS4NU5E/lvzi06r4lISaCKApIERlEwe6JANQv4y7RkXGzyxsXml9JcnyCaIIhnU02b4HrNgMZM5Otfn/530+uCpP3PCUHQHFObAAAAAABAAvzc3hGHJIEUBSQJGkWBvHbgv7mfKWTYKAqkJFBFAb8kNj60bdShSEmgiwKSBK4o0IoTSq5iQaAWMtQfi6iIgkibGBIE12646KiSYEYUjDVdO+CXhWZ4zWh+89oxZ4sISQJdFJAk0EWBWp9gz+qxAj3xgL+cFSQLKGp9giNBBcGKccfNcn9RIOsTnBocy8vTBG59gmv9RMGlwn1LLxXcQoZLLxco6mkC/va+yKcdyMciqpKgrSgQm396FCJ/qbY8M3887ycKpCRQRYErCSgsCcJcNfg6CwIZVRSYThN8Zw6JgmhXGkgUyPoExVnRBIFpU2mbugCw34BG3cDbfK+6mPBPsA27SXr4h5vQgOnfNSbYeyLfc9twMwAAAAAAQNL87N4RR5UEqiiQkoBPFPgu4Kk+gf5YRH9REN81gw9uHcn/IQsCXRRISeCKgi3NxQklH9t8oaA/FrGFKIi0iVk0NJob3HDRobQTBVEFwfDa0fymdWMOCQIZKQqkJNCvHcyIgrHCzoBiwMRhTxQEEwT0aMTbFEmgigIpCaQoODk4lverT3DPtZcKpwdbb2LlYxH5/zTysPg36hMPpCTQRYF+7UD8Z6S/F1UUBKpPEOIUwTfmFh3KqywIpCTwEwVUzJBfGpkJsVmciCAIwm/YO3VqIdr3JYIKAn5ZYtAm3vy9zcGmHwAAAAAgo/zM3hGH0k4U/GILQUDXDGaedtB8mkAVBfTkA35ZZD6wdST/wW2jDkUVBSQJVFFARQz5JU18dPOFQqvHIqqigJ54wC8LBQmCpRsvOhQpCXRRoNYn4JeFYsPascLwujGHoooCkgStRMH2NWOxPlu/fpogmCAQcUgS6KKAJIFtfYJTbcSALWeXjOdNj0VURYGUBA2iYNF4LO8jXz1oOk3whWta1yd4Yb79939FbPa/Pq/oUKQk0EUBSQLv6sGccM/3T4Kwm3R6HX+JSHTq+0MQAAAAAACARPjpvSMORZUE+rUDVxS0EAQE1ShQH4soJYEqCmR9Anr6Ab8sEh/YPup8YNuo8wciUhLoooAkAf9zIyQI1EKGrU4TxCEIlrAg0EUBSQJdFPDLAjO0djS/Yd2YQ9moSAJdFOjXDrauGe34xu/oivHcLSvGHYoUBSQJdFFgunZQj/0TE2wgQSCfdmAtCmKSAxJdEqiioEV9Auv34ZW5E/mvsSDQRYGUBKoo4JdlgjAb9LjkgCScJIi2aYcgAAAAAAAAifBT19cFgUkUNJwmaCMI6BRB42MRW4iCGE4RvH/rSP73SRCwJNBFgZQEVMSQX2LkTzdfKOiPRfQXBf5XFWxYNDyaW7zxokNRRYHftQN+WWCGhsac9SJSEuiiQEqCBlGQATlAHF0xmju28pJzy8oZSaCKgnbXDvjLxMIDS8bzfo9F1EWBrE9AxQz55bFCkkA+8cBPFEhJ4J0osKxF8PLcifwr84oOpUEUzDWLAn5Zx8mCHJCEa0v4TTIEAQAAAAAASISfvH7EoaiiwHjtoI0gINTHIqqnCfRrBxR+SWh+b/sF5/3bR92oooAkgSoKPri19V16qk8gn3agiwKSBI2iILogWDR80VmkSAJdFKjXDvhlgVi7djS/bmjMIUmgiwKSBEZRkBE5QJAguHnlJYckgS4KTNcOVFFwYlm81yNkfQLTYxHV0wSPsCSg8EsT4XMLJgp+j0X0EQVWf68vzZ3Ivzyv6HxVREoCVRTo9Qn4ZR0nzKacX5oIwTbtlPAbdwgCAAAAAACQCG+/fsT5CUUS6KKAJIGbPe0FARUylI9FlJJAFQUNpwkiXDN47/aR/Pu2X3AoUhSQJGgWBe039B/ecqFgeiyiLgrqkiCaIJg/PJpbSIJAZmPzaQJVFPDLArFm7Wh+7dCYQ5GiwO80gRQF/NJMcHjFaI4ejXhURIoCVxJookC/dnBbzHKAaPVYRCkJGkXBeKKihR6L+LmFE87TIq1OE6j1CfilLXlp7nj+5fkTDkkCXRR4pwlEvPoEMRYojELZsPFslaROD0iCbpIp/NLAQBAAAAAAAIBEIEEgo4oCKQm8EwUWguCXxKafHosoH43YShT8+q7w1wxIEPzujgvO+ygsCVRR4F07aHO9gCBB4D3tgCWBvyiILgiuGb7oLBDxRMFGf1HALwvEmvVjznUsCKQkaCUKNqzNzukBQgoCKQmaRMGKZlFAkoBfHhv3Do7lz7iCQGZGFJAk0EUBSQJ+aaKQIJCSoJ0oIEnwnMU1A3os4kvzJ5yvkCRgUUCSwF8UBH9KQtzQkw9KYqNJksBWFPBLE8X0fVsl7EYZggAAAAAAACTCj+8bcSiqJDCKAgtBQFAxw/pjEeuSQBcFan0CqlvALwvE7+y44LxXhCSBLgrer4gC/uct+dCWC4WmxyKyKGi6dhCDIJg/fNGRkkAXBXp9An6ZNauGRvP0eEQpCXRR0HTtYK390wXSggTBEXo04sq6JFBPE+iiQNYnOJ7A6YHTg2P5e68dd+4TmREFl5tEgZQEVMyQX5ooTy2cKIi4kkA9TaCLAnnt4DmLpxlQrYIvz59wpCTQRYG5PkGyn8a3wxUEs8RGkyI2nO0kQdKnByTBNu7h2wVBAAAAAAAAEuHH9o04/0qTBOppAk8UWAqCnxObfhIEMuppgmZREPwUwbu2j+RJEMhIUeBKAgqLgvdZnB4gPrTtQkF94oGfKHAlQURBMIcFgYx6mkAXBSQJ+GXWrGBBIKOfJlBFAUkCetoBvzQzkCA4vOqScyNJAhEpCVRRoNcnOJaAILjn2ksFEgRSEtw32CgKSBKoooBfljjnF43nnlw04aiSQBUFen0CEau/2RfnTRRenD/hqKLAlQSUeeb6BPT0A3556lyeVSxMzCo5RUUStBIF/LLECbpRDrt5hyAAAAAAAACJQIJApo0osF5kuo9FbJAEjaJASgIKv8Sad++84FDes2NGEjSJgu3i/95qdzrhD1kQSEmgiwK1PgE98YBfFgoSBHM3XXTmiaiSoOnaASWMIFh/0Vm5fsxZpUiCVqKAX5YppCCQkqCdKCBJwC+NldPXjjv3sCBQRQFJgiZRsPRy4hswlfOLJhxKO1EgJQG/rCUvzB/Pv3jNhCMlQZMomNeiPgE9BWFOunUJxmeVnMsiJAl0UdB87SD5DbKKuhG2Cb8sEBAEAAAAAAAgEX5k34jzoywIpCTQRQFfO7BeZNITD6QkaBQFhvoEAa4ZvHP7SP63d15w3sWS4N07GkUBSQJXFGy3bysVMqSnHaiPRpSSoEkUbIkuCK7edNGRkkAXBfq1A36ZNfRoxBUiJAl0UUCSoEEUrMve9QLiwIrR3KFVlxyKKgrcawciqiSoi4L4f45Tg+O5u5eNO5RWokDWJ6CnHfBLU+GzCy8XVEnw5MJGUaDXJ+CXtYSuGXzpmgmHoooCkgTW9QnmThS+Pif5UwWjYnM5PrvkjM+qR4oCkgS6KKhvRtM96RBs8w5BAAAAAAAAMsQP7x9xpCTQRYFWn8B6kflzews599GIIvppAikKZq4d2H/d32RBICNFAUkCVRS8R/w7fklbPrDtQkF9LKKUBKookJKAChryy0JBgmDOposORRUFUhKoooAkAb/MisGh0RwJAhkpCkgS6KKAJAE97YBfmilIEBxcfcm5QUSVBKooUE8THFkR//WCU4Nj+buWjTsUKQl0UeBeOxBxTxQsib8NrXhi4eXCZxdddgWBfprAVJ/gaYtChcTz88fzL2iSQL92YFOfgJ52QKLg1YRkweisifzY7JJziSSBjyhQrx1kXRCE2SxDEAAAAAAAgET4of0jDkUVBVISqKIgiCAg6LGIUhK0EwX09AN+WUt+a9cFh/LOnY2SQBUFJAj4n1vxge0XCvKxiCQJmkTBVkUURBQEA8Ojudmb64JASoJWooBfZsXg0GieHo24TJMEqiiQksAVBeLf80szBQmCA6svOSQJbERBUoLgThYEuiggSaCLgjOD6R6v/8yi8fzjiy47T4j4iQIpCVxRYCkIiC9eM1EgSaCLAvO1g0ZRoNYnkKKg/ljEeDfoJAguzi45JAl0UUCSoEkUpLwZJSFh2hT7BYIAAAAAAABkhh/c/6bzQ27qkqCFKAi0yPypvYXcz+4dcX5ORJUE5voE7b/2r+8cydPjEX9TkQS6KCBJQEUM+SVW/D4Jgu0zj0ZUTxPo1w7+KAZBMGvzqEOSYPamRlFAkkAXBfwyK5ZsGM0PbrjoSEmgi4KVWn2CFUOjmVyg72VBICMlgS4KZH0CqlnAL42Nk8vG8ncsG3dOibQSBVISnE5ZEHxq0Xj+M4svO1IS6KLAvXagiILzAQQBQZJAxJMENtcOfOsTiMQtCkZmTeRHZxcdihQFJAl0USDrE0AQQBAAAAAAAABLfmD/m86MJJgRBSQJNFEQeJH5M3tHHCkJdFGg1yfgl/hCj0UkQSCjigIpCeqiINijE39v+4WCfCyilAS6KPBOE2yLLghym0cdihQFUhKookDWJ+CXWUGCgB6NSFFFgZQEM6KgLgkyKwjWjOb2rb7k7BcxiQK9PkESguDEsrH8yeXjjpQEuihw6xOQGGBRwC9LDSkIZNTTBLooIEkQVBAQdN2AJIEqClxJQJnf+tqBuT5BfKKABMGFOXVBICWBKgr0awf8stSAIGgfCAIAAAAAgIzyLw+86VBaiQKuTxB4kUmPRiRJoIoCKQlUUeBKghYb+1/ZOZKvPxbxgqOKApIEDScKdgRv4/u2jxTosYgkCXRRQJKgURREFwQDLAhsRAG/zIpFG0bz9GhEVRK0EgX8ssxBguD6NZcckgS6KDBdO+CXxYoUBDLqaQJdFJAk4JelxrlF4/lPLb7sfFqTBH7XDujRiPzSQKiSoEkUzG8WBa4koMxrXZ8gqigozJrIj8wpOiQJLrAkUE8T6KKAX5YaEATtA0EAAAAAAJBRvv/Amw5FSoJGUTBz7eCHQwgCumbw03tHHIqUBL6ioMU1AypkKB+LKCWBLgpIEvzmzmDXCwgSBPRYRIoUBSQJdFFQlwTRBMFHhkdzV20edUgSqKKAJIEuCkgS8MusIEGweONFR5UE6mkCXRTwyzIHCYK9ay45JAmkKCBJ4CcK+GWxctuysfyJ5eNOXpEEJ5c1igIpCSj8stQgQfDY4suOlAS6KGi+dhDtCoR+mqDT9QlIELw5p+hQpCiQkkAVBfLaAb8sNSAI2geCAAAAAAAgo3wfCwJdFJAkUEXBD4UQBMRPXj9SkJJAFQWmawc/ZzhFQCcLGh6LqIkCKQko/JJA/M72kcLv7rjgvI9iEAWN9QmiC4KPbhl1PiYiRYHpNIGsT8Avs2LBhtH8oo0XHUorUSDrE9BTD/ilmWLnmtHcnjWXHFUSqKJASgIpCvhlsUKC4Pbl446UBKooIEmgiwJ6LCK/NBUeXTSeP7fkskNRRYGUBKooqEuCeNpnunZgU5/A99qBCImCoI9GfEP8+wILAhtRQI9F5JemAgRB+0AQAAAAAABklO898KbzL0RaiQJXEux7M9Qi88f3FnI/ef2I81MifqLAO01gOEXwS7sLefm0A10UqNcOqIghvyQQ79k+UnjvjgsOSQJVFNQlgSYKYhIEUhJ8bHNrUcAvs4IEAT0acRFlY10S6KJAvXaQZUGwe80lh2IjCvhlsXKcBMGKcYckgSoKvNMEImp9gk4Igk+yIJCSoJUo+ExMgkDiW59gfqMoMNUnMF07oPoEQSTB6+LffufqokOSQBUFJAl0UUCSAIIAggAAAAAAAFjyvQffdKQk0EVBQ32CkIKA+InrRxySBLooMNQnaBYEe2YKGUpRQJJAFwW/FrA4oYQEAT0akSJFgSsJKNppAnriAb8sFH+8dTT3kS2jDkUVBSQJdFFAkoBfZsX8DaP5BcMXHZIEuiggSdAkCjIsCHZdd8mhSEmgiwK1PgG/LFZIENy6Yty5jSQBiwKSBL7XDlIWBI8sGs8/uuSyQ5JAFwUkCXRRwC+LHRIFUhaEqU+gXzt4ZY7d+0iC4NtXF503RPxEQUN9gowLAn5ZICAIAAAAAABAInwPCQKZAzOSoEkU7A8vCN5+/UhBxJGigCSBLgpm6hPMbPR/bnchrz8WURcFJAioRgG/JDDv3jFSeM+OuiAwioLtM6JAJLIg+JOto86fapJAFQVqfQJ+mRXzh0dz9GjEa0SkKHAlAWVj82kCeuoBvzRTkCDYyYJAFwUkCXRRwC+LleMrxnMijpQEuijQrx3QYxH5panwiSWXCyIORYoCKQlUUSDrE/DLEoVFQcGuPoHPYxHnTlj1r9fnjOdIEEhJoIoCKQlUUUBPPeCXpkKwzTsEAQAAAAAAyBIH33Qonig40CgKpCT4/giCgK4ZkCCQUUWBlATeiQLlFAEJAlmfQH8sIkkC7+pByOsFxG/vGCm8e+cF5907LjiqKCBJ0CwKwosIggTBh7eOOlIStBMF/DIrpCCQkqBJFGxsFAVLNlxMfNMQhq1rRnM7rhtzKA2iYI352gG/LFaOrhjP3bJi3KGoosCVBJTlmihYdinV9/LjSy87j4iokqBJFCz2REGqbXth/niOZEHY+gQ2pwheFf/m9auLDkUVBSQJjKJgtp14iAvThtg/4TbvEAQAAAAAACAZWBCYREHDtYMIgoD4V/tGCj++r1ES+IkCfsnbjE87ENFPE/A/DwU9GvG3d15w3kWSQIQkgS4KSBK4oiAmQSCjnibQrx1QfQJ+mTXzNtUFgSoKSBLookDWJ+CXZQoSBNuuG3O2e5KgURTo9Qn4ZbFzbOUl55aVM5KgSRQsbxQF/LLEObtoPPfw0suOlAS6KNCvHdATD/ilqSJPFAStT/BVy1MEr80tOt+6ulESqKJAv3bAL0uc4BvlcKcbIAgAAAAAAEAyKHJAlQS6KPi+iILgR/YWcv9q34ijSgL1NIEqCujxiD+1u5A3FjIUUUXBL4h/x98iFFIQSEmgigIpCTxREFEQfHDraO6Pto46f6xIAl0UqKcJ+GXWXL3pYmHupouOnyggSdBwoiCDdQhcQbB2zCFJ0CgKlNMELApIEvDLYufmlWMFkgS6KCBJYKxPkFIdgrNLxvMPLb3sUFRRICWBKgpIEFBBQ35pRzBdO9BFQV0SzIgCfmlLvjl3oiAlQTtRQIKgYHEyIQ6CFyiEIAAAAAAAAFmCpYApDfUJIgoC4sf2jTiUVqLAlQTXjxRIEMhrBzP1CRolAYUeg8hfPhS/tWuk8M6dFxyKKgrcawciDaIgBkHwoW2jDkkCXRSQJNBFAb/MmtmbLhau3nTRIUmgiwLTtYOFG7N3zWB4zWhuy9oxZytJAhYFJAn8RAG/LHZuWjlWOLryknOzJgn0awdSFNy2PJ1rBg8uvVw4O1gXBFIStBIF/LKOokoC/dqBqT7BSxabeRIE35xbdCjqaQL92oF39SClawbBNu7h6g8QEAQAAAAAACAZWAa0Cp8oiLzI/NF9IwVVEuiioNW1A/U0gScKIhQnlPzGrpHCb+664PyWiCoJGkTBDr56EIMg+MNtow5JAikKSBLookDWJ+CXWTNneDQ3Z9NFhyJFAUkCXRQ0XjvI1ikCEgSb1445UhLookCvT8Avi53DK0ZzN6285JAksBEFJAnE/53oe3lmyXj+gcHLzoMiJAnOLm0UBSQJNFGQyqa4Hc/NH8/Rkw4oDacJKIokkKLgJfHv+aW+UB2CV1kQmESB+TRBsr+foKcHomzcIQgAAAAAAEAyaDKgRSIvMumawY/uG3Eo+mkCXRTo1w6MoiDi9QLi13eNFH5j1wWHJEE7UfCeHdEFwQe3jTqqJFBFgZQEUhTwywIxe3NdEJhEgZQEDaIgY6cIpCCQ0U8T6NcO+GWJQIJARkoCXRSQJPBEQcKnCM4sGcvfP3jZoaiiQEoCVRS49QmWdPZ6gcrz19QFgVEUzNdFgd1G/htziw5FFQUkCfxFQbKnCNK6XkBAEAAAAAAAgGQwywBTYllk/vC+kcKP7GuUBKookJJAFQUkCVRR4D7tQIS/ZCRIEPz6rgsOSQIpCkgS6KLAlQQRBcH7t47m/mDbqEOSQBcFpmsH/LJAzNp8oTBr86ijigKSBK1EwfwMPfKQBMHwujFnk4iNKOCXJcKNq8YKR1bNSAJVFPjVJzie0CMP7x0cy58ZHHco97upS4JWooBfmgm+sGDC+cI1E44qCkgS6KKgLgnsBAE9FpEejyglgS4KTPUJXp+TzCMPJ8Rmv0QbX5GyshFuFX5pKCAIssncs2/9/uyzU5sQBOmdzPXJfMr9jVmoZMl9zRmUOd2Y5YasurM5a9TcMbVpnSHr1ZyoZ9iQLTK3zmSbnlumNu3UssdNbSZHa5uu98kByo2NOWTIjYdmclTPgXpuMeRWmetnckLPntqmO7TcacjpnXqqt9+7o/b4fSJndk7efmZHZbOXrfU8oOUhNZsrmx8x5FHKxuY8pmd9ZfNnDHlCZm1l85OGfE7N6pk8Y8gXKCsb80U1yyqbXzTkK2qW1vNVQ76+mFJsyDfVLChu/pYhb6iZV0/BkAsyV89kTMv4rOYU9QwUN1eU1AYmfp+n9T7GLANMiWWR+QN7C7kf3j/i/PC+ESeMKJCSgGoU8JeMxK/uHim8Y9cFR5UEqihQ6xNQQUN+WShIEHxg+6jzgW2jjhQFJAn8rh3wywIxMDyay20edaQkmL2p+TSBqT5BkpJgTYBiiENrRnMb1405UhKoooAkgS4K+GWJQNcMblx1yaGooqDdtYO4rxqcHhzP3XvtuEO5T2RGEsyIApIEqiigYob88racW5Ts0Xvi2QUTznMkCURIEuiiQK1PQI9K5Je1hB6JSIJARj9NoIoCtT7B6zFfNRgXm92JWSWnKFKiiA0wSYJWoiDK6QGi2wVBGm3qBLPPXjk45+G3HARBeitXP1TPXM68s/XM51zzYD0LHqhnocgikcX3X3Gz5Ew9SzmD99Vz7b31LKPcc8VZzllBOX3FWUm5+4qzirOactcVZw3lzivOdSJrRdaJDJ2adrOes+GOejaerGeYsylfz+YT9WzhbL29nm231bOds+PWenaK7BLZfbyePbdMudnLuf5YPfturmc/58DReg7eVM8NnENH6jnMufHGKeeIyE2H6znKufmQyA2TzjHOLZSDk85xzq0itx2o5/b99Zzg5Pdxrp90TorcIXKKsnfSuVPkrj313M05vbueezj37qq5uW9nPWc49++o54Ht9TzIObutnodEHhb5+NZ6HtlSzyc4j26u55Ob6jnHeWy46uZTG+v5NOczG+p5nPPE+qrzWZHzQ/U8SVlXdZ6irK06n+M8Tbmu6nyesqbqPMN5lrK64jzH+YLI86vq+eLKel7gfGlFxXlR5MvL63mJ85Vl9bzM+eq19bwyWM/XOF9fWs83lpTdvMr55uJ6XltUdr4l8jrn2wvreYPznQX1FK6p503OyPx6LsyrZ5Rzca7I1SVnjHNJZHxOybnMmaDMFms2ily3iZQpvEapDpRv5Gm9jzHLAFNiW9D90P43nR8iSSBCkkAXBTb1CehJB/zlIkGC4Nd2X3BIErQVBTEIgt8nQcCSQBcFUhJIUcAvC0xu84UCSQJVFEhJoIoCvT5BEpJg1dBoftX6Mev3bWhoNLdh3ZhDUUWB6TQBhV+WGIdWjRUOK5JAFwUtrh3E8vdJcuD0tePOPSwIzKKg+doBv9wKetJBkk87eGb+eJ4EgYwqCqQkUEUBv8wKeizi1xRJ8PW57UVBnJKA5MC4mFQui0hJoIuC5s1xtNMDRPcLgujvQRaBIECQ3k5LUcCS4BqWBJ4oYEmw2EYSiDRIAhFXEog0SAIRVxKIkCRISxRISRBaFLAk8EQBSwJPFNzIosAkCUQaJIGIKglsRAFJAlUUkCRIShRISeArClgSPMqSwBMFLAkes5AErihgSaCLggZJIOJKApEGSSCiSoLMigJNEniigCXBCEsCTxSQJFBEAUkCVRS4kkDElQQiDZJABIKAMMsAU2JbZP7gvjcLdUnQKAps6xOIxNaWX9k9UvjV3RcckgRSFJAk0K8d1EVBtO/73q2F3Pu3jzoUVRSQJDCJAn5ZYOgUwQALAikJ2okCKQnmbbxYiEMUrBAb/eUbLhZWrh9zggqC9UN1QSAlQStRwC9LjAMrRnMkCGT00wSqKNCvHRyLeN3g1OB47q5l487dIiQJdFFAkkAXBe61g4C1Bx5ZNJ6nxyJSkhAFn1844Xx+wYTzDAsCKQn8RAG/zAp64sEr84oORRUFNvUJol43GBWb4ktiYhmniAlFFwVSEuiiIOrpASJrgoAwf2//xPE+ZA0IAgTpg7AkkKLA5jSBKgqsThOEFAVSEliLApYEoUUBS4LdQSSB5WmCpEWBd5ogqihgSXA/SwJPFGzTRIFJEojEcZpAFQWuJBBxTxPELAq+JEKSoEkUsCTwRAFLgiZRwJLg6y0kgSoKYjlNIKKeJrATBRAEHREEP3CgkPuB/W86P6hJAlUUSEmgigIpCX58bzzXC4hf3j1S+JXdFxxVEqiiQD1NQE884JeFggTB+7ZfcH5PREoCXRSo9Qn4ZaH42OaRPEkCXRTMdtMoCYz1CTaM5sOIgkGxwV+24WJh+YaLDmWFyMr19oUQSRAMDY05JAnWr2sUBSQJdFHAL0uUG1aN5Q8pksBGFNzipi4JgooCEgN3LLtUuHPZuEOCQEaKApIEuijw6hMsDV4okQSBfCwiSYJzMYmC8/PHc08tmCh8buGE8zRJAhGSBLooIEkg6xM8Pz/493157kT+q4ok0EVBy/oEcybyQUXB6MB47sKsYuGimEzGREgSqKKAJIG/KIhns94LgoBiIwnodEK31CyAIECQ/knL0wQtREGgawe2ooAlgX7tYB1LAk8UsCTYoEoCESkJNgWQBB2/dhC3KGBJcCdLAk8UsCTwRIFJEohk8tpBUFHAksATBSwJnmdJ4IkClgQvqpJAJM7TBEmLgnGRhmsHiiiAICDMMsCUWBeZ/3L/mwUpCXRRYLp2oIoC/hKx8Iu7Rwq/vPuCQ2knCqigIb8sFK4g2HHBkZJAFQWmawf8stB8bPOFwlWbGyXBjCgwnybwq0+wQER/JOIisZmXWbLhYmHpxovO4IaLzrUiyzgsCqzfN6pXsG5ozKFIUSAlgSoKZH0Cflni3LBqrHDDqkuOKgoC1ydYNpZ3o10/ODE4nnMj/reTyy4VTi4fd+5YNu6c4rQSBVISKKIg8EaKnnbAj0V0o4uCcwFlwflF47knF04URJynREgQSEmgigIpCVRRwF8iMC/PmyiQJFBFgZQEqiiQkkAVBbI+gZQF+vWDgvi/3cyayI/MnihcmFN0RmfPRBUFriSgKJKgQRTEtNHNpiAI0iY1xQKJAlUEyP8uv2Zc71vSQBAgSP8ljCjwrU/AkmCQJYEnClgSeKKAJYFen6AT1w4oka4dhBUFLAn0+gRBJYFen6Cj1w7iEgUsCfRrB7b1CWxOE3T82kFQUcCSwKo+AQSBwCwDTIl1kfkvDhRy33/gTedfijSeJmgUBfq1gx+L8fQAQYLgl/aMOBQpCXRRMFOfILog+N0dFxyKKgre7yMK+GWh+YjY0H9sy6jzsc2jTlBR4NYnkKcJWBS4j0UUWSiyiLLxorOYs0SEBIGUBJooCCQI1g6NORQpCVqJAn5ZKhwkSbC6Lgl0UeDWJ1jZfJrApz5B/bGIIrdTltdzQiQvQoJARooCkgSqKCBJcPe1jaLg9GC4Kw0PLxnPu49FFFElgSoKKI8tvlygfGrReF7NZ0QeX3i58ITIZxddds67mXDzpAhJAl0UuNcORFRRQLUKuEmhIEnw8rwZSdAkCuba1SeQeUPkOyKFOfW8yRnhqKKAJEGTKJiliYIYj9RnURDUN/Sm7x89EAQIgmQ9DaKAJYEnClgS+NUniPU0QYdEQej6BJok8ESBQRIkfe0gdVHAkuDjLAk8UcCSQK9PEEQSdPzaQWBRUJcEbUVBG0ngiQKWBHp9AptrB8WrIQg6JggIEgRSEtiIAhIEPxKzIPiF3SOFX2RBoIsCkgSNoiCaIHjX1kLud3ZccN6rSoIGUdB47YBfFgmSBB8lSSBCkkAXBab6BL7XDkSkKCBJoIsCkgS6KCBJIBJIEFw3VBcEuihwrx2IqJKAX5YKVI/g4OpLDkWKAikJVFEgJYEqCvT6BFIS6KKAJEGTKFjWKApMpwnCygGCnnhAj0X8uCYJ1NMEmihwPsX5tMhnOI8vqucJkbooqEsCVRRISaCKAnntgJsTGno84svzJxw38xpPE9hcO3jt6uCigCTBBcNpgiZREPN9ewiCbAJBgCD9nTCnCdISBW3rE7Ak8EQBSwJrUXBretcOkhYFgesTsCS4lyWBJwpYErSrT5DpawdBRQFLAk8UsCTwRAFLgq+yJJCiIAvXDij10wTFIzyt9zFmGWBK7IvM79v/ZkFKAvU0Qav6BPzS2Pj53SOFX9gz4lAaRMHuRlFAgoCeeMAvC4UUBDINomB7syjgl0VGSgJVFJjrE1xsEgWmawe6KHAlAWVj82kCNwEEARU3XL1+zFkj0koUSEnAL0sNkgQHFEkQRhS4kkATBSQJdFFAkkAVBSQJjKIgghwgSBDQoxFJErQTBVISqKKAJIEuCkgSBBEFT1s+2rAdJAm+okgCXRR4pwlEWp0m0EUBSQJVFEhJoIoCKQlUUUCSYGxW/MX4sigIiGDtsg8EAYIg3ZQwoiDwYxF1UcCSwPaxiHp9grivHXRlfQKWBH6PRfSrTxDlNEFmRQFLAk8UsCTwRAFLAr/6BNFOE7QXBbFcO/ATBRAEArMMMCX2RSZdM/gXB950vk+RBKoo0OsT/NC+eE8PED+/Z6Qg4lCkJFBFQWN9goiCYGch9+4dF5z3iKiSQBcFsj4BvywWdEmgigIpCVRRICWBKgrcawciqiRoEgUbm0UB1SfgZrRFCgIpCXRRoNcn4Jelzv5VYwVVFJiuHQSqTyDScJqAstxfFMj6BFTQkJsUmgeWjOfp0YgkCaQoIEmgiwLTtYNzixtFgZQEqiggSaCKApIEan0CKmbITYmNr8ybKKiiIGp9Av00ga0ooCcdcJNiJauCIKlTBBAECIJ0Y0KJgvtZFLAk8EQBSwLb+gStThNk/tqBrSjQThN4oiDG0wSpXzsILArqkqCdKNCvHXiigCWBX32CMKcJMlufgCVBu8ciXoQgEJhlgCmJLDK/Z/+bBZIEuigwXTvgl8TKz+4ZKfzc3rog0EWBd5pApC4JoguCd+284LxbhCSBLgpIEqiigF8WKx/ZPJLXTxOEEQWm0wS6KPDqEwQUBKvWu49GdCWBeppAFwUkCfhlHWHfqrE8SQJdFJhOE8Ren2DZpQIVNuSmRIIEwYODlx1VEqiiwFSfwHTtwEYUNJwmWDhRoIKG3IzYeXHueJ4kgS4KTPUJSBLoosC9diASqj7B7IkCPe2AmxI7WRUEBBUcNLcjfCAIEATp2rAk8EQBSwJPFBgkQVrXDjonCuqSwBMFLAmuDyMJRNK4dpC4KNgWrD5BlNMEqihI5dpBZFGg1SdgSfDNRcGuHeiiwO80AQQBYZYBpiSzyDxQyH2v+Prfe2BGEuiiwL12kMDpAeKn94wUfmbviPOzIu1EARU05JeF4jd3FnK/vfOCQ5JAFQVSEqiigCQBvyx2/kSRBKooMF07iKM+waIAj0skQVB/NGKjJFBFgZQEFH5Zx9AlQRr1CehpB/ztY+HMkvH8A4OXHUo7USAlgSoKvNMEIrb1CZ5YMJ5If9YhSfBSgyRoFAW29QlM1w50USAlAT3tgL99YmRZEBBxSwIIAgRBuj1hThOkJQpmrh1oooAlgXV9ApYEW1kSSFGQ5rWDpEVB2/oELAk8UcCSoF19gq64dhBWFLAksK1PEOY0QRBR0O7awchcCILOCwLB94iv70oCyoHm0wRuEhQEP713xJGSQBcFan2COATBO3decEgSSFFAksBPFPDLEqOVKDCdJpi9qfk0gS4K1GsHCzZeLOiPRmzH4NBojh6NWJcE7UUBv6zjmE4T6KLAdO1AFwV+1w7cxCwGJPRoRJIE9yuSQBcFsdUnWHi58JkETw340SwKwtcnMF07cDMneTEgybogIOKUBBAECIL0SsKIgsD1CVgSeKKAJYFtfYIkTxOkJQqs6xOwJGgSBSwJ3Oyr/a8T19e+m6fsrX33pMgdnFN76rlzdz13ce7eVc9pzj07KdXv3rujnvs4Z7bXc/+2eh7gPLi1nrMiD4l8fEs9j1A2V7/7Cc6jlE3V736SMlz97jnOY8OV7z62sfLdT1E2VL77ac5nKOsr332c84TIZ4cq3z1PWVf57pOcpyhrK9/9HOdpynX1fH5NPc9wnl1NKX/3Oc4XVtXz/Mp6vsh5YUX5u18SeXF5PV/mvLSsnq9wXr62nq8O1vMK52tL6/n6Ekrpu69yvrm4ntcW1fMtkddFvr2wnjc431lQT2F+PW9yRubVc2Gulxt4Wu9jaONvkwPJbNBd6GuL7/E9MvvfLHwvxy1kKML/MnZ+Ym8h70oCzs9w6OrBz1N210NPO/iF3dHeAxIEv7VrpPDOHTP5bc67Oe/ZPhN+WeLQtQN59SBqfYJ5Gy8W5g+P5ij85QNBgoAei0hZzlm5fszNKiWrRa4T4ZdlBipiKGVBq/oE7rUDEV0SNImC5ZcKx1ekt6EmUSBPFEhJcHZp82kCm/oEyrWDwrkOSAETVMTwJb56EEd9gm9fPVF4fU76P1t9802SoH3o3/LLOkJ0UdAZwQEAAAAAAEDfQ8UMpTD42OYLhRaioDB7Uz1zhkfzIl3xCV+auE88IFkgcsOqsQJFSgJVFJAgOLJyrHAT56h4HYW/TMegkwVUn8CtUbD0cuGhepquHSiioPAoh4RAVqSAH1IWvDR3Iv/y3IkCxb8+wUSB8k2RV+eM5yj8ZYAldAqAZEGj3GiWAVJqdMupAQAAAAAAAAAAAAAAAAAAAAAAAAAAAAAAAAAAAAAAAAAAAAAAAAAAAAAAAAAAAAAAAAAAAAAAAAAAAAAAAAAAAAAAAAAAAAAAAAAAAAAAAAAAAAAAAAAAAAAAAAAAAAAAAAAAAAAAAAAAAAAAAAAAAAAAAAAAAAAAAAAAAAAAAAAAAAAAAAAAAAAAAAAAAAAAAAAAAAAAAAAAAAAAAAAAAAAAAAAAAAAAAAAAAAAAAAAAAAAAAAAAAABkkdJAKVfPRJ5SyRUL8r/XU8rxPwUAAAAAAAAAAECvIIUAiYBKruTYpy4O+MsAAAAAAAAAAACgGwknBcyRpwv4SwMAAAAAAAAAAKAboM28aaMfNZAEAAAAAAAAAABAFxDnqYFWQZ0CAAAAPYu8mzeTmaI95pgnS3NMr69Hfp/GzLSDmwcAAAAA0BZaO5jXIsmE1i38rQEAAIDuYmbjrW78zRNeNlNvs0km8I8IAAAAgD4lbTkgA0kAAAAg03S/CIgSVSBAHAAAAAD9QKfkgAwkAQAAgMzQKAPME1e/p1ukwfEDtdyt+ycLt8nsmyzcLpJXcpJyfT13cO7cM5O7dtdzt5J7KLuqhXtldlQL9ym5f3s9D3AelNlWLTzEeXhLYz6+uZ5PiDwqs6meT3Ie20ipuPkUZUM9nxZ5XGZ9pfCEks+uq+dJytp6nuJ8Tua6SuHznGcoq+t5lrKqni+IPM/5ImVlPS+sgDgCAIBewzT3p52++GCiPFD+afHDnu+nFAYKP8g/PgCp0Ef97Az/yCAidUvebycD4o48aZCtydwVBAcnnVsPTDq3cW7fX88Jkfy+ek5y7ri+nlOUvZPOnZy79tRzN2X3pHOac8+umpt7KTtrzn2cM5z7d9TzgMiD2+s5S9lWcx7iPLy1no9TttScRzif2FxzHuV8clM95ziPDVfdfIqysep8mvOZDVXncc4T6+v5LGWo6pznPLmunqdk1ladz4k8Tbmu6nye88yaep51U3GeW13PF0SeX1XPF0UgCAAAoLeof0himuvTTrHATepdagO1t5t/+N5NOVfcwz8+AKkg/u6O6n+HvZhyrvSX/CODgNRPCKRTkbdfI08Y8FveMUgQHD846VDiFgWeJGBR4EoCkSCSwBMFLAk6KQo8SSDiSQIWBXVJUDVKgucgCAAAoGfIjhyoJwtriUTpT0FQ+ir/+AAkzuTcyR+pDJTeNP0t9logCIKBUwKdTP10Af8qUuXogVrulhvqgkCVBFkTBVFOE5xjSdApUQBBAAAAvYN5Hu9ssnY6MVb6URCIheH/U8lV5vBbAECiVAdKK81/h70XCIL24KRA9pL2yQISBMdumHRIEphEQStJ4IkClgSuKNibXVEQRRKcZ0kQShRAEAAAQE+QtdMDM+nhqwb9KQhoQVi8n98CABKlmis9Yfob7MVAEPgDKdAdSUMUkCC4+dCUc4wSUhTEcZqgqT4BS4KsiQIbSeCKgjUzouC5NRAEAADQC5jm6qykZ08R9KsgKA+U3ip+rPgr/DYAkAiTVxU/IDbNf236G+zFQBA0AinQrUn2U4Gjh2u5o4emHEoWREGU0wSuKNiiiILN2ahP8DQEAQAAdD3ZPT1QT5qnD1OlXwUBpTwwsZ3fBgASoZwr3mL62+vVQBDUgRjo9iQrCA4fruVuOjzlHKWElARZEwVRThMkIQogCAAAoPvJuiBIer3QMfpbEJRe5LcBgNj5i2su/6vyQPGi6W+vV9PvggBioFeSvCA4cnjKIUkQVRS0kgSuKNiriAKWBFkVBUEkQVN9grWNogCCAAAAup9uWFNxU3uLfhYE4o/ufxRzxQF+KwCIleJA8Trz313vpl8FAcRAryV5QXDjjVPOEUoKoiCO0wQN9QlYEmRBFPieJoAgAACArsc8R2crPVmHoL8Fgfil5oqn+a0AIFbKA8WnTH9zvZx+EwQQA72adARBK0ngiYIbJru2PoEuCRrqE7AkSEoUnIcgAACArqa+xjLN0dlKT9YhIEFQnmX+gfshYkNTmxiY+Hl+OwCIheJVxQ+Vc8X/ZPqb6+X0kyCAGOjlJCsIDhyu5Q4fmXIo7URB1NMEWRQFUU8T2IgCCAIAAOhuukUQJL1m6AgkCEqzxMKeY/7BezvlgfImfjsAiIVyrni76W+t19MPgiD7BXOQ6EleEBy6aco5xJIgDVHQThI01CdgSeCKgl21rqtPAEEAAADdDwRBByFBUJxVcij9KgpKA8Xn+e0AIDKXPnzpJ8Xf1bj+d9YP6WVBgOsE/ZSEBcHRWu4GEgQsCTxRwJKgk6Ig6mmChvoE2zopCiAIAACgm+meD2R6VBBMzC45RYomCcRi3/Am9F7KA6W/r84q/im/JQBEopybGDL9nfVDelUQ4NRAvyV5QXDw6JRz8KYpRxUFUU4T3MKSICuiII7TBDOioC4JgogCCAIAAOhucIKggxQGam+/PKfkkCTwEwXmN6Pncge/JQBEojJQ+rzh76sv0muCAKcG+jXJC4IDR6ccStyiIIgk8EQBS4KsioIwpwk+A0EAAABdDQRBB5GCwA1Lgj4VBcU/n/PnP8VvCwChKA+UP1zOFf+r4e+rL9JLggCnBvo5yU72e4/WcvtvnnIoWRAFYU4TuKJgl1KfgCVBVkQBBAEAAHQ33SIIevIpBiQIxq8uOeNSEhhOE/SNKBgorue3BYBQVAZKJ41/W32SXhEEODXQ70leEOxjQRBUErii4HB2REGU0wSeKGBJ4IqCLfGIAggCAADofsxzdLbSs4Lg0tUlh9JOFPS8JBgofp7fFgACU/1o9WfKuWLJ+LfVJ+l2QYArBUg9yQuC649NOfsoIUVBlNMEvVCfQJcEuiiAIAAAgO6nG9ZktHbk5vYOJAjG5pZdQaBKgr4UBQOlv61eVfwQvzUABKI6q7TR+HfVR+lmQdA9d92Q5JO8INh7bMohSdBJUWAjCRrqE+zNviiQkuAcBAEAAHQ93SAIuKm9BQmCi3PLDkkCkyjQJUGvi4LqQOk2fmsACER5YOILpr+pfkq3CgLUG0Aak6wg2EmC4JYpx0YSuKLgps6LgiinCZrqE7AkSFIUnBuGIAAAgG4n+x/eJLte6BgkCEbnlZ3RuWUniChQJUEviYJyrnipfHX5x/ntAcCKWq70kcpA6e9Nf1P9lG4UBJADSHMSFgTHa7ndt0w5e0gSWIqCMKcJXFFwKDuiIMppAlcUbFFEwebWogCCAAAAegPzPJ2N9GT9AYIEwQUSBByTJLAVBb1zmqC4ht8eAKyoDJTuMv8t9Ve6TRBADiDmJC8Idh2fdnZTUhAFUU4TZE0UWJ8mGK5BEAAAQA+Q5bUaN7H3IEEwMr/sXKC0EQW6JOjhxyKe57cHgLa8NTDx8+Jvpqr9DfVlukkQQA4g/klHEKiSIOuiwEYSeKKAJYErClgSpC0KHoEgAACAnsE8V3c2PXt6gJCCQJUEQUWBlASuKJjVE6Lgr2sDtd/ntwiAllRmFbcY/ob6Mt0iCCAHkNZJVhBsPV7L7bx12qHooiCMJPBEwZFsiIIopwka6hOwJAgjCiAIAACgd8jiuo2b1puQIHjzmrLzJksCv9MEM6Ig3LUDsXEwvrlZTXmgeIzfIgBaUs4VXzD9DfVjukEQQA4g7ZO8INhx27SzgyVBXKIg6mkCTxSwJOikKIhymoDqE0AQAABAb0Fzs3nOTj89fXqAKAzW3l64puxQbESBfprAFQVz7EWB6U3OYsoDpZHy4vIP89sEgJFirjgg/lb+u+lvqB+TdUEAOYDYJXlBsP22aYeSRVEQ5jRB5kQBBAEAAPQUWXmiQc/LAYIEwXcW1AWBSRLYioKerE8wq7ic3yYAjJQHivcY/3b6NFkWBJADiH2SFwTbbq8LgrCSIKuiwFYSuKKAJYErCnbVYhUFEAQAANB7dH4tl+z6IDOQIHhjQdkhSdBKFOiSIOxjEbtMFHya3yYAmrg8cPmXxYZ4yvB307fJqiDI/nN0kWwlYUFwopbbevu0Q5IgqigIIgk8UcCSIAuiIOppAlcUbFNEAUuCs1shCAAAoBfppCTgJvQ+JAi+vbDsqJLgOywJbESBKgnGWBLYiIIuqU/wfxYHir/LbxUADZQHJrYb/mb6OlkVBKa2Ioh/khUEwydquS0nph1KJ0RBHKcJsiYK9NMEEAQAANC7pC8JigX6sIm/fe9DguD1hWWHJIEuCqQkcEXBfHtRoEuCbq5PUB4o3shvFQANiL+PL+t/L/2eLAoCXC1Agid5QbCZBUE7SdBT9QlYEriiYG+yogCCAAAAepv01nd9cq1AxRUEi8oOSYJ2osBYn2CevSjQJUE3iILyQOnb5Q+Wv5/fLgBcyrPKs8sDxe+a/mb6OVkTBJADSLgkLwg25aedzRRLURBFEuxnSdBpURDlNIEnClgStBUFEAQAANDzJH2FlNaR/K36CxIE31pUdihSFKiSAPUJRK6qLOG3CwAX8XdxpunvBMmUIEDdgSihRwk1hibJdml+nelrd0OSFwTD+WmHJEGaoiCIJHBFweHsiQLb0wRnIAgAAKBvqK9BTPN52PTZlQIdEgSvLS47lFaiQJcENqIgjvoE5l9auinlip/ktwuAt1VmVX6tPFD8M9PfSr8nS4KguzeoSae+ga9v7Es5GX7rEmHm++hCwdS+TidZQTBEguDktKNKAlcUnEhXFBw4UssfOFrLHTg8k8NtclTmQHOOt8reWu5Ei5wyZWc9py1yRmZrPfxWAwAA6COii4I+FwOSlwZrb/8mCwI3LAlsRYGUBL1cn0Bsev5dcVbxXfyWgT5HDD67TX8nSHYEQfQJopdCm/D6hJflSU+VB50XB8kLgo0npx2KLgqinCZwRcEtU9aiYN+RWn8enQQAANDTBFtPZH+NlDokCF5dUna+SVFEgS4JgtYnkJIgUn2CWdkRBeVc+QC/ZaDPEZvgr5r+RpBsCAIa4E1t65/QZNgbBrxRGph+1qSSvCBYf8e0s0EkCVFge5pg31EIAgAAAP2BlAAy/P8GJkgQfGNJ2SFJYCMKTJLARhRISRC2PgFJgk6KArHxeVW8Xd9Tf9dAv1L62OV54u/hn/W/D6SebAiCfjw90D/2Ox1hkLAgOFXLDd0x7ZAkcEUBSwJXFOTTEwV7IQgAAAAAoEOC4OtLK843RHRJEFQUSElgIwpMksBWFHRKEhSvKi7gtw30KeLv4Kz+d4HMpNOCoP/kQH/flUtOFiQrCNacupIbOjXtUDxJINLuNIEnCm6PRxRAEAAAAACgCRIEX1tacUgS+IkCXRLYioKo9QmkJLjMkqDToqA0UHyY3zbQh4i/ud+sDJT+jelvA6mn04LA1KbeS39LAT/ilQXJC4J1d15x1rEkCCoKop4mcEUBBAEAAAAATLiCYLDikCQIKgp0SdBOFOiSoNvqE5QHSv/b9Jzib/BbB/qMykDpetPfBTKTTgqC3j89ADFgS/1voRih0GHygmDtnVccSidFwe5jEAQAAAAA0CBB8MpgxaFIUWCSBEFEQdj6BCQJPFHAkqCVKDCdJhAbFMNiL75Uc+U9/NaBPkNsGr5u+ptAZtJJQWBqT6+ENrz8Y4IAhD9VkLwguO6uuiCwlQSuKMjHLAogCAAAAACgQ4Lgq9dWHIqNKNAlga0okJLAFQXz24sC/TSBKwrm2IsC86IvjhRf4bcO9BHVq4oLzH8PiJpOCYLePT2Q7Ea1nwj2N5K8IFhz1xWHJEFQURDkNME2lgR+omDnsSkIAgAAAAA08tJg7R0vsyBQJUFQUSAlga0o0E8TNImCueW/vjBn4pp21w46UZ+gOFD8XX77QJ9QzZXPmf4WUs/AxDXiP/+q6f+fkXRKEJja0u3BdYJksBMFyQqCFaeu5FbffcVZQ0lBFPhJgp3HIQgAAAAAoEGC4CvLKs7LFIMo0CWBrSiIWp+AJEFhoPb2sI9FTFIUlHPFR/jtA33AWwNv/aj4nf+j6W8h5fwztcXw/89MOiEIeu/0AE4NpEHrv5uEBcHpK7lVd19xVEngiQKWBK4oOJWsKNgOQdDXvLCilFOSf2FZKf/i8krBzbJK4cscsUZ0I9aI9QyW8m6WlPKvDEJkgvCQCK+HxmOqG9Mc+t/q6b2/NfXnb/UeqJl5P+rvSS++LyADSEEgYysK4qhPICWBnygoXHP5ly/MLf1r/dpBp+sTiM3i3xUGCj/IbyHoccQgvMv0d9CBjJcHyj9t+P9nJhAE0UI/C/9YIAXqfzu06NJ/F8kLgpWnrzgkCXRREMdpAltRAEHQPzy3ppR7bkUp94VVlcLz9ThfpKysOC9wvkRZUXFe5Hx5eT0vifitEb/Ka0R3nbi0UniFpIEIf1sAGpCbYfO4a5v6Jpm/ZNcgN/P1nz3Kz++XGXnA3xKA8JAgaDsBiNiIgrjrExTmTvz+hXmV87ZPO0izPkFxoHgdv4WgxxG/7yv6779DOV0bGH+H4f+fmXRCEJja0Y3BpN456gtW9feRvCAQcUgSJCkK2kmCrRAEPcvTa0o5yjPXVQrPrKk6z3KeW11x8wURkgRxiQLjGnFJpfD1JaX8q4vwCWe/M7MxVsfZ6Mn6hjhZIdA+WX9/QIYhQRBqAlAnAZEg1w5s6xMU5pdyhXml690TBfOU+gRtRIEuCZIRBTgG3A+UBy5/2Pz770AGJq6pTzaG/y0jSVsQNG/sujOYwLPBzN9TsuP74OkrueX3XHFIEniigCVBmqJg620QBL3E+TWlHOVzayuFp9dWnc9fNxOSBJ4oYEmQmijgNWKSsmBkbilPGaXMqWfMzYSX8VmNmZDhTVTUcFMSx/S9k0343xm9Xp/vkkqUdsZNUkIkSqL+LrNC499mp9IH0vOlwdrb9cE/7ARQnwTCXTswiYKReZUVJAnUaweqJOhwfYL/Wc0VB/htBD1KKVf8pOF334EU/3Nl1tivVa4qLjf/79lI2oIgaxNwmNBkwz8OyAD0+0hLELiSgEVBmNMEnihgSeCKApYEVqIAgqAnOD9Uyj25tlJ4cl3VeYrzubVVhySBKgqeYVEQ5jSBJwrUdSKvEYOKgm8sKRdeXRTvNQSbp2E1nTbltaG7PoxhbchNSRzT904yYTZDndggd3ouzaIUMKc7r2hIzD9TuukbQWBjid0JQAz6thOALglC1SeYX950ad5bP/nm/PJf6fUJ/CaCsPUJTH8AFjnNbyPoQS5/9PLvlHPFvzT83tPPQOmb1KbqQGmb8X/PSNIXBOZ2dEsgB/oTEgTL7r3iUOIQBUFOE7ii4AQHgqCr+cxQKffE+krhs0NV5zyHJEGSoqDVOrGdJGhcJ/KHSTGJApv1YdJrQ25K4pi+d5IJuhnq1CaZv33qdI8YaE43rkFMP0fa6QtB8Nxg7R1RJoCGAjU8CbQSBbokaCUKvr2gtIva+J35pVF57cBWFOgTQTKioPifCwOF73PfSNBziAHgevPvvSNxZZQYzG81/G+ZSZqCgCa2CHKv44Ec6F9IEFx73xXnWpYEnRAFdJpg+AQEQTdCYuDxDZXCE+urDuWzFEUSnGdJkFVRYFojRhUFrZ6IlZYo4KYkjul7JxnbzVAnN8qdmk/p+5ra023ppvWIqf1ppz8EwZraO1oN/g3HyQJMAEFFgbE+wfz6hPGdBaXTen0CfRIIOxG4k4EY/MOKAvFHstJ9I0HPIX6/WSlO6NYf4DadbvrfMpQ0BcGEmNC8PmtoS9bDPwboQxaduZIbJEHQRhL41ie4Kx5RAEHQXZwbKuU+taFS+PTGqvOZDVXncY6fKAgjCRrqE7Ak6AZRYFofumtEdX0o1oTe+pDXhnGKAm5K4pi+d5Kx2Qx1eqOc9ga3kzIkyXSDKDC1O+30hSCgKwZBB/8I986sRQEJgtcXVu6iNr6xsLJcr09gY4vDGuOAouB5940EPUV54PK1ht91p/LXxY8Vf6XertIThv89M0lTEEQ/AdS5dJOtB/FDgmDpmSvO0vuuODaiII7TBK4oYEngigIIgq7h3HAt99jGSuGx4arzKcrGqkOSIElREOU0gbtWVNeJYm0YRBRwjYJAC/Cg68NIHyIZxnQKNyVxTN87ybTbDHVaDlC4KamQhZ83yWR9fWJqc9rpC0FwngWBOviHtcRBTXG7+gTfWlB6mNr4xsLKr72xoPyfdEkQdiKwFQU2m45yrvgPpVzpI+6bCXoGsRH/lOn33YmIxchXuVmiXcWvmP5NVpLqCQLRb93+KhJC7HUskAOABMGSM1ccStqiQD1NsAGCIPM8OlzJn9tUcygkCPwkQRZFQZqnCUyFruMUBTZrQ25K4ujfN+m02gxlYbOc5pza63JATVbXKqa2pp2+EQTtBn93AhCDftgJwFYU6JJA5HFu5tu+vaD0qlqfwDQJRJ0IGiraWkwGMuVc8RQ3E/QApatK7xO/078y/a47kepA6TZuGg2MF/T/PUtJSxCMz5nIu4s3jlEUGNqXhfCPAPoYEgSL768LAl0SuKLgXkUUsCRIQhRAEGSXR4ZruUc3VwuPbq45n9xUj40oaCcJmuoTrFVEAUuCLIkC29MEfuvDNEUBNyVx1PkkjfhthrKyWU5rs9aLVwraJYuSwNTOtNM3giDsM3HD1ieQE0BbUbCw/Bw3822vLyjeKWsTtBMF+iQQdSJoJwrEZrJUHij/NDcVdDnid3qT/jvuaAYqbv0BojxQ/DPjv8lI0hIE9Exr6rten+WoizfZZ03t7FSyauRBupAgWHT/FYckgZ8oCHqawBMFdymigCWBnygYOglBkEVIDjyypeZQPrG55pAkiFsURD1N0FCfQKwNEz9R0OY0QcsnYrVYH8q1oW99AjGv2IoCbkrimOaWJGPaDGXnk/RkH0lL0M9v/t79kyytXUztSzv9IwjaDf48AQQZ/ENNAJoo+Oaisne0+tuLy9e2eixikIlAlQRhC9U0fTo5UFzPTQVdTPmD5R8uD5TebPjddjDlXPHf/fmcP/8pbh4NjH+t/5ssJTVBcHWxIPsu9Vuvz3K/pT6rSgKKqb1ph5sP+pz5Z67kFj7wlkOSIG5REOQ0AQRB9ji7uZL/+Naa83EWBLokeJQlwYwoqEuCTomCKOtEuUa0XSd+vYUkkFdTo4qCKKcJuCmJY5pbkoxpM2T6d51I0htXyIGZZEUSmNqWdvpCENBTDIIM/klPAJok8MxgYdVbP/raovI/204C7kQgBv6gE4E7GYgJwFYUKH8wr3BTQReTwcmg4e/K8L9nKmkJAuq7F+eWXMHniQLZXzlufxXJiijA6QEgIUGw4IG3HJIEC1kSdEIUrIUgyBQPbasWHtpWcx7eWk8rURDlNIErCoayJwps1oh05YDfrgbE+rChhlUnRAE3JXFM80uS0TdDWTpqz01KBMiB5mRhHWNqV9rpC0Fwfrj2dnXgDzv4h50AWoqCxaXL3EyXby4uvdwwAYSYBNyJQAz+QSeCtvUJBkp/W/pY6Y+4qaBLqQyUHzcNBp1KOVfcy017W+Xqyi+a/k2WkpYgcPuu6K+uKBB9VT8S2lYUGNqedCAIgMQVBA++5XiSIOBpAmN9gtPBRcHaUxAEWeDM1lruwe3VwtntNefstppDkiANUdDuNIFvfYKGtWJ9nZi2KNDrEug1rJL8IMlPFHBTEsc0vyQZdTNE85jp33QiSc+ppu+JdH4tY2pT2ukbQdDKEIetTyAH/7ATgDsJLKlMczNdvrm4fHO7SeDbYvAPY4sb7p9ZTARSEjSIglzxdm4q6EJqAxO/X8kV/6NpMOhQ/r466/L7uXlvq1xVeY/h32QqaQiCwvxSTpV8riSgfiv6qu+1AxFV7Mk+a/oZkgo3H4C3zT97JTf/wbeca0gSRBAFUU4TUH2CNRAEHYfkwAM7as6D2+uRksATBSwJOikKop4maFgrivWht1aMuk5cMnPlwK/YdVKnCdx5Rswr3vqwDwRB1j5RT3Kj2o8FCYOkk5LA1J600zeCIOzgH0QUqIO/7QTwtSWV/w830+Ubi4sDUSaBoBNBw6eSPBn4iQJ305ErXSpfXf5xbi7oMqoD5WOmgaBTKQ8Uv85NcykPlD9s+ndZSlqCwO27or/qfbdJFKh9lvtt02kCEdPPEm+SL6QEuoc5Z6/k5p19y5lP6aAogCDoLGd21nIizv076jGJgiinCc6xJMiKKAiyTmx56pTWh5ok0GtYpSUK1LWh+0tNAfMck1xmBEG2HvHnvhkJkLWfM6vplCQwtSXt9I0g0Af+qI+6CTsBNImCJZX/yM10+eKqt/7lq0tKZX0CCDsJhJ0IWomCYq64hpsLuoh//acXf0xs4kZNA0GnUh4oHuPmuZRz5fmmf5elpCQI8tSHvb4r+muTKBB91SQKWl47SFAUdNK2g+whBYGtJPBEAUuC2EQBBEHHOL2zlrtvZ82hkCRIUhREkQRNj0XU1oudEgXqh0mvLCnlDTWsfNeHSYkC/tUmjmmOSTK0GcrapjmpORVyIFg6sbYxtSPt9I0gsB34ww7+YSeArw6W/56b6fGNpeVHkpoE/DYbfqJAlwSuKJhVOs9NBV1EJVdcYxoEOpnJgfJHuXku5Vnl1aZ/l6WkIQjemF/Ke/1XxNh3RX91+67oq1ISuH1X9lmOURQYfq6ogSAAKiQI5j70lkMJIgrCnCZwRcFpRRSwJHBzFwRBJyA5cO+umuOGJYEnClgSZE0U2EgCd72orhV5nZiWKKAEEQWt1ofuHCPmlQZRYJpjODS/8K83cUxzTJKhzZDp/9/JJDWnmr4X0jppr29MbUg7/SEI1tTeIQd+W1GgS4Kwg787AfDg7zcBcDM9XllaWulWsl1anwCCTgJhbHHA+gT/PDEw8fPcXNAlVHLFF0yDQKciNqk1bppHeWBik+nfZimpCIIFpbxv/xX9Ve271G91UUD91uuz3G/lCaCkThP0xWQCrCFBcPXDbzlXsyRIQxSYThOsgCBIHZIDp3dPOvdQpCQQiXKawBUFWxRRsLl76hPo60RvrRhgnZikKGi3PlTXhvwrThzTHJNssncfn9+KWMHpgfBJUxKYvn/a6ZsTBH4Df0MF24CDvzsBiAE/rCWWE0BhoPCD3FSXlwbH3yEG/3/rNwFEssUBJgIpCUyi4PKsxqPhINtUBib+UGxs/8Y0CHQwh7h5HuWB4o2Gf5eppCEIXl9Qyr8h+rGp/3p9V/TXtqJA6bNJXzuAIAAqJAjmkCDQJMFclgSuKHgweVEAQZA+d+2ZdO4WIUkQtyiIcpqgF+oT6JKgvk4M92FSGFHAv+LEMc0x/ZQkNqOQA9GT1jrH9L3TTt8IgtBHyUIM/kEngMKqt36Um+rxytLK40FNcdBJIKgokJKANx0j5cXlH+bmgowjOvptpgGgUykPFP9DbdbEe7l5HuVc8ZTp32cpaQgC0XcLJAikJGjqvyJe3xX9tUkUiL5qEgUtrx1EFAXcdABcpCCQifM0gSsK7lNEwb0tRAEEQarcuWeyIOKQJHBFAUuCLImCIJKgqT6BWCNmURSEPU0QVBTwrzlxTHNMPyWJzZnp+yDBw29nopi+b9rpG0FgHPhFbESBPvCHfSau3+NuvrZo+ie4qR4vL6mslxNA1ElATgS2k4C9KCiu4OaCDDP90dGfEJvaS6YBoFMpD5Se4OY1UJlVetj077OUNATBtxaWC17f5Rj7r4jXf9W+S5KA+q3oq1ISWIsCw89sE246AC66IEhCFNjVJ5guLDs9lSdRoIZqE8hQIUM1a2VO1jOkZAPlxEyGtWy+rTFb1Ryfym/XspNybCa7j9W87D3amH1qjtTyB47WMrWAO7m3lj+1d9K5k+NJAhFbSdBQn4AlQRZEQai1Iq8T3bUirxPdtaJYG2ZNFNiuD/lXnTimOaafwm9DbOD0QFxJ52lN5u+dbvpCEJwbrr3DZuAPOvjLgb9p8OcJwGbwp3tnLw3W3sFN9aBrB68sLf9juwkg7CRgMxGokmBGFMxsNi7NKT3HzQUZpjwwsdjU+TuagYlruHkNiP/tfNO/zVjSEASvLSwXZB/2+i+nZf8V/dXYd0V/9U4TiKjXDmR9gqinCbjpALj4CQKZLNQnaHjaAT8WkbL2znrWUU5NO0Oc9XfMZMPJaWcjZzhfzybOZsqJaWcLZ+vt0842zvbb6tlBuXXa2cnZdbye3ZRbppw9Inspx6ac6zn7KDdPOfs5WRIEJAfuuH7SoZyiRBQFUU4TNNQnYEnQSVHgrRNFgq4T3bUiSwJXFFzbWVHAv+7EMc0x/ZIkrheYvg8SNOk9ytn8/dNNXwmCMAN/1MHfShQYBAHx1cHy00EngLCTgGkisLh28E/lgfJPc3NBRhEd/RW943cyrTbY4n971fSaLCUNQSD6ceE1tf+KeP1X6cN6//X6ruivbUWBKglEol474KYD4NJOEFDaSQJPFDygiIL7syMKNoh4koBFQStJ4IkClgRRRcHejAiCE3tr+fy+SeckJyuiIOppgsd5rZgFURD1NIG7ToywRpTrQ/6VJ45pjumX8FsQGzg9EEfSkwOEuQ3ppm8EQUs7HGLgdwd/MeCHHfzVCcBPELy8rPxhfQKwFQX6BBB0EpAbjXaiYOzq4o3cXJBBLg9c/mXR0f9Z7/idTHlg4mZuXhNZrCSsJw1B8I0l5YK3mDP03yjXDmR9ApZ8sV074KYD4GIjCGSSPk3giQKWBJ0WBVFOE6iiIDOCYP+kQ4IgiCRwRQFLAlcU7KplVhS0kwTeelGsEb31orpW5PViFkRBlNMEFP6VJ45pjumHoDhhFpOuHCDM7Ug3fSMIIhemEbExxGGeiesnCAgx+F+xmQDCTgJ+E4EuCprqE3ibjfIVbirIIBmcGFo+IlMMxP/a8JpMJS1B4PVl0X+/KfqtKgq8vssx9l8Rt/9yv5V913SagNJw7UCKApYEUhSY3g+ZvphMgDVBBIFMlq4duKLgLkUUsCRwRcGpzouCrAiC2/ZPFm7fP+lQwoiCsKcJGuoTbMuGKAiyVjStE921olgbNqwVxRoxS6KAf+2JY5pj+iG4XpC1pC8HCHNb0k1frOnODtferg/6YQf+MBVs29YnWF5+Nze1ia9cWzkU6UhZiEngO7zJaCUK1NMEF68uLuXmggxB1z/EZrZo6vgdy0DxSW6eEQiCOl9fUi58Q/RdituPRd91+7Hot4FFgey7or829V1NFESpTwBBAFTCCAIZkgTdWp/AJAkSEwUdFgTHD9Tytx6YdG7jdEIUxHGaYEYU1CVBp0VBlNME3jqR14hxiwL+1SeO7cm1Xgv/+LGB0wNR0hk5QJjbk276RhDYDPph75uFPUomJ4AXV0/+Lje1iS9fW3nPV5aV/9IkCWxFgT4B2IoCuclwNxpig+ErCuaWPsnNBRlCbMY3mDp9Z1NZw80zUh4o/nvz67KTNASB6MsFtx+LvislgduXRd+VosDrvyJe/xUxSgIRr++KPtssCuqSwBMFqiQQMV470EQBBAFQiSIIKGFOEyxkSZBVURBEErii4NbWoqCTguD4gVru+MFJ51ZKG0ngiQKWBFkVBVFOE2RNFERaI/L8Yloj8q8/cdoJ6V4MrhdkKZ2TA4S5TemmbwRBFDscduC3HvxXFD/ATTXy4rLSJ20mgKCTQMMEoE0CNtcOlM3Gv7s4f+pd3FyQEcRG9jlTp+9UygOlsfLV5R/n5hkpDxT/xvTaLCUtQUB92evHou+2EwVe3+UEEgV8miBafYLOTqggW0QVBDIdqU9wOjuioNVpgp3HOycIjh2o5W+5YdIhSWArCsKcJqA01CdgSZBVUWCzVmz4UKlhrVhfJ2ZFFJgkAf/6E8eda9R5RkSfi7ObYoE2V82ZyLfasCchCEzfB2mXzq9lzO1KN/Q3y83pXUgQ+A76IQb+uOsTfGF19UPcVCNfXlFeHGUCCDMJuBGbCxtRQKcJRuYVD3JzQQaozir+aWWg+N9Mnb5jGSjdys3zRfy7f2h6XcaShiB4ebCU9/qyiNePRd/VRUGoawcibv9lSSBFQZBrB/rirQxBABTiEgQyWapP4CcJXFFwanpGFLAkSEoUdEoQHL2hlj92aMo5dsOkQ5IgDVEQ5TSBJwpYEriiYIu/KHh0U7XwSSWPbay4+ZSb+ESB31rRRhK4omCFIgp4jZi0KOA/gcShecada8Tc0i2iIMgG3yQL+H+KFfXrZyckUOjnn5En1NaZ/7u1SEk22VjHmNuWbuTvpachQRDUDocZ+MPUJ6CB/7kVxT/lphr54qov/osvLa+8Zhr83QlADPqhJoAWk4DVtQMKS4I355W+6bzN+R5uMugw5YHinaYO38H8TWVW5YPcPCPlD5a/X/y7TD1xwZS0BEFTXxap92X/0wRtRYFP/204TeAnClgSSFFgOk3AzQcgdkFAkZLAEwUsCbImCsKcJgglCjolCA5NOTeTIGgjCbJen+DhLdXCw5sr+UeGazkK/3hWnBsq5T61oZKnPL6hUuiUKIhymsCdW8Sc0rhOVOYWnl/UNSL/+InjzjNSErAoyK4kqJ8Y4KYHRm6I+f+MDWqTub2dSLj3SAoD89eMO9n5kMPcvnTTV4JAlQS2okAf9IMO/Jb1Ca7ipvryxWXlg0EmgKbNRcME4G+K5QbDVhTITYabucUF3FzQQaZnT/9cZaBYMXX4TqU8UHyKm+fL5Wsu/yvTa7OWNATBS4OlHPVpU1/2+rHou+2uHeiiwNh/RbzTQCZRwJJAFwXGawf9MKEAK5IQBDJxnCZYzJLAFQX3ZUcUBJIEHRAER26o5W86POUcpViKAhtJ0FCfYK8iClgSxCEKHtxeLTy4rVo4uzWZ9+0zQ5U8xW+tGPb0adKiIMgakX/UxGkQ0hkWBUls7OOic5/CNyau9yjZnydbJyDNbUw3/SII3qEfIdMlwTmWBLaioGngFwky8DcM/iva/xK+uOqtH/3S8vI/Rp0AbCcBXRJYiYJ55XPcXNBBRKdeaersHc3AxDXcPF8uD1z+ZeNrM5a0BIHenxv6sojXj0XfbScKVEkQWBQYThP4ioJZuGYA6iQpCGTSvnbgioLTiihgSdApUbC1E4LgxinnyOEphyRBEqIgymmCpvoELAnu314tnElICvhRFwWVQtAPlXzXiiwJXFHAkqATooB/vMRx5xhlnsmiKMiyHCCyIAiSeI/i/7myt24xtzPd9M0JgrBFacLeN7Md/F1BsKYyh5vakudXlB/xG/zdCYAH/6ATQLsjZaooMEkCb6Mxv/y/jS6a/g1uLugQYrD7oqmzdzBtixMStYHxdxhem7mkJQhkf3b7soixL4t4fVn0XU8UiL4rJUFgUcCSQNYnaHntQMRbvLkLOAgCUCcNQSDTDfUJdEnQUJ+AJUFQUZC2IDh8uJa/kQSBJglcUXBIFQWTmahPcN+OauHMzvQliop6qiCKKPA+UJKSQMRWEjTUJ+B5Jawo4B8rcWh+MUmCyywJXFEwSxMFhvk6qWRdDhC08TW1Pa0k/R7FIwqyuWYxtzXd9I8g4KI0qiSIWr3WRhTIgb9VfYJnr6vO5aa25AvLSwvDWOKwpjioKKANxnfmF/dyc0EHqMyauEp07H/UO3onIwbx27h5LalcVXmP6fVZSxqCgKC+3NSfRYx9WcTty6Lv+p0moLj9V8QkCqQkkKKg5bUDXRQoCzjx33t/UgFtSVMQUPwkgSsKHlREwQPZEgVBThN4ooDkQCcEwZEph0KSwCQKopwmiFcUVAunOywGdFpdPUhLFLRaJ7ZbI7rrRDGn8I+TOGM0x4j4iYJOnybgZmaaTgsCbkaiRJME2f1Aw9zedNM3gsCrXGsQBbokCCoK5KAfeuBfW57PTW3L8yvL35CDvzsBiEE/6ATwVZ4ATJOAzbWDVqLgjWtKr3BTQQcQnfq03sk7mXKu+J8qAxN/yM1rSWl26Q9MXyNrSUsQvLi8UpB92VYUqAs5P1Hg9V8RXRKooqDltQMpCsSirUkU4BQBEKQtCGSSOE3giYJ7syEKvNMEJ9LbBN9wpJY/dNOUc4glQVKiwEYSGOsTsCQ4vbOW6U92/U4TNNUnEGvELIoC/jESR84xWRQF3XB6gOikIEj7PQr+s2Z7nWJuc7rpG0HQULnWUhToksBWFDQN/CItRcGaqnVxvy+sLO0LdJwswAQQVBTokoBFwT9/e0HJ6kQEiJfa7Eu/VB4oTpk6eufSvjihpJYrfcT8NbKVtATBl5ZXCvpizq8/N/RlEa8fi77bThR4fZcTSBSQJKAFnFi0SUnAoqD3JxbQkk4JAplOXztoqk9wlyIKWBJEFQXDKQqCgzdNOZQbWBJkQRTopwlOZezUgB9JnSZwRQFLAlcUiLVh3KKAf4TEaZpjeJ7ptCjoFjlA9JMgIOxPE2T/Qwxzu9NNfwiCnbV3mB5xIyVB2PoEUhLYigI58DcN/mvsfwlUrPALK8v/GNQSR713FkQUvHFN+RFuLkiR4kDxOlMn72TKAxOLuXltocHI9DWylrQEwfMrSnnq020XcyLGvixiEgWqJAgsClgStKtPMHY1ThH0O50WBDLdWJ9AlQQN9QnyjaIgLUGw72gtf+DolHOQIiUBi4IwksATBSwJIouCPZOFU3u7Qw6o0OMRkxAFUU8TuHOLmE9M60RueuJcYBmtzjFBTxMkUZ+Am9cV9JsgINpLgu5Ym5jbnm765gRBq2fhtjpNEEQUhK1P8Lm1lSXcVCvE4P+QPviHtcRBRYFNfYLXF5b+7PXF5V/l5oKUEBPgi6ZO3qmI9lyqDdTezs1ri5jI55m+TtaSliCgp5vIfi37s9qXrUWB7Mei77Y7TdAkCjRJIEVBy2sHLApGcYqgr8mKIKDYSIKm+gT3Z78+QVqCYP/NUw6FJEGcoiDMaQKDKOhqGUmS4HFeK2ZNFMh1ojqvcLMTx5tjYhAFcZ0m6KbTA0Q/CgLCXxJ0zwcX5vanm74SBKokCCoKdElgKwr0Qd9n4B/kplrxzOry/GdXV/6XzeAfZgIwbS78RIEuCWY2GpUd3FyQAqWrSrPExvWfTJ28Uynnirdz86wo5S4vMn2drCVNQfC86McN/drQl337s9qPRbx+LPpuW1GgSgKRMNcOqD4BJEH/kiVBIJP0aQJPFLAkSFwUpCAI9h6t5ffdPOVQsiQKWBL0xEklunJg86GSJwrWKqKAJYErCtYkLwq4yYlDp9W8E2s0x/A800lRwE3rGjopCDq9GW8+kdpdpxob296Z9I0goGfhPiCiiwJdEgQVBVISBBUFcuCnwjTn15av5aZa8+zqyithBv+w9Qnk5sJWFLy+sPRlbipIgVJu4oypg3cuxf9cvar4IW6eFdVcadD8tbKVtAQB4fVr0Y/Vfm1azOnXiIx9WaSlKBB9N3R9ArFoU0UBnyboiQU8CE4WBYFMFq8dGOsTnGotCtISBNcfm3L2UQJKgsMsCVxRcDh2UdBTY8un6SRBm/VigyQQCXuawDSn2H6gxM1NHG9+sZQEWg2cGVHAkiCqKOi20wNEZwVB5zeYM5Kg+6486u9lJ9JXgkDGRhTokuCRzQnWJwghCJ5ZXd2jD/4NxWl4AvAGf54AWg3+cgKwEQXt6hO8trD0T68uwqeHaVC+uvyr5YHSW6YO3qmITfTnuHnWiEF8helrZS1pCgLRpwsNAlD0Y9mvqU+7/Zn7smkx114U1CWBFAXqaYKw9QlUSeBmbqnrFlYgOlkWBDIkCbq5PsFQGoLgliln77EphyRBWFEQ5TSBSRTc1mNyQEKSIEg9q6iiIMw6kZuaOH7zSztRkNRpgm7cLLW/j590Or8x79ZNrvn9TDd9IwjO7Kw5FJMkCCIKGuoTsCSwEQWmQV8O/I+HEASfWzn568+srv65zeAfdALQJYGtKGiSBIvK93BzQYKISWCXqXN3MqWrJtZx86wpZrDIoilpCoLn1pRyngBU+7bSr2V/VvuytSiQ/Vj03abTBCwKvGsHmihoeZqAF3DeIg6SoO/oBkFACXOaYCFLAk8UsCRIWxQkLQh2HpvK775lytlDkqDDokCVBNy8nsTqQ6UOigJuZuLI+jdZEQXcrK5i5hP0zqUbT15kAdN7mXb6RhDct7PmUFqJAl0SPMSSoJ0o0CXBuU3Brh08vj64ICDE4P9AlDtnQUWB3FjYi4LS5KvLSr/AzQUJUR4ovWzq3J1LcXz0o6M/wc2zpjJQXG/+etlKmoKAnnCi92vvpJDoxw392tCX/fpzQz8W8fqx6LvtRIHVaQKRJlGAegR9RbcIApm0rh001Cc4rYgClgTBREEKguD4tGMrCfazJEj0RMGBWk9vOM4Nl3Kt1otBThP41ifg+cR2raiuE7mZiePOMQZJ4M4xYl5pEAVyjuHELQq6dZObBUFAgSQIjul9TDt9Iwju3VUXBGFEgS4JgtYnkJLATxSEFQTPrK5e/fSa6v/jZ4jDDP7q5qKdKNAlQV0UKJsLd4NR2czNBQlQuqo0t5wr/rOpc3cqQYsTSsoD5U2mr5e1pCkIiGdWVwotF3WiH8t+TX1a78+uKFD7soixL4u0EgVRrh14j0WEJOgbuk0QyGSxPoEuCVxRkIYguHXa2XW8niCiIIwksBEFx3pcDkjObajk232wlNa1A3deEfOJXCtyExOn4dHZBlEQ5TSBsT7BLH9R0M0bXHXt0ulAFNhjev/STl8IghMHam+/Z1fNIUmgigJdEgQVBVIShK1PQIO+O/CHFATE09dVvhJk8DdNAK2Ok0lJ4G4uxIbCRhQ0nCZYXHqemwoSQGzGHzR17I5loPS31auqgYoTSqoDpW3Gr5mxpC0I6BSB+umP2q/bigKlLzdJP5GWokD0X7/TBG1FAS/i9IUcLeBGcN2gL+hWQUCRksATBSwJXFHwYHZEwZpTVxJbwG0/PpXfceu0Q5IgTVHQQhL0VcHTxzZWCq0+WEpbFMh1IjcvcbyrbTy/JCEKbE8TcJO6kk4XKtQDSWCH6b1LO30jCE7vnnTu2V1zbESBKglcUbDNThSYJIGNKPhUFEGwtrKz6ShZiMFfnQBaiQL9NIF8lJqfKPjG4tI/fH1J6SPcXBAjxY8Wf6M8UPo3po7dqYjN89PcvMCIiWO36WtmLZ0QBG6/Fn3Zr197fVv04QZRYOjLtqLA68ctREHY+gSQBL1PNwsCmThOEzTUJ7gvXlGQpCDYSoLgtmnHJAlcUXDLVKqi4OgN/XF6QHJuuJbz+2CpnSSgp2MlJQq4eYlDc4tJEnxbzCtpiwJuUldCG3LTOqbTgShojek9Szt9JQjqkkBEkQT3siRoJwriqk8gJYE68EcRBE9tKP/qU2srb/kN/DODf33gbzf465Ig7GMRG0TBkvIpbi6IkXKuuNfUqTsZMaEGLk4oqQyU9pm+ZtaStiAgPre2UvD6dkO/1kSB7NeiHzf0axtRYOrLIkFEgSoJ2ooCSIKephcEgUynrh341icgOZCwINh221Rh+23TDsVPFEQ5TRBEFBzpMzkgOTdcyevrxSCiIIgk8OYUnk/cOYXnE3WtyE1LHFns2k8U2EgCVxTMU0TBXFUU1CVBO1Ew0eUb2azUIfALRIEZ03uVdvpCEJzeWXvHXXsmnbtF/ESBLgnOsCRoJwp0SRCmPgEVpeGmhuKptbUzQQ2x3+DvJwrkxsLdXPCmwkYU8ObirwsDhe/j5oKYEBvVkqlTdzB/FeX3nFXTracTgoBOETT1bdGf9UVdw2kC7tOyX3vXDnRRoPZlEWNfFjGKAkUSBBYFYvFWgCToWXpJEMhkrj5BkicIbp92tnGSFAU2koCb1JeY1oydvHbAzUoc/alYUURBlNMEE7O6fwObtWsGpkAUNGJ6j9JO35wgIEEgczdLAhtRoEqCB1gS2IgCVRK0EwWPDoc/QUA8ua4266m11X+SA3/YwV/fULQSBaZPH1ueKFhc2cDNBTFQGZi4ppwr/r+mTt2piPac4OaFojxQPGj6ullLJwQB8dTaSsHr29yvPy/6sl+/9hUFsj8rfbmpP4u0FAWqJOCFnH6awE8UyEWcXMi5iziIgp6jFwUBxU8SuKLgQUUUPJC8KFiRkCDYfNtUfsuJaWfL7dNOp0XB4cP9eXpA8uhwJd9OEnx6Q3qigJuVON7cwvNLp0SB+O9dv0nqlg9fKBAFdUzvTdrpG0Fw595Jh+JJAhFdEgStTyAlQdT6BI8O1yIJAuL82sqX2w38NoO/u5ngDYWUBHJTYSsK9I2Fu7lYWnmGmwpioDJQetjUoTuWgdLf1maX/oibFwoIgtacHyrlnhL9WZWAXr8WfbmtKBD92CQK1L7cThS0PE3ACzk/UdDyNAH99/mQBL1ErwoCmaROE7ii4F47UZCUIBg+MZXfTIKAE1YSuKLgWDRRwE3qa0wfLIU9TdBUn0CZT2xqWXGTEsf86OzgkiCqKOgNQZDtawam9LsoML0naadvBMGp6yedUywJ2okCKQnC1ieQksBWFMQhCJ4cqm4LW5im4c6ZiJ8oiFif4L98ZWnpj7m5IALVq8bfWc4V/3dTh+5YBoqf5+aFBoKgPbJvq5LAXxQ09uso9Qm0vmwnCsTiLUR9gkJhfh9MSn1ArwsCmU5eOxD/mUhf2ZSfKmzKTzubKTGIgrD1CW440t+nBySPbq4W/E6ghhUFYdaKaQoCb26JSRS0kwQN9QlYElC4OV1PN1wzMKVfRYHpvUg7fSMI7iBBoEmCO1kStBMFuiQIW59ASgJdFMQiCDbWfkkM/lPqwB9m8Nc3EzaioGFjwZsKkyj46tJypCPooE41V9pv6sydTDk3McTNCw0EQXvOr63knxR9XO3XbUWB2q9FvH4t+rHs1371CRr6skhrUVCXBFIUqKcJgooCnCbofvpFEMh0SBQksoAbzk87FJIEnRQFByAIXB4ZruW89SJLgk6JAm5S4rhzC0uCNEWBeppg7OpizzxasxtPEajpN1Fgeg/STt8IgpP7Jh2SBCZRoEqCsPUJpCQIIgo8SRCDICCeGKreYzvwh30soq0o0CWBKwoGK+MvDdbezs0FIXDe5nxvZaD4TVNn7lgGSpffmnfpJ7mJoYEgsMPt2xy1b3v9W/Zt0Zd9BaDat5V+HebagScK5EJOLN6aThOwKPAWcSINosC0iKP/DlHQtfSbIKAEkQSeKGBJEEYUJCUINp6cdoYplpJgG0uCuEUBNwcIPr65WmhXz8pWEkQRBdycxNHnFT9J4IkCnl9iFgU9IwiIbj1FoKZfRIHpZ087fSUI3LAkaCcKdEmQZH2Cj8ckCB7fWLnqiaHKf6dBP+jA7w7+LTYUuijQJYGtKHhlWeU6bi4IQS1XWmTqyB3NQDybOAgCO0Qfz3t9m/u327dFf1ZFgU2/9k4KiX7c0K8NfdnUn11RoEoCEW8xJxZwbUWBXMBxTIs4SILuJCuCYNbZK3m3LRnIfJkzzVnUJoOnm8NvdawMnajlNtwx7ZAkCCoK4pAEUhTsO4rTAyokCOSaMS5R0E4SmOoTcHMSx09A+4mCMKcJ3DlmfgtR0GPFc7v9FIGaXhcFpp857fSNIMjvm3QoUhTokiBofQIpCWxFgS4JVFEgEosgIB5fX3nBNPCnXZ9Abix0USDyJDcVhKAyMPGoqSN3MP+llIuntgQEgT1PrK8UGhZ2Imq/NvZt0Z+9vu3Xr0U/Vvu1Sfrp14iMpwlEWooCsXjDtYPext0UGzbsaYcEATcJWDB0ciq//o5ph9JRUQBB0MDZrbWcTU2rJESBOp9wcxJHvZ6atCjwO03Qi0/XoY21aV3TrelVUWD6WdNO3wiC2/dPOidE2okCKQnC1ieQksBWFPCAH58g2FDZEtoQi/iJAtNmIogokJLgpWvLf/PistIfcHNBAMoD5XeLTvvv9E7c0QyUIhcnlEAQ2POZoVLO6+Oyb3PURV1T3xZ9WRUFar/2EwVefQLuy2p/lpKgvSjwP00AUdCbQBB0J2tPTuWHTtUFQTtJkKQo4OYABfWDJRtJcI4lQZyigJuSOA2n1Cg8r6QpCnr18bu9cNVAT6+JAtPPmHb6ShDoksBGFJgkQRBRoEoCP1FwNkZBcH74rZ//zPpKVR30bQd+uZFIuj7BS8vKt3BzQQBKudIhUyfuaAaK67l5kYEgCMbjGyoFtZ97fZuj9m2vf8t+LfqyX7/2FQWmvixiIwq8hZxYvLW9diCiigLjIo7+O0RBpoEg6E7W3jldWHdq2iFJYCsKgkgCTxSwJDCJgj3Hpnrq7ndcPLStWtA+XEr8NIF++pSbkjgN84oiCqJIAneOEXOKrSgQc0xPbpB66aqBnl4RBaafLe30jSC47cCkQzGJAikJwtYnkJLAVhTokiBOQUB8akPlLquBX6SVKNAlga0o0CVBkyhYVrnw2vrJH+HmAgvKHyx/v9iYvm7qxJ1LcWJizsRPcRMjA0EQDDpFoPdz6uNe3+b+7fZt0Z+NfbtFv46jPkHDYk4kiChQJQFEQfcBQdCdkCBYe+cVZx0lQVHQ6jTB7mO4XmDi7NZKXv1wKU1RINeK3JTEkXNLEqLA5jSBmx5+5G6vXTVQQz9bt4sC08+VdvpGENzKgsBGFOiSIOn6BPELgvJHxaD/92ENcTtRoG8mbEWBKgnEwL+CmwssKOVKg6YO3NHEVJxQAkEQnE9tqOSpjzeJAqV/t712oIsCv34t+rF3mkCkQfrxYk7WJ2h1msBXFCiSILAooE97evQ4aLcCQdCdXHfXFYcEgSoJPFHAksAVBSwJkhAFOyEIjFAdAt+aVlsUUbA5OVHATUmchittPK+kLgp6WBAQvSwJKN0sCUw/T9rpG0Fw/OCkcyvFIAlsRYEuCWxFgS4JmkRBzIKAEIP+F9RB32bg1yVB5PoEyoaiWRSUH+emAgvE5vkxUwfuVMQm+b+WBy5/mJsXCxAE4fjUhkrBd3En+zanpSgQfVkVBWq/9hUFsj/LhRynYTEn0lIUiMWb32kCiruIEzGKApYEUhT08r3RbgOCoDtZc9cVhySBSRQEOU3gioIT4UTBzuO13l+YhuDM1lrOdAo1jtMEtqKAm5I4JgFtKwkaRYEyt/D8YisKuCk9TS/WI9DTjaLA9HOknb4RBLfcMOmQJGglCmKrT7Ar2GMRxX+PXRA8tqE6bGOH1YHfTxSYJIGtKNBPE3iiYHn5P7y0svQ+bi5oQXGg+Luis/4feuftaAZKz3DzYgOCIBznhko5tY/r/Zz6t9e3OaoAlP3b69eiL/v1a69viz5sEgXqYs5WFHgLObF4a3ftQBcFDZ/2sCSAKMgGEATdyeq7rzhrKDGJgjCnCbgpwECr66pxiIJW60WaS7gZiWM6eRpUFMxIgnCnCbgpPU+/SIJu2vCafoa001eCQJUEtqJAlwS2oqCpPgFLAp8TBbELgic2V3/m3HC1FPYYma0oaK5PUN9MtBMFLAmOcHNBC8TG+Yip83YyxYHiBm5ebEAQhOfchkpe7+NtRYHSr419u6Ffa6JA9mvRjxv6tY0oMC3mRIKIAlUSQBRkEwiC7mTV3VcciisK7uqMKOCmAANy3fgAS4K0RQE3I3Ea1oodEgXclL6gHyQBpVtOE5jannb6RhAcOzTlHGNJ0Oo0ga0o0CWBrSjQJcGZhAQBcW5T5Q6/Qd808JtEgZQEtqJA30y4GwreTDSJghWVNx6+5hs/wM0FBi59+NIPlTM2cIsNcrE8UP5pbmJsQBBEQ0oCX1Eg+7js2xy1X7cVBbJPc7x+Lfqz7Ne0oDMt5qLUJ1AlQWBRQJIAoiB1IAi6jxWnr+RWnq4LAk8SsCiwlQSuKGBJ4IqCfFBRgCcYtOK+HdWCJwlEgkqChvoELAmCiAJuRuI0iGeKQRK4cwvPK+7cIuaTOEUBN6VvgCTIDqZ2p52+EAQHDtTefvOhKYdiKwpUSRC6PgFLgnai4N6EBMEjGyp/cm5T9b/a2mEbUdB2M+EjCkynCdwJYEVpkJsLDFRmFZebOm5HM1A6yc2LFQiC6Dy2sVpw+7no27KfN0gCtY/Lvs0x9m3u17I+galf+4oCuaCTCzlOw6c+Iq1Egc1pAj9RICWBFAWuJIAoSA0Igu6DBIGIQ5IgqigIcppgy+2KKIAgaAkJAv0UaprXDrgZiaOuFduJgqinCRrmFpmF5b78O+wXSUDJsigwtTft9I0gOHp4yjnqIwlsRYGUBEFEgek0gS4KkhIExKPDtWeC2OEmSaBsJPxEgS4JXFHQYkPRKArK57ipwIDYND9u6ridSjlX/LuJqyb+hJsXKxAE8fDYpmZJIPu43s+brh2IuH1b9GdVFNj0a69vi0WcSRSoi7l2okCVBNaiwCAJfK8dsCiALEgOCILuY/D0ldzye644KygdEAWuJIAgaMm9u6oF/SRqmqKAm5E4zWvF5EWBdpqgb/8OIQk6j6mtaadvBMFNh6ccSitR0CAJLESBLglcUbDXXhRISZCoINhcW+836OsDf0tRwJsINywJ2okC/TSB8fFpK8t/+aXl5Xdzc4FCddbl94tN8//X1HE7lXKu+Cw3L3YgCOLh3HAt17C4E/06sChQ+rWxb4v+PNO3G/t1lPoExsWcSEtRsKhRFFhdO5CiYB6JgnIBoiB+IAi6DykI2kmCpvoELAliEQW3QxC0ggSBfgpVlQSuKGBJ4IqCbfGKAm5G4ujziXFOUeaVBERBX/8d0sbZtP7pxWRREpjamXb6RhAcYUEQWBQYJEE7UdBUn4Alga8oSFAQPLJh4qce3VS7bGuHg4gCKQmCigJ9M/GFleWD3FygUJ5VvllsRo0dt2NJoDihBIIgPqQkaOjnol/7iQKvj8u+zVH7dTtR0NCvRUyLOq8+AS/kjIs5kdaioC4JpChQTxOErU9wYV49EAXxAUHQfZAgWHbvFYdiIwqinCZwRUHeIApum8LvqwWnd9byftdV4zxN0FyfoD6PcDMSR59TvPmE55QwkiCIKBDzS9+Lqn6SBHRqgn/sTGBuY7rpG0Fw441TzhFKG0kQtD6BlAQ2okCVBGp9grt2JycIiE9sqp7wH/T9RYEqCWSBs1aiwCQJvDvMtJngDYUuCp5dVXrtxIkT38vNBYK3Bt760WKueKE8S2xIRUydN+2Uc8VS9aMXfoabGDsQBPHy6HAlb+znom/Lfq5KgsCiQPZr0Zd9BaCIURQYFnPWokAu5BRJoIsCv/oELU8TQBTECgRB90GC4Nr7rjjXsiRIQxTopwmGT0AQtOKunbW86SRqUqJAXy9yMxLHb06JQxTYSAIIgjr9Jgmysik2ty/d9I0gOHzjlEOSwFYUSElwC0sCW1EgJcFJlgTtREEagkAM/n/08S3Vv2016Es73E4U6JLAVhTokkAf/J9ZXVrIzQWC8uzyquLsklOcJTopS4IMiII7uHmJAEEQP1ISeH3dIAn8RIHftQNZn6Cpbxv6tScKeFEn6xN4izobUSAXdOpiTsRbzFmIAqvTBD6iYBSyIBQQBN3HojNXcoMkCFgSeKKAJYErCk4nLQpwxaAVYr3oCgIZkgSeKGBJkKQo4GYkTvOcUp9PUhMFSyr4O1TorysHnd8Ym9qVdvpHEByZcii6JLAVBbokCFqfQEoCkyhIWhAQH99c+1yrQV+KggZJwBsJG1EgNxJh6xM8s6r6cW4qEFyeVTo/QYKAJUHHRcFA8b9VrqokUpxQAkGQDI8MV/Ly5FBTPxf9uq0oUPp30GsHz/KCrmlRJxZx6qLOtJhreHyViHExJ9JKFIS6diBFAUsCCiRBcCAIug8SBEvPXHGW3nfFUUVBlNMEDfUJTk3PiAKWBLoo2AhB0BKxZiyoHzC5koBFQZjTBJ4oYEngigKxTvQTBdyMxPFbK7aSBLp89kQBzyuBRAEEQRP9JAn4R+4Ypjalnb4RBIdumnIOsSQwiQJdEqRanyANQbCtulYd8BuehSvSUhQoG4hPGzYQJlGgSwLfTx3l4L+68hfPrbnym9zcvubS7NIfXJ5T+r9EHJIEqihQJUGa9QnE93qOm5cYEATJ8cjmSr5lPxd9u60MlH2b01IUiD6tigJ1UecnCuKsT2A6TRBYFGinCUYhCgIBQdB9kCBYcuaKQ4lbFNieJthwEoKgFWLNWDCdRI0qCmxPE3AzEsd3rWiYU3RR4EkCipQEIoEkwVIIAhO0aewPUdDZmgTmNqWbvhEEN5AgYEkQRBSkUZ/gjhQEwdnh2tsf2lobszlCZiMKTBsIG1GgbiSa6xNUrufm9jVjc0q3js8pORSSBO1Egaljx53qrNJGbl5iQBAki5QE7USB2sebThOIeH2bYxQFsl+LhZzfos5XFBgWc7aioNVpAv3aQdj6BBAFdkAQdB8kCBbff8VZzJLAFQX3pSwKIAhaItaPhVZXVpMWBdyMxNHXi2mLgq9CELQEkiBZzO1JN30jCA4enXIO3jTlqKJAlwS2okCXBLaiQEoCvT5BGoKAOLuldms7O2zaPMh7y7aioOnaAW0kxGDvJwrkwP/5NZWvcVP7lsJA4e2Xri6NiTjjFIMkSF0UDBTL1Y9WEytOKIEgSJ5Hhmu5T4j+burrqiQILApk3xb92bioEws5X1HAi7oo9QlUSRBUFFidJoAoCAwEQfdBgmARCQJOkNMErig4rYgClgSBRQEEQUvE+rHQrq6VSRI01SdgSRBUFHAzEqflWlGfU3g+cecUOZ+QJKCoc4oyr7QTBSL4O7Sg10UB/Xz8o6aKqS1pp28EwYGjUw7FRhRErU8gJUE7USAlwR3XpyMIHt5W+eDZrdW/0Qd8W1GgS4KgokBKAj9R8PR11f/1ueuqc7m5fcmFq0trx+aWHQpJglaiQJUESYqCcq54ipuXKBAE6SAlgezrvv3c0MebRIHav0XUft1WFMgFHcdb1IlFnHeaQMS0mJP1CVqdJvAVBYokCHvtQNYncCUBRIERCILuY/6ZK7mFD7zlkCQIKwqinCaQooCbAwz4nURN4zQBhZuROK3Wit58wnOKSTzbSoKGK208r7hzCwSBNXVJUCyY1ku9kE5slE3tSDt9Iwj231wXBKoksBUFuiQIW5+AJIFZFKQjCIiHtlfP+5nhRxRJEEQUtNpAtBIFcuBXP3UUg/4D3NS+RGw2PneRBYEqCWxFQeySYKD436qzin/KzUsUCIJ0+cTmasHvNEE7UdDUx2Xf5qiLOm9hx4s6WZ/AtKjzFQXaYs54mkCkpShQJYGIepqAYrp2IEWBlARSFPidJhid0wcTqiUQBN3JggfeckgSdFIUcFOAAdOHTGmKAm5G4vitF5MSBaqA5nkFgiAgvXuaIP2rBuZ2pJv+EAQnam/fd/OUQ5LAJAriqE8gJYGtKJCSgHIiRUHw4Lbaahrwbe6amSSBrSjQNxA2oqC+maj82efXVX6Nm9tXjMwr/ZHYbPyt/FTSJAqkJEhLFJQHJr7AzUscCIL0oboE7mkCX1FQ7+OPiX7d9jSBiNe3OW7fdvv1zMLOW9SJhVxbUSAWcSZRoC7mbEVBkGsHUhS0PE3QQhTw29vXQBB0JwsefMsJIgk8UXBvfKJgzakrEG0GTuyt5eS60U8SeKKAJYErClgSxCEKuCmJo64Vm56OpcwnSYmCL0MQhKYXRUHaVw1MbUg7/SMIjk05JAlsRYEuCYKKAikJbERBmoLg3i0Xf+yBbdVR3Qw3POLGQhToksBWFOiSwN1MqAM//fe1lZ3c3L7izXnlExf0zYZIK1GgSwJXFMyKTxSUcqVhbl7iQBB0hoc3V/JuP+e4fZ37uezrXh8X/TqwKOB+rUoCa1EgF3ViEdewqLMRBa1OE1iKAqtrBxAFRiAIupN5D7xVuIYkQUBREOQ0QVN9grsaRQEEgZnb9tXy+odMSZwmaKhPwJJAigJuSuLYfqjUThI8y/OJO6fwfGKcU5R5xQ0EQWR6TRSkuWE2ff+00zeC4PpjUw5FigJdEtiKAl0S2IqClvUJUhQExAPbq8dMZth0miBsfQK5gbAVBXLgrw/+lZe4qX3D63MmfqowvzjhbTR4s6FKghlREO7agdjYGgcB3wyUypNzJ3+Wm5g4EASdQ0oCt58rfd23n4t+7ScKvD4u+zZHXdS1FQVyQccxLeqSqE+gSoLAooD7LuoT1IEg6E7mPfhWYf7Zt5z5D77lJC0K/E8TTGNzZuD4vlre9CFTUqLAdJqAm5I4NuvFIKJAFc/efMJzilESLIcgiIveEQXpXTUwf/900zeCYO8tU85elgStREHU+gQkCYLWJ7g1ZUFw37ba79+/vfYfdTMc9NpBEFGgSoK2A//a6j89PVTrq08QCtdU1jdtNEgSUJTNhm99gjn2osA0EJgiNux3cvNSAYKg83x8S7XgSQKRtv1c9G3Zz1VJ0NDHZd/mGEUBL+qi1CdoeZqgjSiwOU3QJAo0SSD7r9d3RX/t59MEEATdydyH3irMI0HAksATBQ8oouD+ZEXBaggCI7funyw0fcCkSII0RAE3JXG89SLPI77rRZ5PYhcFEASx0wuiIK1Ns+l7p52+EQR7SBBoksBGFJgkga0oaKpPwJJAFwW3HkhXEBBndlSf0M2wlARBRYHcPBg3EC1EQcOgrw38YrC/h5vaF3z7muKz6iZDlQS2okA/TXCZJUFIUfD3pVzpI9y8VIAgyAZNpwlEzKKg/WkC2c+pf3uLOo67qBMLOVUUeIs6sZBrKwrEIq5hURdEFBgkgbUoUCWBCK4dmIEg6E7E7y0/96G3HJIEqiiIeprAEwUsCdqKAlwzaMLvQ6awpwlcUcCSwBUFu2ptRQE3JXFarhd5LnHnE5YEnihQ5hNPPNOcwvOKrSgQ/wlBkBDdLQrSOUVg/t7ppm8Ewe7j087uW6YckyjQJYGtKNAlQdD6BO5A7w726QuC+3ZNrvA7QuZ3msBWFOiSIJAo4EH/s+uqU49fV/lFbm5P8/riyp+8cU3p71oeW6aNRtNmI1h9AikJbERBeaCUWnFCCQRBdnh4ayVPfd3r5xy3r/v081CigBd1qiTwFQW8oGta1NUXc54oaHXtQIqCINcOPFGwKEJ9Au63buaWC/0gCiAIuhP6vV390FsOSYIkRIHtaYIVEAQNHDtQy7c7jRpWFAQ5TcDNSZwg60VVFLiSgOeUpvnEQhIocwoEQcJ0qyjg5ieK6fumnb4QBMMnam/fdXzaoQQRBVISBBUFUhJYi4IOCIITO8o/fN+O2pvuoM+SwFYU6JLgEbFpSKI+wWeHKlu4uT3NtxaUT7kbDd5guOFNRitRYDpNMMaSwEYUtKpPUB6Y2MTNSw0IguxhEgVt+7no136iwOvjclHHURd1TQs7sZBTRYG6qPMTBV59ApYEUhQYTxP4ioK6JJCiQD1NELY+QaPg621JAEHQncjfG0mCzoqCaWzQFI7eUBcEbnjt2AlRwM1JHNOaMWVRgL+/lOg2UZDGxtn0fdNO3wiCnbfWBYFREliKAlUSuKLgiJ0oMEkCVRQc64AgIMRgf5Nqhk2SIIgoaKhPwJsHG1GgDvrqfbMnhipf5Kb2LK8tm/zZ1xeVyvLYsi4K5CbD3WiIDYatKNAlQbD6BMXK+Ozxn+MmpgYEQTZpeZrAUhSokkBd3HmLOo5RFMhFnVjI+S3qfEVBkGsHuigIcu1AEwVGSSDi9V3RX3tdFEAQdC/yvbuaElASLGRJ4IkClgRhRAE3BwiC1rbSJYEnClgShBUF3JzEsVkvynlk5kOlWEUBBEHKdI8oSP6agfn7ppu+EQQ7bp12SBK0FAWKJLAVBU31CVgS2IqCTgqC09un3nfvzupfSTPcShToksBWFOibB++56jYD/1D1H55YW/4oN7cneW1heZO6yWgnCvTTBE2bDZHo9QnSLU4ogSDINoFEgezjol/rfVzv537XDnyfdS0Wcr6iQH76o0gCa1HAkiBKfQJVEgQRBSM9KAkgCLqX2Q+/VVDfwzCiIMhpAmN9gtNucM1AcOSGWt762mobURDmNIErCnbV6xNwkxKnSTi3Wy/yXGIrCRrqE6hzipxPIAg6RjeIAm5qYpi+Z9rpH0Fw27SjSgJbUZBKfYIOCQLi9K7qp9XjY0FFgZQErigQm4Wg9QnkoO838D++vtyRzWpavLao9PxrYpNBGwxPFPAmQ0oCG1GgnyaIUJ/gH8oDnZEyEATZR0qCJlEg+7pfPzf08SZRoC7sRNRFXVtRwIs65dOf5tMEIknVJwh17UDE7b8sCdz+20OiAIKge9EFgUzSokA/TbD8HlwzIEgQ+K4fUxQFdJqAm5Q47daMpvViGFHgzSc8p0jxLOYU/O11kKxLgqQ3z6bvmXb6RhBsv23aoeiioEESHJ8KXJ9ASoKg9QnkIE85dqhzguDe3dPXtipIIyWBrSjQTxOErU/gbSDWV8tPbK7+DDe3p3h1Ufljry4u/aO7weC0EgX6JsNGFISoT/A8Ny91IAi6B08UKH096LUD38WdXNRxWooCsZBTRUHDaYJ2okCVBCINpwnaigL/0wRtRYFP/5WSoFdOE0AQdC+tfndSEniigCVBUqJgEKcI3mZ7GtUkCeIWBdykxGk1j/itGeMUBc9AEGSC7IqCZK8ZmL9nuukbQbDt9mmHYiUKNEkQtD6BlAS2ouBIBwXBw/v+4gfu3l17457d7R9vo0sCVxRssxMFJklg3EAYB/3KBm5uT/GNpaW73c2F/BRShjcYtqJAbjJsRYEuCRpFQTn14oQSCILuI0p9ArWP64u7pmsHIkZRIBd1iiSwFgU21w58REGQawe6KDD2XxGv7/aIKIAg6F5sfndxnCZoqE9wn48o6PNTBIcP1/LtPmiK6zRBQ32CvYooYElA4WYlTtgPltpJgvNiDrETBRAEWSGbkgCCoCcgQbCVBYEqCYKKAl0SBK1PIAd5faDvpCAg7t5dvZHMsF6M5l6WBO1EQVN9ApYEtqJADvry3nLzwF97hpvaM3xlaeUXv76kPPkNscnwNhe8wfA7TRC0PoGUBNaiYHapOjEw8fPcxNSBIOhOfK8diJj6utfHRd8OLArkok4s5IyLulaiwCAJgtYnMJ8mSK4+QTdLAgiC7sb0XpqSxrWDfj5FEOREahrXDrhZiWOzZjSvF+1EQXtJAEGQNWhTblqTdSrcrEQwfb+00zeCYMuJaYdiEgVN9QlYEtiKAl0S2IoCOch3WhDcte+t37l79+S/J0lgEgW6JLAVBboksBUF+qD/qY2V//rY+tIfc3N7gq8tqW71Nhe8wbAVBSZJYCMKpCTwrU8wp3QXN68jQBB0N+3qE/j2c7eP+4gCubhTF3Yi6qKurShQJYFIy2sHuihQJYFI62sHmihQJEFgUSD7r+ivF+aWu3KhCkHQ3fjVIfBLsqKgP08RHDhSy9teW3VFwSFFFNzQ+LSsuEQBNy1xGtaMYv5IWxR8bi0EQRbJ0mmCJDfQpu+XdvpGEGxmQRBEFOiSILH6BB0WBMRde2rn3HtmLAlsRIGUBK4oYElgIwq8zUOAQf+xjdUT3NSe4JWl1S+5mwveWEhRoEuCoKJAbjJsRIFWn+Afx6/u7BMjIAi6n7Nbazm9PkGQawfe4k4s6IyLO7mo4xhFAUsCWZ8gzLWDSPUJRN/1O01AcfuviEkU6P3X67uiv3bbaQIIgu4mzO/PTxK4ouBBRRQ8EFwU9NspApIDQT5o8iQBi4KwpwnaiQJuXuIEPYGqrhdVSeA7l7QVBRAEWSUrJwkgCHoAEgSb8tPOZoqPJNjGksBGFMRdn+BQBgTBHXsrS+UdM7/H27QTBabTBLHVJ9hYHT8/XHs7N7ereWWwlvvqYOV/Nmwu2ogCXRLYigIpCdqJApEvcvM6BgRB7xD02oH3+FOxoPM9TcCLu6ZrByLuoo4lgRQFxtMEfqKAJYEuClpeO/ARBV4/Fn3XTxR4/VdElwRN/VdE9t1ukgQQBN1NlN9fEqcJKNy0vkCsIQut1pBJiwI/ScDNS5yga8Z2osBGEjTUJ4AgyDRZkAR0moGbEzum75d2+kYQDOenHZIE7USBLgnSqE9w6EjnBcGJE4XvO7Vn8lumqrWuJGBRICVB2PoEcsAPM+if21hdy83tar5ybfVe4yeQYlMRVBTokqCdKNAlgRQFY/Mqm7l5HQOCoPdoKwq4n8u+7i3uxIIusCigRZ1Iw2kCX1FQlwSeKDCcJrAVBca+LBJEFHh9l9NSFHSJJIAg6H6CXjPQE7coWHJff1w12Hu0lvdbP3prSHftmL4o4CYmTtgPl+IQBa4kgCDINLR5Na3P0gwEQQ/gCoKT044qCYKKAl0S2IoCfZA3i4LOCwLijj21G2QxGrVqbStRoEuCMywJbEWBHPBtBv1Pbqo8xU3tWl4aLP7KV66tXHE/geSNhUkUmCRBEFEQpD7ByLxSbWLhWx0rTiiBIOhdkqhP4C3u5KKOM3NE1EIUqJJAxHjtQMRUn8DmNIGfKFAlQWBR4PbZ7NclgCDofuL6HcYpCpbcO9XTv0+SA0FPpIaRBJ4oYElgKwq4mYkT6qoqzyPGuSSgKPjsuv4WBDTHFOZne4PY+XoEyT3JwPz90k3fCIKNJ6cdii4KdEmw5fZw9QlIEoSpT0CD/IGMCIIT15fffer6yX/r9wzcMPUJSBKErU8gJYHcQDy6qfo3j22a+gNublfy4rLSzoaNhdhQBBUFuiSwFQVyk+FuNMQmQ4qCC/NKd3PzOgoEQW9zdmslL0WB1885aj9vJwpUSRBYFLAkiFKfoNVpAl9RIPux6LvtThM0iQJT/xWhvpvlBRwEQfcT5+/QRhI01Se43ywKFp3p3XoEYdaQaV474GYmTpQ1YxRJ4ImCPhYEYl7Jd4uINq3R0gsEQddDgmDDHXVBYCsKTJLAVhToA3y7QT4rgoA4ef3kJ/Sqtboo0CVBuvUJqrdwU7uSF5eXv2L8BNIgCYKKAikJbEUBbTLERPDfxUTwMW5eR4Eg6A/C1idQJYGfKGi6diBFAUsCKQrM1w40UcCSQNYnCHLtwOvPaj8W8fqx6LttRYHsuxxT/+U+nMkNMARBbxD1moGeuE4T9KIkEGvIgu8aUqwbsyAKuKmJE/QUqjeXNK0Zw4qC/hQEb4j5xJtj6IOkjEuCztYigCDoekgQrL9j2qGooiDqtYOw9QnkAO8N8pkSBLVFshiNKwr22osCXRLYigJ9wG8z6F/4xKrCj3Jzu4qXVlTmvLi8/H/LjYWtKNAlga0o0CWBSRR8Z375BW5ex4Eg6C9s6xM0Le7Egq6tKGBJ4ImCENcOpCgwnSagmK4dyMciyv5s7MsiLUWB6LdBrx1kURJAEPQGSf0eo4uC3qpHsPP4VD7oGtJGEhxmSeCKgsPRRQE3N3FMa0Z33SjWit66kdeLyYiC/hMEry8o5U3zS5YlQWevGUAQdD0kCIZOTTsUG1EgJUFq9QkyJAgcx/mek9fXXtUfbaNKgrD1CeSAbysK9AFfPgv3E5urK7m5XcULK8oPeI9R0zYWclMRRBTEUZ/gjWuKW7h5HQeCoD/xEwVtF3diQecnCuSnQIHqE7AkkKKg4TSBjyjw6hNwX9b7s9uXRVqLgrokkKJAPU0QRBRkTRJAEPQOpvc1rpAkCC8KekMSbD8+lY/yYVPSpwlUUcBNTpwwHy7ZSIKZuaQ+j/iLgv4SBCQHTGtERRRksiYBbWJN67R0AkHQ9ZAgWMeCQJUEtqJAlQRh6xO4A7zPIH99hgQBceL6yf1q1Vo/UWCSBJQg9QnkgB9IFGyqPc5N7RqeX3n5119YWf5zualoJwp0SWArCoLUJ/j2NaXJkfmlX+AmdhwIgv4myfoExmsHuiiwuXbgJwoMfdlaFMh+LPpu02kC6sNq/xXxFnEiWZYEEAS9Q9zXDPREO00wXejm6wbbb5sqxHUqNWlRQJKAm504NuvGJK8dfLqPBMFrC0p5d44Rc4rfh0nKHJOpvoYTBMmlbwTB2juvOOsoBlHQVJ8g314U6JIgkChQBvh6siUIbt1ffWd+3+RfqJLgJEsCW1EQtT6BHPBNR8g+vqX6Hx7ZNPU+bm5X8MWV5T3q8WQpCYKKgoaNhbK5aCcKdElA+daC0mluXiaAIABEIFFgkAR+osDvsYiyPkHLawe6KGBJEKU+gd6XvX4s+m47UaBKgiZRkBFJAEHQO6T1u4wiCrpREmy7baoQ6sMmZf2oS4L9LAmSEgXc9MRx1428ZuyEKPhUnwiCVxeV8q0+SPKRBJkZUyEIkktfCIJBFgQyNqIgan0COcDbDfLZEgTE7ftrD5uegatLgrTrE8xIgtoRbmpXIDYTr7ifOvInj7oo0CVBIFHAG4sZUaBsLniD0SwKSv/9jYWVq7h5mQCCAKgYRYFc4Pkt7mxEAUsCKQpaXjvQRQFLAikKjKcJREzST9YnaHmaQMQoCkTflZLARhRQoSl+GzsGBEFvkfQpAjWhRcGZ7ngE4vCJWi7IOjKMKAgjCRpEwSGzKOAfIXFi/XCpvmYMJgo29r4geHVRKRfmaipJgizMMQRt0k3rtDRCcoKbETum75d2+kYQXHfXFYfiJwmGWBK0EwVR6xPIAV4d5HdnUBAc3zd5zW37av+v/gxcP1GgSwJbUaAP+Lai4KGt1e88vO8vfoCbm2meWV2e/9yq8v9PbiaCiAJVEribC7GhsBEFTacJtEngtYWlL3HzMkMRggAYeHhzJS8Xd2GuHUhRoEoCVRS0vHYgRQFLAikKGk4TtBMFSl9ukn4iLUWB6Ld+pwko7iJOxCQKOr2AgyDoLdL+fUpJ4IkClgSuKHjQXxQsyLgkGD4xlXfXkjGsI5MSBa1OE/CPkThB1o2JnCbocUHwyqJSzu7DpNaioJOnCTp7egCCoCcgQbDm7ivOGpYErUSBlASuKGBJ0EoUmAb3oAN8FgUBceuBya/pz8ANKgqa6xMEv3bgDvpioG8a9LdVB7mpmebZ1ZWHjJ86apLAVhTopwnko9SsRIGcABaWtnLzMkNxoHiwPMs8UGUpEASdgUQBxV3ccWxEQcvTBPq1Az9RYHPtQPZt0YcbRIGhL9uKAq8fi77b7tqBLgo6LQkgCHqPNE8RyIQ9TZA1UTB0opbbeHKqEPT6qt8a0l1H0vqR15FpiQL+cRInzAdMcYqCT26q9rQgaLtGFPGTBN+muUURBZ2aZ0zrszQDQdADkCBYTYKAJUEQUWA6TRBqgPcZ5F1RkFFBcPxgba/+DNxWpwlsRYE+2Ee4Z3aOm5pZPrey8lufX135i/qGwud4siYKdEnQskK6Igp0SeAnCkQmv7W08ovcxMxQHCgeLM0SG3COacDKQiAIOoutKGh1mqCtKGBJEKU+gSoJrEWBqS+LeP1Y9N92okCVBG4WdGbxBkHQe3TydxpGFCw4cyXfaVFAYmD9yalC0ILYtqIgymmCMKKAf6zEsT2F6q0bec3orht5zRhNFPSuIPjq0krB+sOkFqKgk9cOOn16gJLkBtr0/dJO3wiCVXdfcSiqKNAlgSsKTtmLAjm4hx3gd8oB/th0JgXBzQenf+P4/tq/kZLAVhRErU8gJUHDgC/SPOBX//Ls1sp7uLmZ5OnrKvue4Q2FvplwNxS8mbARBXJj4W4ueFNhIwrUCYA2F19fXLyHm5cpLs8uHizOEoMSJ6uiAIIgGzyytZZrEAUGSWAtCtaHuHagiwLZpzlevxb9WPZr79qBLgrUvixi7MsiXl8W/dgTBYok8BMFr3eg8jQEQW/SiVMEasKJgql82vUJ1py6klt3x1TBXUvyOtJdS/I60l1LinVjFkRBEEnAP17ihF03tl4zmiWBJwrE/OGJgh4VBGKtWGi3Tsy6KCA5INZhxvVZmuHmJILp+6WdvhEEK09fcVayJGgnCqLWJ5CDu+0AL/57JgUBcfyGyQfl829NkiB0fQIe7IMO+LoZfnBr5QZuauZw3uZ8z9Nrqq96mwkfUaBuJvQNRStRYPr00UIU/I9vLK4OcBMzBQmCidklp0jJsCSAIMgej2yu5INcO/BEgSoJRALVJ+B+LesTmPq1ryiQ/Vnpy039WaSVKLA5TaCKgrQlAQRB72J6n9OMnyRwRcGDiiggOaCIgqQLGZIUoKy9c7pgWkuGWkeKtWOWRAH/qIkT9QOmMKLAlQQ0j7hzSO8JAjG3FIJ8mBRVFMRdn2BcbFgnZhULWVkbcrMSwfT90k7fCIIVJAg4qiRwRcFddqJAHdxD1yfgwV0d4LMsCI7tr8695cDkP8tn4PqJAikJgogC02AfdMB/YFv1tRMnnO/l5maKp9ZWF+qfONqKAmN9ArGhsBUF+gQwMwlUM1ecUHJpdvHg5dklhyRBlkUBBEF2aS8K6pLgMVUSiFhdO5CigCWBFAVevxZ9ua0oEP3YJArUvtxOFKiSIJAoWFBOdcELQdC70Htqeq/TTtj6BJTFLAvqCfeIRLGuzK04dSW36q7pwmqRoLWu0rx2EJco4B89cfR14528bnTXjrxurK8doz9O2yQKPt5jguDFZaV8u3WiSRRElgQsCkRCbzbH55Ryl2cXC1laGyZZf4Awfc+00zeCYPk9V5wVFB9RoA/s1/HAHnRwDznAZ1YQELfcMPkyCQJPEliIAl0SuKJADPJBrbBNfYIHtlYXclMzxZNrK5+QnzrqokCXBPJ4cjtRELU+wVcHS9u4eZnDFQRzSg5FnwiyJAogCLJPkyhokATx1CdoOE2g9m3Rn2f6dmO/jlKfwLiYE2kpCsTiTbt2kNqiF4Kgt+n0VQM1UUUBZckZkfumC27uncpTBmVO17PsnukCZbmIaS3prSfFGtJbT4ZcSyYlCoJIAlcUHFFEQYqCIMwHTO0kgbtuZEngioJtLURBDwkCkgNB1olJiYI3pSyY214YjM4p5SiXri4WxsWakOK3PuzE2hCCoEcYPFsXBDI0sNuKAn1gDzu4txrgsy4Ibj44uYuef0tpEAUGSdBOFLS0wgEGfK0gzce5qZnh6aGpdz25tvpvvWJnlqLAtJmwEQUNGwse/JsmgMHy1CuLar/ETcwcYiI4OH61/UTQqTtoEATdgxQFga4daKIg0LUDtW+L/uz1bbVfi3j9WvRj2a/96hM09GWR1qKgLgmkKFBPE3iiIKWihRAEvU1Wfr9qYhMFIksp911xBkWupdx7xVnG8daSvJ4Ms5ZstY5015Ji7ZgVUaCeJuBff+K0WztGEQU2pwke3tIbguCFFaV8q3nFnVvEfJK2KHhzftkZkZlXLlAuzC0XRueVnYtzy84Y55JYE1KytjbktzcxTN8z7fSNIGg3sIetTyAHd1tRIAd39V7ZlowLguOHK7928w2Tf0bPwLUVBVGuHQStT3Bme/V/f2Br5be4uZngiXWVG9zNhNhA+EkC7w4zbSZ4Q2ESBboksBUFDRsLd+CvZrI4oWT06uJBbzIQE0DWjLEMBEH3EUYUmE4TWIsC2bdFX/YVgGrfVvp1mGsH+mLOeJqARUF9EZf8xA9B0Ptk5aqBmiCSwBMFLAmyJgqCnCYwXV9NQhTwrz5xGtaOvG5MVRT0gCB4fkUpH3ydGF4SyPklrCi4QJlXdkgSxCEKTOu3eFJM/G/D/H3TTd8IAhrUww7skSywxQCfdUFAHL1h6syxQ1OOKgluYUlgKwqkJAg72Lc8UbC9dj03teMUTjjf98RQ5VtyI9FOFEhJ4IqCFhsKXRTokqDlBHBt5X++NJjtzk6CoNVEkJX6BBAE3UtrURD92kGUxyLK+gRevzb0Zd8FnbqYE/EWc2IB5ycK+C1JDAiC/iBLVw3UJH2awFtP8lrSXU+KNWSnRUEckqCVKOBfe+IEOYmqrhsbPmBS1428ZrQXBd0tCEgOBDl5GqcoCCIJXFEwv7tEQdLXCwjT9007fSMITPa3YWDnwd1mYI96p8wwwGdfEByenH300OR3byZJoIkCXRIErU8gB/uwVrie6te4qR3n8aHKUrmJUCXBebGBsBEFcdUnkIO/OwEsK7/IzcssI1cXD4aZCNIWBRAE3Y8rClgSRKpPoPTvsNcOmvq16MdqvzYt5vRrRMbFnEgbUZDoAhiCoD/I4lUDNVm+dtCwllQfsc3ryE6LApMk4F974gRZO4ZZN7aTBA92sSB4blUpr68TG9aKYj7x1oo8r8i5pVOiIMhpgjFeG7rrQ7Em9NaHvDZMWhTw25wopu+bdvpGEAQZ2MMa4LAWeLgLBAFx0+HJl44emnIoNqJAlwRBB/sg9Qnu3Vn7X/fvrM7lpnaUz6yvnms4kqxvJMQGQpUEvp86aqLAtJlQJwBv8OcJQN1YvLismtnihJKRecWDLScCngz8RIE6ESR5Bw2CoHcgURDk2oEuCrw+Lvs2p6UoEH1ZFQVqv/YTBdSn2y7mRFqLgmZJ8GqCVw0gCPqHrEsCCkkCTxSwJMiKKNDXkhE/cEpUFPCvPHHCfMgUpyh4YHt3CoKn15RyprViHKcJ5Em1rIiCMGtD05ouSNI4PUCYvnfa6RtBoA7qYQf2sIN7uwG+awTBjVPbbzo85RylaJIgrfoEcrA3Dvg7qg9yUzvGpzfW3vvpDdV/r37KaCsK1I1EnPUJvrS8Mv3issu/zE3MLCQIbCeCtCYDUyAIeg9bUdDqNAHF69scoyiQ/Vr0Zb9+7SsKDIs5W1HgLeTE4k0VBfwWxA4EQX+RxXoEeqKcJvBEAUuCrImCIJLAEwUsCYKIAv51J4712pHXje7aUawXYxMFXSgISA7YrhWjiII4JEG3igIIgh6DBEE7+xt2YA87uLsDPMkBSrcIgpumfvnGw5PTJAn8RIEuCWxFgZQEkYrR7Kz9+Zk9lV/j5nYEsYm4Ud1E6BuIpmsHtJEQGwg/UaBLgjCD/4sryvdy8zJNYV7xoDsRiME/7ESQhiiAIOhd/ESBzWkC2c+zVp+gYTEnoosCkUQWwhAE/UdW6xHoSfvagbueFGtIbz3Ja8lOi4Iwpwn4V504QdeOYdaNytqxURSQJOgyQUBywDin8Hxis1bshChoJQlcUSDWhA2iQF0fijVhmqIgLTlAmL5/2ukbQRBpYOfBPYgBDjS4d4kgIA4fnrz3yOEphxJEFOgDfdDB3nrA31nbyU1NnfPDhR88N1z5jmkT0VYUiA1EEFGgbyb8Bv8vrij/0wsral3RyaUgMNniKBNB3KIAgqC3eWS4lpOioNVpgraiQOnfba8d2C7qqE8rCzrTYk7WJ2h1mkAXBUlcNYAg6E+6RRJQslyfQF9HemtJXke6a0leR6YpCvjXnDhBT6NGEQWm0wT37eg+QWCzVrSRBJ4o4HnFnVt4XumEKIhymsBbH/La0F0firVgGFEAQdCDSEFgGtSDDuxhB3cpCUzFZ9Z3kSA4cmR64MYbp/7HkRvNkiCt+gRysG8a8HdNvsRNTZ1zm2vLvA0EbyJabSBMokCXBFHrEzy/svJlbl7mIUEQZiJQJ4O4jbEpEAT9Qdj6BE19XPZtTktRIPqyX7/2FQXaYs54mkCkpShI4BQBBEH/Yvo9ZDW6JGioT/Bg9kRB2w+cFEngioIT8YoC/hUnTtJrx7aioMsEAfHUmko+zFoxidMEjaKgLgk6KQqirg3TlAOEqQ1pp28Ege2gHnZgjzK4d5MgIA4fmfrSjTdOORQ/UdCp+gR376p9967dtVnc1FR5dLjymaYNhEEU6BsIG1FgkgR2g395Ozcv83z7muJBdRKIbIwjTAatAkHQX7QVBaJftz1NIOL1bY4qAGX/9vq16MttRYFYxJlEgbqYsxUFtIh7JeZTBBAE/UtWfvdBEudpAndNqa4nxRqyk6IgjtMEUhTwrzhxgn7I1EoSuGtHsV701o68bmwtCrqzSOFTaysF03qxU6JgRhKEO02QFVHAb29qmNqQdvpGENCgHtb+Rh3YLR6L2FWC4NCR6S2Hj9QFQRBRoA/0kQZ7HvBNouDuXZOp37l/dGvl9x7dVP0Ppk8ZbUVB07UD2khYiAI58M8M/vWB/9lV5SsvDk1lvjihhASBzSQQdiJwJwMx+EcVBRAE/QdJgk9sqUsC+VhE2de9Pi76dWBRoPRrY99u6NeaKJCLOrGIa1jU2YgC82Iu1gUxBEF/042SgNLpawdN9QnEGjJLooB/vYkT9jRqXKcJ7ulSQUC0WyvK+eRZnk/cOYXnE+OcoswrnRIF7SSBu0ZU14diTeitD3lt2Gp92EoUpH16gFDXnJ1KXwiCgbO1t7ca1MMO7O7gLgb0oAbYHdyVZ96u7TJBcPCWP/+FQ0emaiQJVFGgSwJbUaAP9GEHezng37mnNnXv3sovcnNT4RPD1ZvbHkfWJIGtKJCSwFYUKIP/fdy8ruBbLAjaTQQmWxzVGItNv3GANAWCoH9xRUG7fi76ta8okH1c9m2O2q/bigK5oOOYFnVh6xO8sqQU20IIggB0qySgdFN9Al0SuKKAJYErCvLxiQL+1SZO07VVsWZMWRR0rSA4v6aUC7JWVMWzN5/wnNJOErhzC88r7twi5pNOioI4ThOo68NOyAHCtPZMO30jCEIfEwsxsAetUNttgoA4eGTq7kM3TTmHWBK0EgWqJAhrhE/wQG872N+5Z3ILNzVxzqyf/JGPb66NyI1DUFGgSgIbUdB2M0H/ubry3c+v7sxVi7CQIPCbBMJOBO5kICaAoMa4VSAI+puG0wSt+rno27KfN0gCtY/Lvs0x9m3u12nVJ+AfMzIQBIDoZUngrSnFOjJpUbDqrulCktcOttxuJwr415o4pvVjlNMEQUXB3V0sCAiSBEE/VIoiCqKeJnBFweJsiQJaG/LbmTqmtWfa6RtBYBzUeWAPMqiHNcCtjop1oyA4dPStjx68afIfdElgKwr0gf4WHujjGuxP7a29wE1NnIe21lZ9XGwYHuGookBuHoKKggZJoGwk/ESBPvB/fk2lY8Uaw/KtRcWDoY6VhZgIGiraKpOBjSiAIABEa1FgcZqA+3nTtQMRt2+L/qyKAm9RJxZybUWBWMSZRIG6mPMTBa8MxrMogCAAkm6WBJSkTxN460leSzatJ++edjerth86RREF7SSB+wtNgTDXVuM4TeDVJ+hyQUCcH6pLAm+9qMwnnnimOYXnlSyIgiinCdw1olgPxiUKxju4QTatPdNO3wgC20F94f3h7K/vwK6JAn1gd+sTdKEgIA4cnXz+4E1Tzg0kCXxOE7iiQAzsoQb6EIO9O+DXBcE/ntoz+VFuaqI8vKX62Ye31pyPU9qIAl0SBBIFvIlww4O+nyh4Zk1lBzeva/gmCQJtErAVBXISiGqMbUQBBAGQSEmg1ydokoGiXwcWBUq/Vvu2WRTUF3SeKJCLOrGIa1jUmUQBL+aUBV0sC2MIAqDS7ZKA0olrB8tOT3l/vy0/dGJJ4IoC5Qpr3KKAm5I4YT5oilMU3LWn+wUB0SQJeE5pmk8sJIHfnJI1UdDuNIFvfQKxJpTrw/FZnblaIDGtPdNO3wiCqIN6mIGdJIGNKFh9V7cKgtqmA0ennIOUNqIgrvoEcqC3Guyvn7yTm5oYD24q/cFD22p/TYLAJAlsRUG89Qkqbz235sqvcBO7BhIENpPAd3gSsJkIVEkQtlCNXp8AggCoPLy5knf7uUjbfi76tZ8o8Pq47NscdVHXtLATCzlVFDRIAmVhpy7qvPoEvJAzLeZeiuEUAQQBMDH74bcKpt9TN4XWk2mIAlUOEDYfOoU5TRBEFHBTEiet06i+oqBHBAFBkkBdL6pzShhREOU0QZZEgd+HSGNzOisHCHXN2an0jyDgQV0f0MMO6u7ALgZzW1EgB3ZTfYJuFQSHT0z+7IGbJsu6JAgiCkwDfVgj3DTY750s37Wv+jPc3EQ4u7V2/Oy2mvMQx08UNNQn4M2DjShQJYEscNZKFLgD/9rKGW5eV0GCIMwk4E4EYuAPMxGoxridKJCDJgQB0FElQVBRoEoCVRR4fZtjFAVyUScWcn6LOl9RYFjMKQu6yItjCALgB/1OTL+rbkqY0wQLeT1pIwoGNTlABDmdGkYU2EgCbkrihF0/Rlo7siTg9IwgIEgSfHZdpZAVURBFErzG68MkREEW5AChbtQ7lb4RBEEGdXdgF4N5WPtrIwrUgb1bBQGx7+bJU/tvnnJIErQ7TXCYB/mgA31YI1wf7Ksbuamxc8+O8o8/sL168ez2mqNKAltRoG8e5L3ldqJAlwSaKPjuZ68rz+YmdhXfWFI86GuKQ0wC7kQgBn9bUSAlQbv6BBAEwMQjW2s5r59zjH3dIAn8RIHftYOGu6Tqok4s5HxFAS/qZH0Cb1HnIwqiniKAIACt6AVJQEnk2sHpK8a+560nxRqyU6KAm5I4UT9oCiMK1A+YxPqxpwSB5Im1lbyfJNDFc/OcUp9PsiIKgkgCd40o1oQNokBbH47Oie8pPlExbdjTTt8JgiiDehD723BMjAd1P1HQ1YLgpuqf7rt56u9IEtiKAn2QDzvQ2w32tWe5qbFzZnvlugd21JwHt9ejiwIpCVxRIDYLQesTuJKANxI2ooAG/SeGKl/h5nUdJAiCTALfFoN/GFvccP+shSjQJYEUBSIQBMDI2a21HElBr5+rfd2vn4t+3VYUcP+WosC4qBMxLup4Qde0qBOLOO80gYi+mHtxWbTFEgQBaEcv1CWQiUUU3DfdclNq+6GTLgka6xNMz4gClgRBRAE3JXESrW9ltXbsTUFASEngJwqa5hOeU0zi2U8SuPOKmE88UcDzSqdFgd/6cGRuduQAYdqwp51+EQTvsBnQ5/KAHnRQX8ySoJ0o0Ad2ObiL/+zqX8K+Y1Ov7GNBYJIEtqJAH+TDDvQNg/31k/98Yt/UL3NTY+XM9upL9++oORQbUdBUn0BsGsLUJzBtIKQoeHxdeRM3r+v4+pJSXk4AUScBG1HQcKyMJYGlKIAgAL5ISdAgBEXa9nPRt9vKQEUStBUFYiGnigJ1UddWFLiCINo1AwgCYEuvnCag0JrSW1cGWVOeab5SoBP0dGqcpwmkKOCmJE7QD5rCSII2oqBnBQHxxFAlr50+TUQURDlN4IqCpbooiGeNqK4PC/OztxE2bdjTTl8LApl25tfa/mqSIIAo6Opfwt6bJxdff2zK2UdpIQrUQT7sQB/GCJ/YW4t9gXjfnomfP7Oj9s9ndtYFgS4JgogCkySwFQXqBuLxocrfnR8u/CA3set4ZUkp384Uh717ZisKdEngIwogCEBLzm6t5GVf9/o5x0YUqH1c7+dN1w5EjKJALurEQs5vUecrCngx98KK8AsECAIQhJ6SBJQWa0p1PSlSmH/Gbg1os55MWhRwUxIn7InUMKLAZ+3Y04JAQqJAziftno7VKVEQ5TRBqzXid64pZ/Z3bNqwp52+vWJgSsBB3VoUtKtPsLyLrxgQe2/+85/ae/PUhCcJAogCfZAPO9C3GuxFxo5sufhj3NxYuGdn7fh9O2sOhSSBnyhoqk/AksBWFMjNg7y33EoUfGZDrSuLE0peWVI+mMQkoNtiVRLYigJNEkAQgLa4kkD0ebefi3j9nGPq66okCCwK5KJOLOSMizqxkPMVBQZJ4AaCAKRMP4mC+Q8E+9ts96GTKwrqHzrVRQFLgjhFATclcfT1o7uGFOvGtETBbX0iCIgwpwma5hSeT9w5heeTLIkCfX34xvxsXSnQMW3Y0w4EgSE0oNuKAl0S2IqChoG9ywUBsffYVF7EIUnQ6jSBO8jzQG8zyEcd6OVgf+LA5HJuamRO7HnrR+/dVRsVcQWBKglsRYEuCWxFgS4JvE3Ehsr//fhQZQ43sSt5ebB80DQBhD1SFkQUSElgWZ8AggBY8dC2asHt736ioF0/V/u4iFEUqAs7EXVR11YUyAUdx1vUiUUcJ/QiGYIARKGXRcHcB98qzBf9g39Ua6zWkyQJWBSEOU1grE/AkoDCTUmcKB806ZLAXT+KNWOg9eP+/hEEkk5dO2ioT8CSIDFRsKBceD2DVwp0TBv2tANB4JOmAZ0lga0o0CVBq4F98N7uFwR7bp784923TP7t3lumHBtRIAf5sDY4sCjYP/kYNzUy9+yZWnnP7knnnl01hySBSRRISeCKApYENqLA2zyITUMwUdC9xQklJAiCTABBbLEqCWxEgUkSSFFwCYIABED2d5IEniiQ/ZzTtp+rosAgCVRRYHPtQNYnMC3qdFHAP0ZgIAhAVOh31yuigNeUBeoX/OMFJtAHTxFFgd9pAm5K4tiuIZM6TXBrHwoCSTfUJ9DXiO46kdeIJlHw2sJy4fVF3bPhNW3Y0w4EQZu0PSIWUBTIQV0d2HtBEBC7bpl6eg8JApYEQUSBOshHHejNoqD2727dX30nNzUSd++qPX5696RDIUlgIwpMpwlsRYG+eTBtIB4bruzi5nUtJAjcSYAnAFtRoEsCW1EQtj4BBAEIwpmttZzb72VfFzGeJhAxiwLu46okELG6diDiLurEQk4VBd6iTizk2omC50JeM4AgAHHR7aJg9sPRxICk7Xry3uRFATclcYJ+2JSAKOhbQSBpWZ9AmU+yJAoMa8TCq10kBiSmDXvaQZFCy7QTBVHqE/g987bb2HXr5OLdx6ed3WJgV0WBPsCHHeTDDvSeKNhX3cZNDc2JHeWfvmtP7Z/u3lMXBK4k0E4T3MuSwFYU6JLAVhRISXBuY3cXJ5S8NFjKt5oAgooCXRK0EwW6JPATBWMQBCAgD2yvFqQksBYF3M9lX5cysOE0ga0o4EWdKglsRcFzq8Ld1YQgAEnQTaIgLjEgsVlP2p4maKpPcJciClgSmEQBNyVxWq0h/daP3hpSrBsjf9AEQeChioIwpwme5fnEnVNYEriiYGWCJwqWVLpSDEhMG/a0gxMEASIlga0o0CWB38C+uEdOEBw4UXv7ruNTl3aRJLAQBfogbysK9EG+3UCviIKXuamhuXPv1ME790w6d3FaiQJdEpxhSWArCqQksBAF93PzupqXBssHw5riIKJAlQQ2okCVBG6uhiAAwaBTBA1XjUQ/pzRcO9BFQXM/txYFga4dqAs7sZjzFnYzC7podQgyEG4O6CGyeqpASoEk/u7oaQeL2oQ+cGqVFaacqmdNmwydqqXWl3Yer+V2Hq3l9lrkgJ7DMzncJkdlDjSHmwKYJ9ZW8pSwokAVz2FOEzTUJxBrQ32d+NWllYJYIxZe6WIxIKHNeafDTelt4hIEMn6nCWxFgS4JekUQENtvnb6NBIEuCSLZYEtRoEoCHyP8T8cPTF3FTQ3FHXtq37hz76RDUSXB3SwJbESBKgnC1ieQkuATm2r/zyc3VK/m5nU1Ly6rCwJVEgQVBVISBBUFUhLYiIJRCAIQgvu3VwvU33VRIE8T6H299bUDsygwnSawFgW8qNPrEzy7OrwgACANOi0LkpQCAGSR80Ol3Pm1lfyTayuFtEWBtk4svDxYyr802CcbWhAvcQsCGZtrBzaioJcEwY5bpv9wx/Hpv9l5a10StDtNYCMKTJLAVhQYThPcyU0NzMl9tVl37J3851PXTzqnWBLookCXBEnXJ/jEplrkUxFZgQSB7XEyW1GgSwJbUaBLggZRMBeCAARH9Pmc1+dFP/dEgdLfw9YnaHWawPfagRQFYiGnigJvUScWcnJRxz8CAF2BFAbuxl1bt0UNfU2KKyQgBABwOb+mLgwoDfUJeD6JRRQsrxReXEaBEAAxEUcNglYJUp9ASoKF9ytXD8701iSz/bbpF3bcOu2QJLAVBboksBUFuiRoLwpqf3XiROH7uKmByO+rnb7j+klHhiSBrSjQJYGtKNAlgS4KxH9u4uZ1PS+IQb/hcTcWoqDp3pmlKIhWnwCCAITjvh3VgtfnRR/XTxNYi4IGSZB8fYKnxeKPfwQAuhLazEtxoAoEv6j/DqcDAAgOSQOaO55aU8k/reSZ1ZWCDJ1Qe3ZVpUBX2SjPU1aU8pQXVpRyMvwlAYiXpE4QqIlSn2DB/b1zgoDYenxyzY7bph2TJAgqChokQQBRICWBKwoOaaLg4NRKbqo1J2546yfz19fKJ/dNOhRPErAokJIgzfoED2+u/vnZ4do7uIldzxeXlQ+2Ok4WRBTEUp+AJUGTKIAgACE5vbOWk/3e6++ij/teOxAxiYIg1w50URDo2gGLAggCAAAAAPQUaQgCmZb1CR40i4JeEwRb7v3XP7bttunR7SQJfERBkyQIIgpYErii4IidKGisTzD5GDfVmtsPTK7J75t0ZNqJApMksBEFJkngJwoe2lp9gJvXE3xxZflgmCq2tqJAlwS2okBKAlcUzBeBIAAR8O3zoo/7igKDJAgqCkynCSjGawe6KFhTwZMAAAAAANA7JH3FwJQg1w6oMi03tWfYetvkzSQIZKxFgSIJbEVBU30ClgR+ouCmQ5P/eOLEXwZ6LODt+yafvn3/pHNCRJcEJ1kS2IqCqPUJpCR4aMvk73LzegL3SJly5yyoKJCSIKgo0CVB+/oEEAQgPPfsqhZa9nnRzz1RIPq5KgpMpwl8RYHFaYJ21w7kXVI6IsrNBwAAAADoftI8QaDHShT02AkCYsutkx/YetvUX2+73V8S2IqCJOoT3HR4cis3tS3H91R+7db9tX9724FJhySBnyjQJUGy9QmqX+Xm9QxfWFk+aFPF1lYUmOsThLt20Hj1AIIAhEf0+wL1faMc5P4eqj4BS4JI9QlYEkhRIE8TPLUWTzIAAAAAQA/RSUFA0SXBXJYEUhTM60FBQGy9feqJrbdPOyQJWokCXRKEqk9wk70oYEHwLDezLbcemNp064FJhwSBKglsRYEuCWxFgS4JVFFwdnt1NzevZyBBEPZxN64ouNZOFDSdJgggCkgQvLEAggCEh+oQeP1exO333Odlv/f6u0EUeNcOpChgSSBFQZBrB1IUqJJAFQUz1w4gCAAAAADQQ3RaEMj41yfoTUGw+cTUyi0nph1VEgQRBaokCFqfQEoCP1Fw46Gp/3TjjdO/x01tyfGDU08dPzjp3EoxiAJVEgQRBc31CeyuHZzZXv3XZ3f2TnFCybOr64LAJAlsRUFs9QlYEphEwbchCEAETu2s5fwEoV+fbyUKAl070ERBy9ME6rUDCAIAAAAA9BJZEQQyzaKgNwXB+sOTP7LpxJU3SRLooqBBEgQQBbokCFqfQEqCeiYPcVN9uXV/9Z3HDk7+nyQIZGxEgZQEYesTSEmgf7JY3zRUH+Tm9RQkCAI9EzeAKNAlQZT6BK8vhCAA0ZD9/m6134u0k4OqKLC6duAjClqdJjCJgs9CEAAAAACgl+hEkcJ2kZKA0svP1910YvLGzflpZzNLgpaiQJEEO1kS2IoCXRJYioJRbqYvR2+orT92w6RzC8dPErQTBbokCFufwN0w7Oqt4oSSZ1ZV8iQIZL7AksBGFEhJ4IoClgQ2okCVBN9gSdBeFEAQgGjIx6G6kkDv9yLGft/iNEFbUWBxmsBXFKyviwJuOgAAAABA95O1EwRqSBTM7tETBMTGE9O/t+nE9H/QJYGtKNAlQZz1CQ7dOPlPhw9P/jE31cjRQ1PP0aMRj1EsRIEqCULXJ+DNgrdhUEXBjuor3LSe4+nV5YPPrqk6FE8SiEhJ4IqClXaiwHSaIFR9gsUmUQBBAKJhkoPNooD7vSoJRGyuHej1CYJcO/BEgSoJRLjpAAAAAADdT5YFAaWXBQGx6cT0pzflpx1Kq9ME21gS2IgCkySwEQWG+gRHuJlN3HSw9t6bDk/+X0cPTTkmSWArCqQkCCIK1M2Cu2EQGwVXFOys7uHm9RwkCJ65ruo8w5LATxQY6xOssBcFuiSwFQVSErwGQQAiIvu+URSo/V7EeJrATxRsC3/t4NymuiR4TJUEIvI0ATcdAAAAAKD7yeIVg4b08BUDYvhELTecn3YoNqJAlwRJ1ie44Yj/NYMjh6a2ycciHqX4iIIGSWAhCnRJYC0Kdk3+3Ynhwg9y83qOp9dU8p8nQaBJgmdZErQTBU31CVgS2IoC6/oEEAQgIievnyx4/V7E7ffc5/V+3/LagRQFLAmkKLC6diBFAUsCKQqMpwlEuOkAAAAAAN0PThB0luEThR/ckJ/6zvBJgyQIIAp0SWArCnRJ0CAKjkz+4+HD0x/kpjZw5PDUl2YeixhQFCiSwFYU6JJA3zDctbt6lpvWkzx1Xfng02urDkkCkyhQJUGY+gQkCcLWJ5CSwBUFiyEIQDS8McDQ99U+by0Kglw70EWB5bUDbjoAAAAAQPcDQdB5Np68cuPGk9MOxSgKFEmw5fZw9QlIEoSpT3DgpuanGdxw09T7Dh+e/FsqZkiPRVRFgSoJwtYnkBsEG1FAm4U790z+r7t31+Zx83oSKQjcsCRoJwp0SZBGfYJvQBCAiDSMAaK/q6JA7fe+ooAlQaj6BK1OE7QQBdx0AAAAAIDuB4Kg82y848/eu/7k1P8hJYGNKDBJAltREKg+wU2TL3MzPQ7dOLnPfeKB90jE1qKgqT4BSwJbUSAlge9jEffUerY4oeT8deWDT62rOp+TkkA5TeCKgjX2okCXBHHWJ/j6kjIEAYiE7P8NY4Do721FAUsCKQpaXjvQRcG28PUJHttUxWMOAQAAANA7oAZBNhg6OX1+/R3TzgYRP0lgKwp0SWArCnRJIEXBoUPln+Zmuhy6afJ1w2MRPUlgKwp0SRCqPoHYJNyxp7aJm9aznF9byT+5ruqQJPATBXHVJ5CSwFYUqJLgaxAEICJ6/9dFgScIReqCsFEUqJKgrShQJYFIuPoEEAQAAAAA6CFwgiAbDN0xtXTo1LRDkqCdKJCSIK36BPuOTm7hZr5t/43Tv3fgpsn/oj8W0SQKdEkQtD6B3CS0EgUn99b+zYndxd/g5vUs54fKB0kQqJLgqbV2osAkCYKIAlUStBMFr0AQgAgcP1DL0ThgEoW+osB0msBSFFhdO5CigCWBFAXyNMGjEAQAAAAA6CUgCLLBjk+Vv3/tHVOvq5LAVhSokiBsfQJXEviLgse4mW87cNPk/haPRbQSBaokiFqfQGwSero4oeSJofLB80NVh6KLAlUSpF2fQEoCTxQshSAA4Tl2oJb3xgCRlmMACUJFFBivHeiioNVpgnaiwPc0AQQBAAAAAHoICILssPbU9KF1p6YdkgR+pwlcUZBvLwr+/+2dCXRU15nnk87idjZ34ridxFk6Wzux2+0snU7S6SRlMAYbY/bNGAvMIkAISQghdhUIECBALLaxTWxC8BrbSXd60p1eqzPT05mJDaVSScasAmMbs9k5Z86ZOTNzpu/c7717q25d3aq699WrUlXp/zvnf4yh3nv1rsSl7k/3+54uCZxEgSIJvKxIxOvrj19F77F+ReJneiND026CoP0JpCSwEgWL4/9vfV33SG/wqhwSBE/MOMIoNqJAlwSl6k/wCwgCUAAkCLLJQvXvv76bgJJRdqCLAlUS8OQsO9BFwdzcZQd7Zx+OircPAAAAhELn2HiEsmPs4Sj9V/w2AKUBPQjKh5q2+B9M39jzv+7dmGT5REGp+xMsXtnzFepFUN+a+L9e6YGQBPlEgS4JgvYnkJJAXSisq+9+SQxd1bN/xuHo4/cdYU9QFElwQEgCW1GgSwJbUaBLguyiAIIABIfPAbHUPKDOATz633+TKNDLDmR/ApeyA/lYRNv+BLshCAAAAISEJwXGHYntHMf/7dFCskC8DIDiAkFQXkzflDwwnQSBJglmCEmQTxQU2p9ASgJdFNS1xqN1K7qX5Xssoq0o0CVBkP4Ea5ccXiCGreohQfCjmUcYSQKTKNAlwaD1J4AgAAVAc8AK/vc+6xzAk1MULA5QdiBFgZAEUhRYlR1QKl0Q/PydiJaoSObvAwAAKCokAExiQA0kASgJKDEoL6Zt7Bk9bVOSkSQwiQIpCTxRICRBLlFgkgQuoiBDEqR2E2T0JzCKgmL3J1izJH6srbGn6psTSh6b+XIjCQJVEtiIApMksBUFuiSwEwUQBCAYrc3xCM0DniTINwfwqKLAtJvAWRS4lB0ooqBrToVs/ZQL/b/6XUyEBUyMnyctEQAAABSMjRyQgSQARQeCoLxoa2O/N3VTz69IEtiIAtNuAtf+BFISuPYnkJLAVhToksBWFOgLBC8N8V1iyIYEj8x8ufGx+4+w/UIS5NpNYCsKBvYnCFZ28KKQBH4gCEAwWprj0dQcwGMjCnLuJtDLDrKJAlUS8BjLDrKIAq/soJwFQThCIH+kMAAAABCIbGUF2SIOA6A4QBCUH9M29yyZKgSBKgk8UdBuLwqkJHAVBVIS1ApJYCsKdElgKwp0SZBPFKxqiP/Hqoah0ZxQQoLg0fuPMJIEtqJASgJbUaDvJvBEgZAENqKABMGLJRAEQ63saKiQmg/UOYDHJApUSeAsCoQkKKQ/gSoJxNsvL9JiwLygL17wRAcAAAiASQLkChoXgqICQVB+TNja9+Upm3pOTN2cZCZRUGh/AikJbEWBLglcRUGh/QlSCwS5SGiM/1IM1ZDh4ZqXGx+tOcKySQIbUaBKgqD9CaQkyCYKXphYfEFwW1cyOmx3LxYiVURTczyqzgc0FxhloSIJnEXB4uBlB7I/wcDdBGX2iMPBEwMy+HsJAACO0GLfJAFyBYIAFBUIgvJk8ubEnimbk4xCksBGFKiSIHB/AiEJbESBSRLYiAKTJLAVBSQJVjTFF4thGjKQIHik5gij5BIFGZLAQhToksATBVPtRYGUBJ4oKKEgSM0R2E1QFTS1xKM0H+ji0GY3QVZRYJIEYjdBXlEgJIEUBdnKDjrnlUkd6OCLARkIAgAACIBJAuQKBAEoKhAE5cmkzb2jJm/u+Y/JUhJouwmmCUmQTxTokqDi+xM0dR9fvSz5RTFMQ4aHa+KN+2bFPUHgLAoUSRD0sYhPC0mQVxSUWhDw0P+LPwIVSENLPCrnA29O4POAnBNSc4E6B/AYRYGQBFIUOJUdSFEgJIEUBaokMImCreUgCKj237xYH4xAEAAAQADKsQcBJMQQBoKgfJnUkfwlDyNJkE0U6JLAtT+BlASu/QmkJLAVBboksBUFuiRoWZrYLYZnSEGC4OFZcUaSQBUFuiSwFQVSEriKAlUSGPsTDIIgoEASVC71rfFoA//7T3NBaj7gc4BpPpDzQIYoUCUBj3E3ga0osCk7UERBR+0gf3gqLzlAgSAAAIAAuJQZFOspBvQe6NyqrBB/BIYaEATly4TNPYtJEHgRksBWFOiSwFYUSEnwwLpg/QlIEgTpT5D66aFYHJhFQfd/LGvqHiWGZ0ixtybe+NCsOCNJYCMKCulPICXBISEJ8omCTEkwOIJABqKgsiA5kDEf8L//GfMBnwP0+UDvT+BUdqCJAikJgvYnELcxOJRHSYEeCAIAAAiIzaMOw5YDnhTIsXtBvAwMNSAIypcJHT1fmNCRfHWilARZdhO49ieQksBGFJgkga0oCK0/gZAEy5Z1/60YmiGHJwhmxxlFlwS2okCXBK79CaQkyCkKBlkQUCAJKoesZUh8DsgqCsR8UEh/gly7CWz7E2xZ2D14i+HylAMUCAIAACiAXJIgLDmQTwqoEYeAoQYEQXkzoaOna8KWJJtIySMKpCQI2p9ASgJbUaBLAltRoEsCW1GwdFl3vRiWIcfu2fHGvQ/E2YNCEphEQYYkcBAFUhKE0p9g8uALAhmIgvKmbmU8mpoT+ByQVxTQHKDMB6ndRTaiwCAJrMsOpChQJQH9emF8cL6/zAvzICHJEPMaHMqYSP951EtuOQFBAAAAISC3+9N/KeK3Q8Fmp4KMOAQMNSAIypvxW14ZMWFL8v+qksBWFOiSYHD6E4T0WMRlieNNTYe/JIZlyCEFgZfZDqJAkQSPzXTrTyAlwcHp9v0Jni4jQUCh10IUlB8LVyaiqTmBJ5coyJAENBcYRIFedpASBaok4LEpO8gmCvTdBO2D0X8g9+LcJiQEaKFf+HtPC4PM8wMAAChrIAhAXiAIyp/xW3t+MX5rkpEkyLWbwFYU6JLAEwVCEuQSBaokCNqfQEoC1/4EfEEwJJsTSrpmxxv3zImzPVISaLsJgvYnkJLARhTY9Cd4asrhshIEMpAE5UPt6kTUmxN4aE7IJgoGzAd8HnAVBS5lB7ooUCWBSRSI2ykdhckBf6dAsUiLAggCAAAocyAIQF4gCMqfcR3JheO2JhlJAhtREFp/gmh+UaBLAldRkCEJsi0M6L/LE3eK4RiSdM2NN+6eE2eUXKJAlwT7ZvmSwFYUDCg7yCMKdElQroJABqJgcJm3OhH15gQRkyhQJYGzKFhWQH8Ci90EFK/soK7E5QUDf1JvHzq2VBRTQgAAAAgFCAKQFwiC8mdCZ9/nxm3t6TNJAltRoEsCW1Ew6P0J+IJgSevQbU4oIUGwa64vCFRJYCsKdEngKgqkJMgnCp6cVt6CQAaioPTMWZ2IpuYHOSeI5NtNkFcUqJKAx6U/gc1uggGioJSCILgcKO6uAQAAABUJBAHICwRBZXDPtuT2sduSbBzFIAoK7U8gJcEMIQnyiQJdEtiKAl0S2IiCxSu6l4hhGLKQIOBhJAlMokCVBEH6E5AkCKM/waEKEQQy3rm6klhEFZnZaxNRb37g8wHFmx/4fKCKAtNugqyiwGY3gRAFA/oT2OwmyCMKxG2VBvPiP1+w1R8AAIARCAKQFwiCyuDurYnhY7b1/O97tiWZjSjQJYGrKFAlgWt/AikJXESBKgk0UXBiScuRL4thGLLsIEEwL85IEtiKAl0S2IoCXRLYiIK0JKgsQSBD58SuguIwe10ips4Pc/hckJIEYl6wFgWqJOCxKjuQokCVBDxWZQeaKPAkQX2Z7x4oZUkBAACAigOCAOQFgqByGNOZ/Pk9nUmmS4Kg/QmkJAj6WETX/gRSEtiKArEg2CNuf0izY368cec8PlmTJBCiQEqCXUIS2IoCXRLYigK7/gSVKQjUQBSEQ01bPJKaH/icIOcHTxLQ3MDnA10USEmQTRSkxGEAUeBSdqCLAlUSiNsrDSYBkDvYOQAAACAnEAQgLxAElcOY7T3zx3QmGcUkCnRJ4ImCDntRICWBJwra7UWBXAS4igJdEphEwaIVR+4Stz+k2TY/3rh9fpzt4MkmCnRJELQ/gZQEtqJASgJfFFS+IJDBroJgzGiLR2auT8TkHGGSBNaiQMwJqiRwFQWm3QS2okDfTbC6ocx3DwAAAAB5gCAAeYEgqBzu2J78zN3bkz1SEtiKAn03wSQhCfKJgtD6E8iFgEg+USAlAc/fvetd7N3i9oc0UhBISbBDSAIbUWCSBC6iQJUE+UVB9QgCNZAFdsxYn4ga5wceJ1HA5wNVFJh2E2QTBTa7CVJlBzwu/QlKKghMAiBXhlJpATVf9AVKTIlpXPw/o9dW8Ph8bt/5COXzj74V+8Ijb8W++Mhb7Es8X953nv3xwzwPvRm78aE3ohRxSMF8s/Nc5M+3vRajfMfLOfbdrefYX2x9jX1vy2vsL7ecjX1v09koRRxS1sxoPhGZ0XAiMrPpWIxyf+NxVtPgZxbP7CXHYrPrj0Yp4pCCaZiTjDTN7YstfcDPsgf62LLZfloos3pjLTXJaOtM/Nsy2HSOjUd2jDsSk1EXyKnf54tqijikooEgAHmBIKgs7urs2Xr39iSjmCRBkP4EJAk8UbDJThSYJIGNKFAlQcZPDCliMaCKggWreoZ8c0LJlvnxxs7aOKOookCXBKXuT+BJAkUUPFGlgkANZEEmU9uTkekbe2JyjrhPhOYHZ1HA5wJ9N4GtKLDZTZBVFKiSgCdb2YG45eLjuntgKMgBkgLZRYBbijxe1xy6FPnYk5fZxw5dZtfyfPzQJXbdT3gOXmJ/yHM9zyd+fJF94sBFdv2B81mbpN6w/3zks49diH1u/wX2R4+9xT4v8oVH32JSEqii4EaZvcFEwa1d5yLf2PF67Js7Xmd/xvOt7a+zP+885+XbPFISZIiCDj/fD1kUjF59InL3mtNsDM89q/2MXXWajVt1io1f6WcCz8QVPK0nso7h1OYTkelLj8fubT7BZvDct/QEm9l0nN0vI0QBSQIhCtgDPEFFQd2co5H6eX2xhnmvsIa5r7BGniaepXMofayZRxcFy2f1stYanpBFQcfkBOuY1M228Gzl2TaRZ4KfTp7t4/lnCb4ApMWxOCQUir34pPdrOpcpue5NSgHTcflSDFEQ1n1JTMcVO+LS73IdV3FY0TBd05RqEUChAEFQWYzuTEbu6uz5n6OFJMgmCnRJMF5IgnyioHz6EyROzl3R/cfitoc8JAi21cYZxUYU6JLAVhToksBJFJAgmFH9gkDNUJYFJAambOqJTeXzgpwnaI5IzQ8iRlGgzg/a3DBgN4GYG6QkSIuC4GUH8rGIUhRYlR2U8+6BaiVMKWCKv7Mg1MURQYLgD566zD7KQ6KAJIEqCkgSSFFw/YFLA65PYuDTj1+I8bDP/OgC++x+P6ooIEmgigKSBKoo+ArtKtibXT7o3Np1Lvr1rtfZNyg7X2ckCXRRQJJAFQUkCVRR8P0QRcHI1f2R0WtPs9FrTjNVFJAkUEWBJwkMgoDEwJSWk7FpLScZZfqyE0xKggGioFETBSQIPElwLDan7qj1GNbV9kUX1x5l9fP9LJn/CiNRQJJAFQUkCZpJEghRIHYThC4KNk1JsM08JApIEmQTBTaLTRcqQRAEFQN6wlxQVpMgcLkXis39BKXY349VCwRB5XHX9t4XSBCoksBWFOiSwLU/gZQEtqJAlwT2oiCxV9wu4JAg2LrAFwSqJOgUksBWFOiSwFYU2PYneHyICQI91S4M+HwRmbS5J5YxV/D5wZsr+NyQVxSI+UHOEaokcBUFLmUHKVEgJIEUBcbdBHrZAaWppL0HaFFsXtCaUq27B1x3URSSkMeQBME1T19mUhKoooAkgSoKdEHwyccvRD914CK74YmL7NOPUy54kaKAJMHn9r+VKQoeyRQFXtmB3E2Qp+zg5q5zkT/d9Ubs1l1vsK/xfL3rDV8SKKKAJMGfbddEwTZNFGxJi4Iwyg5GtvVH7lzXz+7iIVFAkkAXBSQJKGM1QTCx5UR0cutJNmW5n6mKJFBFAUmCXKLAkwQWuwlqa49GFi58NbZowVFWJyJFAUkCVRSQJFBFgScJFFFAksATBSFIgo1TE0xKAlUUkCRQRUHYi7NyFgT0/2HJAZmwJEEh92XCdFyxIy7t4TLO9FpxWOjYfj+GKXuqAgiCymPUjuScu3b0MoouCnRJUKr+BFIS2IqCAQsBEbkQ4IsANCdU2Lwg3rhlQZyRJDCJApMkcBEFGf0JhCSwEQUZ/Qnu4xnigkCPFAbDu5KhfgArFWM7khHK+C09MX2+UOcJXRSk5ggeVRQYdxPwuIgCdadRqfoTtJRWELgtjKuNYu8ayJWQdhN88JlLkY88fYV95OnLLEMUUNmBIgpIElyrCILrD1yIUunBJw9cZFISqKKAJIEqCkgSqKKAJIFRFGTZSXDz3nORW/a8ySh/uvsNJiVBhijYmSkKSBJ8a3tm2cF3tLKD74UgCUgQjGrrZ1ISqKKAJEHGjgJFEIxvPRH1yw5Oskk8UhSQJFBFAUkCvexAFQVafwJWk2UnQS3//dpFr7IFlIWvsoU8UhSQJFBFgVd2oIgCv+xAEQWzM0UB9ScQlwlE+7Qe1j41wTJEAZUdKKKAJEHHxKEhCFyOc00Yi8tqEwSu4y0OCx3TtUyBINCAIKg8bt96+FOjtvd23ykkgY0oUCWBa38CKQlcRIG6CLAVBSlJsCbxq7a2tt8Ttws4niBY2M1IEriKAl0S2IoCXRLsm5W/7GD/fRAEuTJsd2+sXKUBlS9RxmxNRO/Z1hPz5gx1vlDnCh7TXJESBXxecC474DGKAoMkUEVBZtmBJgpy7SbIJwqWybKDEsoBwmVxXG27B0q5ayBbQpAEJAg+9OwV9uFnSBJc8STBNU+lRQFJAtmf4NpDviC47uCFqNqfgCSBKgp8SZAWBaayg4H9CZSyA00S3Lj3XOSmvW+ym3n+RJEEqiggSaCKAlPZwcD+BOmyg+919AceS08QRPsZSQJVFHhlB4oo8CTBal8QjF15Kqr3JyBJkE8UGMsOFFEg+xPokoDKD+YtfpXNr/MjRQFJggGiwKbsQBEFXtkBT2tN8H8n1k/rYRtIEvCQJNg4JS0K1P4EQ0EQuC5Wg0ReKyhB7isXpuOKHXHpFKbXZEuh42ei2N+LVQ0EQWUyamff5jt39jJVEtwlJIGtKJCSIGh/AikJbEWBLgmyiYJ56xIN4jaBgARBx0L+DzlJAiEKdEngKgqkJPBEwQP2oiBDEuiiAIIgUHRxUAx5MJKf00snz45k9M5Onh29MT53xHLOF3yOyCoVeYyigCQBzRN8XnAWBXJ+4PNBvt0EUhQM6E+gSgKenGUHuihQJQGPGL7SYVq0Zks1CYJykAMyBUoCEgQffPYKk5JAFQUkCTL7E1yKXHvwUtTUnyC7KDCVHeTpT/DwmxlbeL/y4Juxrz74JruJhyTBAFGwSxcFhrIDRRRk608gLufM8Lb+yB3RM2wkjxQFJAlMZQfU0HDM6lNRU38CVRSQJFBFgdefYJkmCnKVHSw5ljGGD9Qfi81dfIxRpCggSaCKApIEqigI0p9AXM6Z6L09bP10XxKoooAkQYYoGAKCwPRnYafQbfLVKAgGu8zA9nsRuwcMQBBUJiN39n2ff8j/H6NIEmiiQJcEd4sP/flEgS4JXEWBlAQF9SdYlzg1t+0VNCfU2Lgg3rhpUTfbzJNPFOiSwFYUDOhPMDtAf4KZEATFCAkEl9y+y8+IXb2MckeXn5EiNG94cwefL+TcMXp7b8Z84c0VPDRX5BUFcq5Q5onUboJ8okDMD7I/Qc7dBDw2osCl7ECKAtNugqZS7x5w7T9QLZSTHJApQBJc9cylyAeee5uRJFBFgV92kBYFJAnkEw+M/QkoP06LApIE+URBrrKDL+7zdxF8mR6J+DA1MjzPSBKoooAkgSoKSBIM6E+glR3o/Qm8sgO5o6AjWKkBCYIRG86wO9b7kmAkSYIsosATBOqOAqU/QcbTDhRRYNWfoMkkCvxdBDX1x6LyiQdz6tOSQBUFXtmBIgoC9SeY3ceaA5YatN3bw0gSqKLAKztQRIEnCapcELi8n0JTyEKzGgWByz1RxGGhYbqGKeLlQAWCoHLhH/ifG8k/5FNsRIEuCWxFgS4JbEWBLgm8hYBYBGQTBbPaeh4UtwcUNtb5gkCXBL4ocC878ETBXDtRYJIEWUUBBEFZ5fZdfnKKAj5XZIoCw3zBYxQFYq6Q84U+V5hEQXqOKI/+BNl2EzS0lFgOEG4L5aI1dSophcuBmHcOWtD7oV/7KayXQeDxver5S5Hf/+nb7GqebKLAKzvwRUEsVXag9Se47uDF2HUHLkSpkSH1J6CoTQxd+xN86ZG3Yl/cdz6qPu1AFQUkCW568I3YzbvfiFJ/AmpgeAv/9S1d56LUyNDYn2CH1p+gU+9P8FqgcRze3h+5fcMZRpJgxPq0KPAkgSIKvP4Ea0/H1LKDMasVUbDyVGzsyhNR6lNA/Qm8HgU8QfsTzGw8FpvZcCyq9icgSaCJgti8uqNRrz9BLc9C/muehUojQ6/swL4/QaAxXDcjySgpUTBdEwWiP0F7FQuCfD/Bpj+n88nQey9EKBTyU3CX+6LXisOyYjqu2BGXzsBlF4HNfdli+3UsROpUNRAElcuIrt5ZqQ/7miRwEQWqJHARBaokcBEFpt0EUhTw/x8tbg8orK+LN26s62YUkyjQdxNsFZIgnygY0J9ASAJbUSAlwT4hCR65H4KgHJNTFMi5wzBvZBUFYq6Q80XGXMGTUxTwecG57IDHJApsdhNkEwW5dhNQxLdbaXFZLNNrqwHTveUPSQH7D5Iu46om4BiTILjq+beZlARXP5cWBSQJPqSVHQzoT/Dk5ZjsTZCNgU87SIsCq/4EVHagiAKSBPkei6iKApf+BN/uOOf8of+H7f2R4e1nGEWKApIEGaIgZ3+CUzHaWSBOZ8QkCryyA0UU2PYnSO0myNLMUOKJggWZosCq7GCOe9nZmvuSbK2QBOvu7UmJApIEan+C9qnVKwiyxWYhGlQUBF3kutyXzTXoNdniumi3jbh0BvT7pvOaUohg0bG9RwiCLEAQVC7DdvVcP6Iredj4YV984Nclga0o0CWBrSjQJYG3CGi3FQWJv29rY2hOaIAEQXtdN6O4iAJdEtiKAl0SWPcngCAo62SIAnXe4PF2E2iiYDSPab4w7iZQ5oucooAkAc0TfG5wFQUuuwkGiAKL3QRSFNS3DsLuAcLlJ97VIAiCLNwL2PrPj7cfX5kA13vP8+9E3v/C24wkgSoKSBKoosDrT6CVHVxz6JL11/X6A+cjNmUHrv0J8mH1WERVFGxz30VAguC2jWfZMB5PFGzIFAV+2YG5P8Gda09Zj+HE1hORVH8CrexgmqnswLI/QT7kboKBoiCz7CAlCgLsIlg9M8lIEqiigCSBKgo8STCEBEGQBajLYpoSdJHrcl/ZFuO2FPtrpGM6rylhCgLT+U0RLwc6EASVDf+w365+2LcVBfqHfltRoEuCoI9FnCEkgSoKZq5PNIrbAhokCDYs7mbtFIMkcBUFUhJ4okBIAhtRoEoCc+nBEQiCMk/O3QQ8RlGgzRcZuwnyiQJtrsjYTaCIAm+O4MkQBcr8kBKJrqJgjVvZQd1gyQHCtEDNlkIWyuVAqeWAxF0SOH9g9QXBO8xPWhLkKzv48FP2ckDilR0oksC17IAiTuXELbt9SZCvP4FXdrD9decxJEEQ2XSWkSRQRQFJgoGiIF12MNJBDkjkoxFz9ido1vsTZD4WUZzKiQULX43l7E+QUXbgLghWzexlFCkKSBKookD2J2gbIoKgkJ8Um86XK+IwJ6pZELhIlkLvjbC9v0K+J6oeCILK5o7dyb+4vSv5O+OHff4h31UUqJLARRRISeAqCqQkuG9D4tSMDYkbxW0Bjbb6eOP6+m5GkiCXKBjQn2BB8MciBulP8BAEQcXEShTwuUKfN6xFgZgr5HyhzxUmUaDPEUHKDlKiQJUEPFb9CVYOohwgzAtUc4aaIAjzfl0lgeO1SRC892fvsPe9mJYEqijwyg4UUUCS4IPPuMsBySd+fDH2iQOZTzsYIAr2m8sOPr/vfKDrev0J9mQ+FvFrWtmB2p9AHGYNPSLxh5vOMooUBSQJhmllB2p/gpFt/YHHcMLKUzHbxyIO6E/QcCzQdak/QdbHIhr6E4jDrFlR08tW3p+WBKooUPsTDAVBUOhPpl2vGWSR63KNQhfRpRYELvcWxi4CWyFR6DhWNRAElQ8fp2du52OV9cN+FklgKwoK7U8gJYFcAJhFQfdD4naAASkIVElgKwrC6k8gJUEuUfDgbAiCSksuUWDaTUDJKRbFXCHni4y5gscoCoQkCNSfQEgCXRRYlR2kRIEvCcS32OBhWpxmSyVDC27TPWVL2OUU7td3EwT89e/52TuMJMEAUaCVHcj+BOLQQHhNDB0ei5gqPXg0mByQZDwWUREFfn+C1zP7E3S69SEgQfD9jtfYDza/lpIEqigw9ScQhwbCa2Jo81hERRR4/QmagskByfxFDo9FdOxD0FrTy0gS6KJgQNnBjHAfq9vJF587DIsxU8QhTrgsNmXCWAgW+6fgLvdV6P2UWhAQtuMXhiAwnVdPGNepaiAIKp/bd/fNpLGSksBVFEhJYCsKdEngffjnH/htRYEuCbxsSN4tbgcYIEEQre9mFF0U6JJgo5AE+USBLgk6hSSwFQXm/gQQBBUZMW/IuSNj3uAxiYJUfwIxV8j5wribQJkvMkSBmCdSc4UQBbLsIKcoEJJAioKcuwnyiAKSBLWry+AnCabFabZUMi67B8KWAxK3HQxuHyR//k7k937+O0aRooAkgSoK1P4EVz13peB7TD0WUREF+foTiEMDc9OeN2JWj0XkCSII/rLjNSYlQYYo2Diw7GD4+uC7ByTqYxEnaI9F1PsTeGUHPOLQwNATD+RjEXVRoJcd1M3J3QBRZ/msXkaRooAkwQBRMCPJVoctCMbHo9vH0wIsc0FmijjECVdBENY2chdBEOSa1S4ISnV/tvcW1vdF1QJBUPn8cPurHx+2u/e3csyy7SawFQW6JJAf/IvVn2D6xp6/n/xT9h5xO8DA2vp4Y9sSXxDYigJVEmwWksBGFKiSwL0/AQRBJSenYOQxigJtvvDmCh4rUSDmCnWe0EVBSibyZIiCIGUHmihIlR2UgxwgzItTcyoZ0/1kS/EEQfF2EYhzv1uRBKoo0PsThCEIPv6TizF6NKIUBSQJVFGglx3csL+w3QPEjXvPRejRiDfvTUsCVRR4ZQdCFHx9xzmn6327oz/yvS2vse91vMYyRMGmzLIDKQpuC0EQ3LPqVIwkgSoKSBIM6E/QIkoPmk8UfE166sG8xa/SoxGZFAUkCQaIglqeeX1O11s2u4+18EhJoIoCtT9B2IJg6/h4tHNCNyNJkE8UiEOccBUEhS6mJS7XhSAwYzq/KYX8dN9W5IiXg2xAEFQHw3cl1+tjZ1N24CIKTJLARhRk/fAvsyHRJG4DZGFtQ7xx3ZJuRlFFgZQEtqJAlwTh9yeAIKiG5BQFcu7gc4U+b1iLAnWu4Mk7V6iiQJUEPMaygzyiIGM3wepEwR/yQ8F1wVqpuN1ncbeAuvQiCCAI/OPyiYLCygsk1x68FP34oUuMJMF1BzVRcGBg2cEN+y8U/H1Pj0X86oNvMpIEA0SBVnZwa5erIDgX+e7Wc+wvtr7GSBSQJFBFgd6fQBxWEGNWn4res/o0G7vqdEoS6GUHqiiY3BKOIJhTf4zNXXwsJQlUUaD2J1hY6ygIHuhjUhKoomBA2UHYgmBiPLptQjejpEQBX5CZRIE4xAlXQSAOCwXT+U0JssAdCoLAdvFeiCAwnU8Pdg9YAEFQHYzo6vv2sN3JK6YxDNSfYLubKJCSQG9Mlq/sgOf09E09XxG3AbKwqiHeuLahm1FyiQIpCTxRUGcvCnRJYCsKdEmwew4EQTUlQxSo8wZPSjDy+SK1m4An53zB54isUpHHKAqEJCioP4FBEnhZWyZyQKIuSPOlUimH8gKJi6xweS+G85IkUEWB15+Ayg6eL3z3AHHNoUuRaw9dZhQpCkgSqKJA7U8gDisIEgRfeeg8o0hRQJJAFQWp/gSugqDzXOQ7284xKQlUUUCSIEMUtBe+e4AYvfpEZMya00xKAlUUeGUHiiggSSAOK4iauqORB5YcY1ISqKJALztYWHvU6T6b5/SxZpIEqigwlB20hiwIOibGo1sndbNtE31JoIoCkgSqKBCHOOGykA57IWi6hikQBGaKfY+29wVBYAEEQfUwbFfySdMYUnRJYCsKdElgKwp0SZBVFHT0ojmhBSQI1ghBoEqCfKIgrP4EUhLkFwUQBFUXPldkFYw8OUWBOlfwGHcT6PMFjzdXiHkiNVcouwls+xPk2k0wu9zkAKEtKnPG5Sfa5YSLICg2LoLAZTdDjvNKSZDaUfBieILgo09dZh97Mi0JVFGQ0Z/giQuh7cz444fPsxt5pCRQRYHan+CW3W843Sf1LPh25zn27W3nmCoKvLIDRRSQJPj+prOhjOHo1f2Ru9ecZhRVFJjKDiasOBnaGM5ecoxRMkXBwLKD2oVugqBp7its6ZxXGIkCTxIoooAkgRQFrTXhC4Itk7oZSQJVFJAk6NTKDsQhTgymICjmT8CHgiAgijmGpvOYIl4OcgFBUD0M390zwzSGanL2J+Af8m1FgS4JbEXBAEmwsXuMePsgByQIVjd2szUUgygopD+BlAQuokCVBBmiAIKgapOxm0CZO3KKAtN8wWMlCvS5QkQVBemyg0xRkK/soKatsA9XRcOwoMyaShUELtv6S4HpuuaEIghkpCh494vh7JIgQfAHT11mUhKoosArO1BFwYHCywskX953npEk0EWBXnZwcwBB8K3Oc+zPSRLwkCT4zlZNFHQIURCSIBi5uj9y17p+NnptWhIMEAUrRelBa+HlBZKahuNsFo+UBKooUPsTzHMUBI1zX2FSEmSIgtmZoiBsQbBpcjzaMTnBKFIUeJJAEQWyP4E4xIlSLqR1IAgKx/Y+XcfQ+rzYPWAHBEH1MPrhno8O25X8jWkc9biUHbiIAlUS5Pvgz//7Dz9si71XvH2QgxVCEMjYiAIpCdYLSWArCgrpT7BzLgRBtSenKDBIgryiQMwVqflCnSt4BkhFVRRsDFB2UK5ygDAsJLOmcgWB+X4GxvkDdiCKISwsdyaQJAjz63jN05fZNU9dZhmiwFB2cF2IguBLj7zFvvTIeSZFAUmCG7Wyg5uo7CCAIPizHa+zb21/3ZMEqiggSfBdpeyAnnggDiuYO9f1MykJVFFAkkAVBWNXhicI7m88zqQkUEUBSYIMUVDnJgga5r3CSBKoosArO1BEAUmC5pAFQfvkeHTTlATbzOOJgkn8M4W2m0CKAnGIE6VcSOtAEISD6TqmuNyn7T2Jl4N8QBBUF8N2964zjWO2BOtP4EsCW1EgJcHA/gS9aE5oCQmCVU3djKJLAltRoEuCYvQn2AFBMGSSIQrUeYPHuJuAJ+d8weeIrFKRxygKnMoOErEZ5SwHCJfFaqkW0GFjvpeBKXb/AckgCgIvIQqCDz9zhX3k6SuMRAFJAlUU+P0J/LKDaw+GJwi+8MhbsS96kuAtTxKoosDvT+CXHXx1r7sg+OaO1xlJAlUUeGUHiijwJEGIgmBUWz8jSaCKAlPZwdiVp0Ibw5lNx2IkCVRRYCo7mOMoCOjRiEvmv8KyigJRdhC6IJiaiG6cmmAkCVRRQJJAFwXiECcgCCpfEBRjHE3H68HuAQcgCKqL4buS3xq+q/eiaSyzZUB/AvFhP58o0CWB/jz0PGUH/eO2JL8q3jbIw4qmeOPKpQm2UkgCkyjQJYGtKNAlga0o0CWBJwrmQRAMqfD5Iqtg5DGKgu0F9CcQkkD2JzCVHZhEwYz1ZdhvwAQEQToQBM586NkrTEoCVRSQJMgQBQcvhTa2n3/0rdgXHn2LkSRQRYFednCjoyC4tetc5Bs7X2cUKQpIEqiiwCs74KEnHojDCmZktJ+NomQRBbLsYEyIguC+puOxmU3H2f0UEgUNWUSBoyBYXHuUSUmgigKSBE1K2UHznHAFwfqpiWj7tB5GkaKAJIEqCrz+BBMhCFSGkiCwvVfbcbQ+HwSBPRAE1cew3b0HTWOZL/l2E9iKAl0SmEVBz8Pi7QILljfFG1eQIBCSwEUUhNefIH/ZQScEwZBMxm4Cfe7g8UQBnyv0eWPAfMFjFAVCEkhRkLPsQIgCKQmmt1eIHCBcGvhRKg23hXNpvm7FaJo4SILgg89eYSQJVFHglR0oooAkwUcPhScI/uixt2I87PM8UhT4ZQdpUeCXHbgLgq93vcG+0eVLgm/s0ERBZ7rsgCe0Mbxj/Rk2MnrGlwSKKCBJoIqC0avDEwT3Lj0eu2/pCUaSQBUFJAkyREG9myCoW3CUkSRQRQFJAlUU+JIgXEHQNj0RXT+9h21QJIEqCtT+BOIQJ0q5kNaBIAgP27G0uVfb+xEvBzZAEFQfw3Ylp5nG0jal6E8wtjOJ5oQOkCBobU6w1qUJpooCXRLYigJdEtiKAn03wVYhCVKiYD4EwVBOLlFg2k2QVxQISSBFQcZugjyiYNrGntjU9nA/+BYdl4UlJcTFZUmAIBiYEL+GVz/3NvsAT0oUPKOJgqeEKAhREHz2sQuxz+2/wKQkGCAKRNnBlwMIgq/teoORJFBFAUkCVRQISRDaGI7YcIaRJMgQBW2ZosDrTxCiIJi+9HhsRvMJRpGiwJMEiiggSVBTf8zpmgsXHGWLeKQoIElgKjtoKIIgiN7bw0gSrJ+miYIpmaJAHOIEBEF1CALb+7W5V9NxerB7wBEIgupj1O7jH+Fj92/6WLpESgJbUaBLgpyiYGvyH7/56MvvE28XWLCsKd64vDnBKDaiQJcEtqKg4P4EEAQIjzp3ZMwbPCZRkK0/gXE3gYUomLypgnYN6JgWkdlTWWUGEAQDE6Ig+P2fvs2u5iFJoIoCkgQfVsoOrnkqPEHwmR9diH12/wVGkkAVBSQJVFHwxX3nna55c9e5yK273mAUKQo8SaCIAtmfgPoViMMKZviGM+x2HikKSBKookCWHdy5NjxBMG3Z8dj0ZSfYvYokyJ2MnzQAACCjSURBVBAFVHZAosBRENCjERcufNWTBLooUMsOwhYEa6cnom339jCKFAUkCVRRIPsTiEOcKOVCWgeCIFxM19OTbyyxe6BIQBBUJ8N2J1ebxtM1YfUnkB/6vQ/+23qXircJLFm2LN7YIgSBKglcRYEqCQL3JxCSwCgKIAgQkZyCkccoCrT5ImM3QT5RQJJgc0+M/zfUD4Qlx60PQWXtIihHQVBFPQiuev5tRpJAFQUkCVRRQJLgwyEKgk8/fiH2mR9dYBQpCkgS6GUHQQTBLXveZH+6Oy0JMkSB0p8gTEEwbONZNrzdlwS6KFDLDkaGKAimtJyMTWs5yUgSTG/OFAVq2cHMBjdBULvoVUaSQBUFJAl0URC2IFg9IxFdOyPJ1vFISaCKAq8/gSg7EIc4AUFQPYLAdjxz3a/NvWD3QAAgCKqTYTsT3xi+O3neNKZBElZ/gru39ZwZ14XmhK6QIFi2LMFaKAZRYJIEtqJASgIXUWDaTeCLAggCJDNWooDPFfq8YS0KhCQY31HBuwZUXAVBpe0iMN+DKaW5ryoSBO9/4W1GkaKAJIEqClL9CUIWBJ9+/CLj/01JAlUUyLKDz7sKgr3nIn+y501GkuCWPW9kigK97CBEQXDbxrOMJMGw9jMpUUCSYIRWdjCyLTxBMHn5ydjUlpOMIkUBSYIBosBREMyve5VRpCggSaCKAtmfoG7O0VAX0SQI1tyXZFISqKLAKztQRIE4xAlaLO4wLAJNgSAwUy6CwPaec92v6fV6IAgCAEFQvQzfnXzCNKaFxKU/gfywr4oCnn3i7QEHmoQgkHERBRmSwEIU6JLATRQUXxAM70pGIAkqLxmiQMwbcu4w7SagSLGYIQqEJEj3J+iJja30XQMqLotLmRAXmUXH9P7NKZUgMF3bFPv3M0iC4H0vvsPe/wLlbfb+5zVRoJQdfPCZ8ATBp564ELvhCRIEviTIJgo+96ibILhx77nIzXvfZBQpCkgSqKLA70/wOqN+BeKwgolsOssoUhSQJNDLDu6gsoO2/tDGcNLyk7HJrSfZlOVpSaCKAtmfYEaTmyCgRyPOW5yWBKooUMsO6mrDFQQrZySjq2cmGUkCVRToZQfUn0Ac4gQtFrePp0W4H9OCUKbQhbQOBEH42IxptvG0vQ/xcuACBEH1MmxX32TTmBaawvoT9N4j3h5wgARBc0uCUbJJAidRoEiCtUIS5BMFuiTYKCSBKgo2L+wuuiCQQBJUYMS8IeeOjHmDxyQKUv0JVEngiYIqEwMqLj/V9lOaxXQYFOMn9oVguq4pLiUPgyQI3vuzdxhJAlUUkCRQRQFJgqufuRLa4vaTT1yIferARUbJJgq8/gTOguB85KsPvslu4pGSQBUFan+CMAXBDza/xn6oSAJVFKhlByPWhycIJqw4GZvUepJJSaCKAq/sQIiC6Y6CYE79MUaSIJ8oWFjbF9q9EK0zk9GV9/eyVTN7WUoUzMgUBbLsQBziRMfEeKRzQjejSFFgWhRSIAjMlJMgsL1v0z3b3Ad2DwQEgqB6+eGDvR/iY/hrfUzDSrbdBNlFQfKfJrf1vl+8PeBA0/J449LlCbZUSIJcokCVBJ4oaCrdYxFLKQgkJAqG7e6Nmb5HkfJMTsHIYxQFYjfB3dt7YqM7q1QMSFwWmDKlqtkvFBdBEOLi2YhLg8IKEATv+dk7jCJFgS8J0qIg1Z/gufAEwSd+fDHGwz6pSAJVFMj+BJ8JIAi+8tB5RpJAFwV+2YEiCkIUBN/veI2RJPjBprM5RcHwEAXB+JWnYhNXnGITW0+xDFHQoomCZjdB8MCSY4wiRQFJAlUUpPoT1Lo9PjEfK+7vja2o6WVSEqiigCSBKgrEIU6QINg2sZttUyRBNlEAQWCmnAQBYbquHtM9m16nJ+zvgSEDBEF1wz+ErzCNa5ixKTsQH/abxdsCjjQsjzc2kSDQJEGzkAT5RMGA/gRCEtiKAikJ1gtJkE0UbFxUekEgIVGAXQWVlZyiQJMEPNUvBlRMi8l8KfaCOgzc5Edxd0a4CQL7sR0kQfDun/+O/R6PlASZoiDdn+CqEAXBHx68GLv+4CVGkuATBzJFgS8JfFFww343QfDFfecjNz58nlGkKCBJcJNWdnALSYIQBcFfdrzGKFIUkCRQRUGqP0GIgmDcylOx8StPsQk8JApIEqiiQPYnmNp8wuma9GjE2YokUEVBRn+Cha+G+vds+axe1lrTy0gSqKKAJIEqCkgSiEOcIEGwdVI3k5JAFQV62QEEgZlyEwQ246qPqdXugQBfByCAIKhubtuTvHXYruQbprENOzlFwY7k2VG7e28Sbws4QoKgsTXBGpcnmEkU6JIgUH+CBntRoEuClCgYREGgAlFQWckQBeq8wTNqZ29s5FASAxKXxauacpcEboKguB9OTdfLFhcGSRDQ+UgSDBAFWtnB+54PTxBc95OLsT88eIlRpCggSaCLghv2X3AWBF/ed579sSIJVFGg9iegJx6IwwrmL7a+xr63JS0JVFHg9ScQuwluaw9PENyz8lRs3KpTTEoCVRSQJJCiYHKLmyCoaTjOSBLMWnIsQxToZQfzF4UnCJprktGW2X2sZVYvU0UBSYIBZQc84jAnSBBsmdTNKPlEAQSBmXITBLb3rt63lSDgrxEvB65AEFQ/w3f17jeNbTGiS4KUKNiZfES8HRCA+uXxxgYSBDKWokCXBK79CaQkcBAFZSEIJGhoWEHhc4Uyd8RG8K/bSP71E1/KoYm+mLRNuUsCtzKD4nzAK1Z5ATGIgkBGSgJVFHj9CV7gCVEQfPwnF2MfP3SJXfeTtCS4/sdpUZDqT/C4uyD40iNvMSkJVFGglx3QEw/EYQXz3a3nmJQEqijwyg4UUfDDEAXBmFWnYmNXnWYkCVRR4JUdqKLAURDMbDwWu7/xOJOigCTBQFHglx3U1oXTqLB5djK6bHYfo5AoIEkwQBQoZQfiMCfaJ8Yjm6ckWMfkREoSqKLA608gyg4gCMyUmyAgbMZWvW/Tn+sRLwVBgCCofm7fk5xgGttiRhcFI3f2jRVvBwSABMGSFQlGkiAlCjRJ4NqfQEqCUPsTlJkgUJGyAP0Kyjfe12aoSwGVoLsIKMVaWOfCdrHrel/FEB6m62RLBQoCGXU3gRQF73kxPEHwsScvx649dJlJSaCKAq/sQO4ocBQEn9t3PvLFR95iFFUUmMoOwhQE39l2jn1n6zmWIQo6DGUHYQqCNadiY9acZvesPs1SomClJgpaT7KJroKg6Vjs/qbjTEoCVRSQJFBFwZyQBMHSOa+w5jl9bNkDviRQRQFJAlUUkCQQhznRPjUe2TQlwaQkUEWBJwlUUQBBYMRFEIQ9htmwuX85rtg9UAIgCKqf7+z496uH7RqcRRGJguG7kv88+adoTlgI9SvijfUrEowkQT5RICVB0P4EUhLYigIpCbz+BGUsCHTQs6A8AimQB5eftusplSTwF8T0Pu0+FLssoP04f9jOiZugcL92GQkCil52EKYg+OhTl2Mfe/Iy+9ihy0wVBXrZwfUH3AXB5x97i33h0bQk+NIj5zNFgSg7oEciisMK5s87z7Fv85AoIEnw3a2vpUSB2p/g+5vOhjaGd685Fbt7zWkmJYEqCkgSSFEwvtVNENBjEWeSIJBRdhPo/QnmLj5W8N+xhjl90aa5rzApCVRR4JUdKKJA9icQhzpBgmDj1ATbOCXBMkTBpIFlBxAEZkp5LRdM19dDr4MgKAEQBEOD4Xv6WkzjW4rcvju5TLwNEJA6EgQrE0yVBEuEJMgnCnRJELQ/gZQEOUXB4soRBDoQBqULpIAD7ovpgSmWKEiLAXkt+w/FmcfZJBxJ4L57wX3sykwQyEhR8O4Xw/t++IOnLsd42Ed5SBSQJLj20KWBosBVEOw/H/mjx95iUhKoooAkQYYo2Hs+tDH81vbXmZQEqiggSaCKgu+FKAjuWns6NnrtaUaSQBUFJAkyRIGrIGg+Eblv6QlGSYmCxkxRoJYdzK4P/jSD+nl90YZ5r7DGuX5UUeBJAkUUkCSQokAc7kTb1Hhkw7Qe1s5DooAkgSoK1P4E1K9AHBYKQ1EQBLmXoNiMr+17F6cEQYEgGBqM2PXKnwzb1fuaaYyLmWG7k2dv29l3s3gbICAkCBavTDCKLgp0STCo/QkqWBDoSGGAkoTCQ2MIKVAAYUgCCi12C5UFaSlgWuC7fZAceHy+FPZBtRRygChTQZBKiILgI09djl3z9GUmJYEqCkgSfFyUHVwXQBB8bv8FRpJAFQXGsoMQBcGf7XidkSRQRYFXdqCIAr/sIDxBcOe607G71vUzihQFJAn0soOxK90EAXFv8wk2g8cTBU3HM0SBXnbgJYAkqJvXF62ff5Qtmf+KFykKSBI0zdFEwexMUSBO4QQJgvXTe5iUBKooIEmwWSk7gCAw43ItSqHXs8Xmfdl8DbB7IAToWfnDuhKzyjX8/X1CvFVQIMN3Je82jXExwxcHo8TlQQEsWhX/Gs+sRa1+FhvSoGaZn6WmLI3PWmZIqyGrGsxZo2axnzZK/ZFJ4i1XHbKHAaRB/kAIFAHXxW3+xLxz+onkCF03mxDQ4/ahOOg90XEu0H3Yvf/MBMW/nvmceui1YWE6vymu45eDDz99JfaRp68wkgSqKPDKDhRRcO1BN0Fww/7zkc/86AL77P4LLJso8MsO+K/3hScIvrHjdfZNnpQo6DyXIQr8sgOeEAXBqOjp2Ki2fnankAS6KEiVHaw85XzN6cuOx0gSqKKAJEFOUWApCWprj0YWLXglVrfgKFtc60eKApIEqiggSWASBeJUTpAgiN7bw6LTe5gqCryyA0UUeGUHEARGXAWBzf2EJRFsxzhXxKkAAACA0gNpkCkDIASKTNAFdeni/hP+IAt3GRoPP77MIOSvKf65g52/kEW0f23zefXI9x0GpvObEqIg+NCzV2IfeuYK+zCPFAUkCQaUHRy85HRNEgSffvwCk5JAFQUkCTJ2FIQpCLpeZ9/Y6UsCVRSQJFBFwbe3hicI7oieiY2K9jOSBKooIEmQsaNgtbsgmNp8IjKt5SSbviwtCVRRkKs/AYkCitrAkH5NTzyYv/DV2IJFr7KFC19lixYc9SJFAUkCVRSYyg6kKBCndWL1jGSk7d4eRiFRQJJg/TRNFEzxRQEEQXaCLMTpJ/MUur4aeS5x6oKg8+nXdQl2DwAAAChLVHFQLfJAigC6H8iAQaS8JYG7ICAKkQTFSKEL6CEkCD7w7JXYB5+9wj7EQ5Lgw0+bRcFHDwURBBcZSQJVFJAkUEWBJwlCFARf73qDeZJAEQUkCVRR4PUnCFEQjFh/JjYyeoZRpCggSaCKApIEowMIAmJKy8mYlASqKHDpT5B+LOIx77GI8+teZbWL/AwQBbV9UXU3wYCyA0UUiLfoBAmCtTOSbB2PLgpIEqiigBoaisNCYagLgnwRpy4Y07ltA0EAAACg4pCLa10gDKZEkNeXAgASoMwpX0kQTBC4LKiLnTAWz0NIEFz93JXYB557m5EkUEUBSQJVFFzjKAiuP3A+csMTFxlFigKSBKayA3rigTisYL626w1GSYmCnZmiQPYn+FaIguD29WdiIzacYXesVySBIgpSZQcBBcHE1hORKS0n2VSelChodis70B+LSJJAFQUkCTxRUHs0SqHdBOqOAk8UaGUH1J9AvEUnSBCsuS/JSBKoosArO1BEgdefAIIgK4X+pN4UceqCKUReiFMAAAAA1YdcoOsyQY++sM8W9XwUcRlQqZTTojqdYIKAKIf7CWvhPIQEwe//9Ers6p++zShSFJAkUEWB15/gKXdB8MkDF9mneDxR4EmCtChQyw6ooaE4rGD+dPcb7FYhCb7WpYmCHWlR8M3Oc6GN4bANZ2K3bzjDSBKMWK+JAqXs4M61wQQBMbnlRHTKcl8SqKLApj+BWnYgJYEqCkgSeKJgod+7gP4rdxRk7U8w1xcF3ptzpHVGMrJ6ZpJRpCggSaCKAq/sgAeCIDeFLMRNEactmKDyArsHAAAAAADKazdBcEEgGaz7CXHR7C36TdcwpcIFwftfuBK76vm32e8LSXD1c5miwCs7oDgLgkuRT/z4IiNJoIoCc9lBeILglj1vMpIEqiggSfB1rewgTEFw28azseHtZ9jwDWeYFAUkCe7Qyg5GFiAIiEnLT8Ymt55kUhSQJMjbn0ArO5i1JLPsYI4sO6hLNzYkQWDbn0Ac4kRrTTKy8v5etmpmb0oSqKJALTughobisFCoNkEQdCGeLeK0oRBEXohDAQAAAACGOLTgKwdRENbCs7T3Qk9zCHUR4Z3PfK2BqXBB8L4X3o69/4W3GUmCq36aFgUkCT7wbLrs4IPPuAmCaw9cilx/8BKjSFFAksAkCqhfgTisYP5kz5uMIkUBSQJVFMj+BF/fEZ4giGw8G7tt41k2jIdEAUkCVRT4/Qn62ci2wgQBoUoCVRQU0p9Af+rBvIVHo6b+BKayA3GIEyQIVtT0MpIEuijQyw4gCPJDP3U3XSNIxClDwVVeYPcAAAAAAIDO4IgC/3GJxaC49xK+GJAMJUHwIgmCd5gfXxSQJFBFgdefwFUQHLoUue4nl9gfKpJAFQVqf4IwBcFND77Jbt6blgSqKFD7E4QpCH6w6WwssuksI0mgiwKv7ECIghFt/aFcc2Lrieik1pMsJQpa3MsOpCioqT824D3NqTsaHdCfYKEmCkTZgTjEieaaZKS1ppdRpCggSWASBW0zwi2n284X/ju0hakplSQIiLAkgThdaJiukS0QBAAAAAAAufAX18V6OoD/+MBiLbB1whUFxX/fQ0gQvPfFt2Pv/dk77H0vpiWBKgpkf4Krn7nidE0SBB8/dImRJLjuYKYo0MsOwhQEX33wTUaS4Ka9mijQyg5u7QpPEHx/09nYDzedZRQpCkgSDKOyA1UUrA9HEBDjW09EdVFg05/AkwSeKDgWq2lIP/5QhQTBgP4Eym4CVRSIQ5wgQdAyu48tn5WWBKooUPsTUENDcVgobBvfHds+ngSAH9NClVJpgkBSiCgIcs/5sN2xQRGHAAAAAACAvNCCMC0MXKSBfL2/S6BUQiAbdP3MezG9ZzXl894BKFNIFExsORHN1Z/g3qXHY/fxzGg4gb9HQwASBTaygBbw9LrBFhb0OnEIAAAAAAAoCH/RnU6lUg33AECZMLX5RIQi/hcAj2KJgGyYZIAppX5fAAAAAAAAAAAAKBHWuweKUNoAAAAAAAAAAACAMsEkA0xBeQEAAAAAAAAAAFCl2O4eoIhDAAAAAAAAAAAAUG2gOSEAAAAAAAAAAABQXgAAAAAAAAAAAAx1UF4AAAAAAAAAAAAA7B4AAAAAAAAAAACGOtg9AAAAAAAAAAAADHFc5AB2DwAAAAAAAAAAAFUI5AAAAAAAAAAAAFDFdI6NR8QvjdCfmyRAruQ7JwAAAAAAAAAAAMqMHeOOxOTCnn6tRl302wa7B0JkWFfPuNu6klEEQSo/w7WMkNnhZ6SWOzvTGe0l4WXM1syMlenwM17LRJlNfiZrmdqeznSZ9YnoDC0zKW3p1GiZvTYzcyir05knUqtk4UqZuJc6mVY/9VoaWjLTJNPsp1lJC6XJT6uWlQ2ZWa1lbX1m2mTq/KwXaZdZ6GeTlo7adLbUHnl264L4r7fV8sw/snd7bXd7KvO623dq2SWye046e9XM7m5/SE1Nd/u+VI54eZQy089+LY/LzDjSfkDJQcr0dA6pmXqk/Sktz1Am+3lOy/MT03lRyc/HZ+avlfzN2Mz8UmaMn78d83JGfjU6nX9Q8k93ZuZfZEa93P6vWv7zHZn5N5nb/fy7kv8m8lvKsHRepkTSOaLkt7f99kbxzzoAAABQ9gQVAaZADoTM8D29XcN39zIEQaort+/yM0Lkji4/I0VG7fRz5w4/d/GM5rl7e9LLmE4/94iM3eZn3FY/40UmbPEzkdKRZJMom5NsssgUyqYkm0rZmGTTeKbz3Etp72EzeO4TmbnBz/3r/dSIzIr6md3m5wGROev8zF3rZ57I/DV+ankW8Cxc7WfRqoSXOpHFK/3Ur/CzRKSh1U/jcj9NIktb/DSLLFuWYC08y5v9tIqsWOpnZVO3l1WUxm62WmSNyNoGP+uW+GnjidaLLO5m63k28LRT6rrZRsqibrZJZDNPx0I/W0S2Loh72Vbrp1Nk+3w/O+b52SnSNdfPLp7dPHvm+Nn7gJ8HRR6a7efhWX72iTxSc8TLo/f7eUxk/0w/PxJ5/L4j7AmeAzP8/Fjk4L1+fjLdzyHKtCPsScrUI+wpkacpUw6zZ0SepUw+zJ6jTDrMfsrzvMgLEw+zF3l+NsHPz0X+aryfvxb5xTg/fzPWz38S+eU9fv52zMte/k7kV3f7+fvRL7N/4PlHkX+6y88/i/zLnX5io/z8q8ivR/r5z3f4+S8i/zaC8hL7r7f7+Xee3wx/if03kf9OGfYS+y3ltpfYSyIvUyIvscM8v/3Bb+8R/6wDAAAAZU9YgoDOI04JwgKCAEGqO4FEwXYhCoQkSIkCTRKkRIGQBFIUeJKAJ0MS8HiSgIckgSoKSBIUSxRISRCaKBCSICUKlglRICSBFAVGScBjIwlUUUCSQBUFniTgUSVBWKJASgJ3UeBLggGiwCAJPFEgJEFKFAhJcFBIAikKPEnAkyEJeDIkAY8nCXhIEpSdKBCSICUKhCT4tZAEKVHgSQIeIQl0UeBJAh5PEvBkSAKe394GQQAAAKByCEMQQA4UCQgCBBkCEZIgJQqEJJCiwCQJfFFQwG4CS1GQ2k1QalEgJEFKFISwm0AVBTl3EwQUBandBMUSBXM1USAkwR4hCaQoCGM3gSoKcu4mKFAUvMBDkqBgUSAkQUoUKJJAFQXh7CZ4OUMS2IgCCAIAAACVRKGCAHKgiEAQIMjQSZDdBCUXBe2aKBCSYKaQBClRICTBLCEJUqJASII5BklQdmUHxRIFQhKkRIGQBFuFJEiJghy7Ccqu7MBVFAhJkBIFQhK8KCRBShS4SII8uwmKLQp+w5NRdqCIAggCAAAAlUQhggA9B4oMBAGCDL0EEQXO/QmEJEiJAiEJbPsTFHM3waCLAiEJUqJASIKUKMgjCbL1Jwh1N0G5iAIhCVKiQEiCfP0JyrrswFUUCEmQEgVCEqREAQQBAACACiOIIKBj8CjDEgBBgCBDNzlFgZAEo4QkSIkCIQlkf4JskkCKgiC7CSqmP4GQBClRICRBShQsK37ZQdn0JxCS4CEhCdKiQPQnsJAEatlBShQUoexg0EWBJglSokBIgnz9CUxlB7+BIAAAAFBBuAgCiIESA0GAIEM8QhJIUWCzm6DkZQe2okBIgsCiQEgC2Z8gzN0EFdOfQEiC7UISpETBXE0UFHE3gSoKQi070ESBdX8CIQkGiAIhCWR/ApMkKHbZgRQFEAQAAAAqCVrwU6mAl3FHYgPCfx9SYJCAIEAQhJJzN0GpRYGQBNkei5gSBUISyP4E+m4CvT9BLkkw6GUHYYsCIQn0xyLm609QEWUHtqJASIKUKBCSIF9/gmLsJii2KPjN7RAEAAAAAAgBCAIEQdQEEQVZ+xMISTBWSIKUKBCSICUKhCTQ+xMMRtnBoIkCIQmy9SewlQR6f4JBLTsISxQISaCXHdj2J7DZTTDoZQeuokBIAll28G8QBAAAAAAIAwgCBEFMyRAFQhKkRIGQBNn6E4S6m2CQREHg/gSaJEiJAoMkKHbZwaCJAiEJUqJASAK9P4GLJCi7soO8osCXBHlFQR5JkBIFQhLo/QnkbgIIAgAAAACEAgQBgiDZEmQ3QalEQd7+BEISpESBkATWomBN6XYTFFsUuPcnyCw7SIkCIQny9Sco5m4CSkFlB66iQEiClCgQkiAlCoQk+IWQBFIUlLzsAIIAAAAAAGEwfFdv5/DdyX4EQZCs2ZXsv11kBGWnnztERu3wcydlu5+7eEbz3N3pZ4zMtmT/PZStyf5xIuNFJmzxM1Fmc7J/EmVTsn+yyBTKxmT/NEp7sn86z71eevpnKLlvg5+Z6/3cLzIrKrKup3+2yAMic9b6mbsmnXmU1T3983kW8CykrKIk+heJ1FFWJvoXU1Yk+uuVLFnup7HFT5PIUsoyP80iy5oT/S08y2WWJvpXUJoS/Subur2sojR2969WsoaypLt/7ZL479Yu6f4/63jalsRPR5d090UX+1lf1923gaddZlF330aRzTILu/s6RLZQFsT7tlLm+9kmsp0yL963gzLXz06RLp5dlDnxvj0iex9I50HKrHjfQ5SaeN/DSh6pOdz3yP2H+x5V8thMP/tFfnSfnyd4Dtzr58cy0w/3HaRMO9z3E5EnZaYe7ntK5GnKlMN9z0x5OZVnJ/l5jjLx5b7nRV7geXFCOj+jjH+57+cify0z7uW+X1DGvtz3NyL/iTLGzy8pd7/U93civ6KM9vP3PP/A8493pfPPIv9yp8jIl/piIv9KueOlvl/LjKDf++/fFf+sAwAAAAAAAAAAAAAAAAAAAAAAAAAAAAAAAAAAAAAAAAAAAAAAAAAAAAAAAAAAAAAAAAAAAAAAAAAAAAAAAAAAAAAAAAAAAAAAAAAAAAAAAAAAAAAAAAAAAAAAAAAAAAAAAAAAAAAAAAAAAAAAAAAAAAAAAAAAAAAAAAAAAAAAAAAAAAAAAAAAAAAAAAAAAAAAAAAAAAAAAAAAAAAAAAAAAAAAAAAAAAAAAAAAAAAAAAAAAAAAAAAAAAAAAAAAAAAAAAAAAAAAAAAAAAAAAAAAAAAAAAAAAAAAAAAAAAAAAAAAAAAAAAAAAAAAAAAAAAAAAAAAAAAAAAAAAAAAAAAAAAAAAAAAAAAAAAAAAAAAAAAAAAAAAAAAAAAAAAAAAAAAAAAAAAAAAAAAAAAAAAAAAAAAAAAAAAAAAAAAAAAAAAAAAAAAAAAAAAAAAAAAAAAAAAAAAAAAAAAAAAAAAAAAAAAAAAAAAAAAAAAAAAAAAAAAAAAAAAAAAAAAAAAAAAAAAAAAAAAAAAAAAAAAAAAAAAAAAAAAAAAAAAAAAAAAAAAAAAAAAAAAAAAAAAAAAAAAAAAAAAAAAAAAAAAAAAAAAAAAAAAAAAAAAAAAAAAAAAAAAAAAAAAAAAAAAAAAAAAAAAAAAAAAAAAAAAAAAAAAEO961/8H1754tDde9I8AAAAASUVORK5CYII=;" vertex="1" parent="1">
          <mxGeometry x="86" y="22" width="184" height="115" as="geometry" />
        </mxCell>
        <mxCell id="roKjLfnRFjC0Z9Z0MT9X-42" style="edgeStyle=orthogonalEdgeStyle;rounded=0;orthogonalLoop=1;jettySize=auto;html=1;fillColor=#FF9999;strokeColor=#FF9999;" edge="1" parent="1">
          <mxGeometry relative="1" as="geometry">
            <mxPoint x="880" y="510" as="sourcePoint" />
            <mxPoint x="607" y="510" as="targetPoint" />
          </mxGeometry>
        </mxCell>
        <mxCell id="roKjLfnRFjC0Z9Z0MT9X-46" value="&lt;font style=&quot;font-size: 14px;&quot;&gt;Firewall Rules&lt;br&gt;&lt;span style=&quot;font-size: medium;&quot;&gt;[dnat-rules-collection]&lt;/span&gt;&lt;br&gt;[network-rules-collection]&lt;/font&gt;&lt;div&gt;&lt;font size=&quot;3&quot; style=&quot;&quot;&gt;[aplication-rules-collection]&lt;/font&gt;&lt;/div&gt;" style="sketch=0;outlineConnect=0;fontColor=#232F3E;gradientColor=none;fillColor=#DD344C;strokeColor=none;dashed=0;verticalLabelPosition=bottom;verticalAlign=top;align=center;html=1;fontSize=12;fontStyle=0;aspect=fixed;pointerEvents=1;shape=mxgraph.aws4.waf_managed_rule;" vertex="1" parent="1">
          <mxGeometry x="942.5" y="363" width="43" height="43" as="geometry" />
        </mxCell>
        <mxCell id="roKjLfnRFjC0Z9Z0MT9X-49" style="edgeStyle=orthogonalEdgeStyle;rounded=0;orthogonalLoop=1;jettySize=auto;html=1;fillColor=#CC0000;strokeColor=#FF9999;exitX=-0.03;exitY=0.409;exitDx=0;exitDy=0;exitPerimeter=0;" edge="1" parent="1">
          <mxGeometry relative="1" as="geometry">
            <mxPoint x="1435.96" y="509.5400000000001" as="sourcePoint" />
            <mxPoint x="1016" y="510" as="targetPoint" />
          </mxGeometry>
        </mxCell>
        <mxCell id="roKjLfnRFjC0Z9Z0MT9X-51" value="" style="image;aspect=fixed;html=1;points=[];align=center;fontSize=12;image=img/lib/azure2/networking/Network_Security_Groups.svg;" vertex="1" parent="1">
          <mxGeometry x="813" y="282" width="37" height="44.93" as="geometry" />
        </mxCell>
        <mxCell id="roKjLfnRFjC0Z9Z0MT9X-53" value="" style="image;aspect=fixed;html=1;points=[];align=center;fontSize=12;image=img/lib/azure2/networking/Network_Security_Groups.svg;" vertex="1" parent="1">
          <mxGeometry x="1286" y="285" width="37" height="44.93" as="geometry" />
        </mxCell>
        <mxCell id="roKjLfnRFjC0Z9Z0MT9X-56" value="&lt;font style=&quot;font-size: 18px;&quot;&gt;log-egress&lt;/font&gt;" style="image;sketch=0;aspect=fixed;html=1;points=[];align=center;fontSize=12;image=img/lib/mscae/Log_Analytics_Workspaces.svg;" vertex="1" parent="1">
          <mxGeometry x="520.5" y="184" width="50" height="50" as="geometry" />
        </mxCell>
        <mxCell id="roKjLfnRFjC0Z9Z0MT9X-61" value="" style="endArrow=classic;startArrow=classic;html=1;rounded=0;" edge="1" parent="1" target="roKjLfnRFjC0Z9Z0MT9X-46">
          <mxGeometry width="50" height="50" relative="1" as="geometry">
            <mxPoint x="964" y="496" as="sourcePoint" />
            <mxPoint x="950" y="450" as="targetPoint" />
          </mxGeometry>
        </mxCell>
        <mxCell id="roKjLfnRFjC0Z9Z0MT9X-70" value="" style="group" vertex="1" connectable="0" parent="1">
          <mxGeometry x="125" y="888" width="133" height="52" as="geometry" />
        </mxCell>
        <mxCell id="roKjLfnRFjC0Z9Z0MT9X-63" value="" style="image;aspect=fixed;html=1;points=[];align=center;fontSize=12;image=img/lib/azure2/general/Browser.svg;" vertex="1" parent="roKjLfnRFjC0Z9Z0MT9X-70">
          <mxGeometry x="68" width="65" height="52" as="geometry" />
        </mxCell>
        <mxCell id="roKjLfnRFjC0Z9Z0MT9X-69" value="" style="verticalLabelPosition=bottom;html=1;verticalAlign=top;align=center;strokeColor=none;fillColor=#00BEF2;shape=mxgraph.azure.user;" vertex="1" parent="roKjLfnRFjC0Z9Z0MT9X-70">
          <mxGeometry width="47.5" height="50" as="geometry" />
        </mxCell>
        <mxCell id="roKjLfnRFjC0Z9Z0MT9X-72" value="&lt;font style=&quot;font-size: 18px;&quot;&gt;Kubernetes API Server&lt;/font&gt;" style="image;sketch=0;aspect=fixed;html=1;points=[];align=center;fontSize=12;image=img/lib/mscae/Kubernetes.svg;" vertex="1" parent="1">
          <mxGeometry x="508.5" y="737" width="70" height="67.2" as="geometry" />
        </mxCell>
        <mxCell id="roKjLfnRFjC0Z9Z0MT9X-74" style="rounded=0;orthogonalLoop=1;jettySize=auto;html=1;fillColor=#33001A;strokeColor=#33001A;" edge="1" parent="1">
          <mxGeometry relative="1" as="geometry">
            <mxPoint x="543" y="595" as="sourcePoint" />
            <mxPoint x="543.4069767441861" y="728" as="targetPoint" />
          </mxGeometry>
        </mxCell>
        <mxCell id="roKjLfnRFjC0Z9Z0MT9X-82" style="edgeStyle=orthogonalEdgeStyle;rounded=0;orthogonalLoop=1;jettySize=auto;html=1;entryX=0.448;entryY=1.042;entryDx=0;entryDy=0;entryPerimeter=0;" edge="1" parent="1">
          <mxGeometry relative="1" as="geometry">
            <mxPoint x="543" y="478" as="sourcePoint" />
            <mxPoint x="542.8999999999999" y="282.1" as="targetPoint" />
          </mxGeometry>
        </mxCell>
        <mxCell id="roKjLfnRFjC0Z9Z0MT9X-85" value="" style="html=1;shadow=0;dashed=0;align=center;verticalAlign=middle;shape=mxgraph.arrows2.sharpArrow2;dy1=0.67;dx1=18;dx2=18;dy3=0.15;dx3=27;notch=0;fillColor=#3399FF;strokeColor=#3399FF;" vertex="1" parent="1">
          <mxGeometry x="330" y="538" width="140" height="38" as="geometry" />
        </mxCell>
        <mxCell id="roKjLfnRFjC0Z9Z0MT9X-89" value="" style="html=1;shadow=0;dashed=0;align=center;verticalAlign=middle;shape=mxgraph.arrows2.sharpArrow2;dy1=0.67;dx1=18;dx2=18;dy3=0.15;dx3=27;notch=0;fillColor=#3399FF;rotation=-90;strokeColor=#3399FF;" vertex="1" parent="1">
          <mxGeometry x="131.12" y="742" width="128.88" height="38" as="geometry" />
        </mxCell>
        <mxCell id="roKjLfnRFjC0Z9Z0MT9X-91" value="" style="html=1;shadow=0;dashed=0;align=center;verticalAlign=middle;shape=mxgraph.arrows2.sharpArrow2;dy1=0.67;dx1=18;dx2=18;dy3=0.15;dx3=27;notch=0;fillColor=#FF9999;rotation=-90;strokeColor=#FF9999;" vertex="1" parent="1">
          <mxGeometry x="130" y="340" width="140" height="38" as="geometry" />
        </mxCell>
        <mxCell id="roKjLfnRFjC0Z9Z0MT9X-96" value="" style="html=1;shadow=0;dashed=0;align=center;verticalAlign=middle;shape=mxgraph.arrows2.sharpArrow2;dy1=0.67;dx1=18;dx2=18;dy3=0.15;dx3=27;notch=0;fillColor=#FF9999;rotation=-180;strokeColor=#FF9999;" vertex="1" parent="1">
          <mxGeometry x="330" y="497" width="140" height="38" as="geometry" />
        </mxCell>
      </root>
    </mxGraphModel>
  </diagram>
</mxfile>
